<?xml version="1.0" encoding="utf-8" standalone="no"?>
<!DOCTYPE svg PUBLIC "-//W3C//DTD SVG 1.1//EN"
  "http://www.w3.org/Graphics/SVG/1.1/DTD/svg11.dtd">
<!-- Created with matplotlib (https://matplotlib.org/) -->
<svg height="397.558937pt" version="1.1" viewBox="0 0 1143.316875 397.558937" width="1143.316875pt" xmlns="http://www.w3.org/2000/svg" xmlns:xlink="http://www.w3.org/1999/xlink">
 <metadata>
  <rdf:RDF xmlns:cc="http://creativecommons.org/ns#" xmlns:dc="http://purl.org/dc/elements/1.1/" xmlns:rdf="http://www.w3.org/1999/02/22-rdf-syntax-ns#">
   <cc:Work>
    <dc:type rdf:resource="http://purl.org/dc/dcmitype/StillImage"/>
    <dc:date>2024-07-01T16:04:56.171341</dc:date>
    <dc:format>image/svg+xml</dc:format>
    <dc:creator>
     <cc:Agent>
      <dc:title>Matplotlib v3.3.3, https://matplotlib.org/</dc:title>
     </cc:Agent>
    </dc:creator>
   </cc:Work>
  </rdf:RDF>
 </metadata>
 <defs>
  <style type="text/css">*{stroke-linecap:butt;stroke-linejoin:round;}</style>
 </defs>
 <g id="figure_1">
  <g id="patch_1">
   <path d="M 0 397.558937 
L 1143.316875 397.558937 
L 1143.316875 0 
L 0 0 
z
" style="fill:none;"/>
  </g>
  <g id="axes_1">
   <g id="patch_2">
    <path d="M 45.716875 328.54175 
L 559.141875 328.54175 
L 559.141875 24.14175 
L 45.716875 24.14175 
z
" style="fill:#ffffff;"/>
   </g>
   <g id="patch_3">
    <path clip-path="url(#p2aface584a)" d="M 77.805937 399.431091 
L 109.895 399.431091 
L 109.895 165.476441 
L 77.805937 165.476441 
z
" style="fill:#ff0000;stroke:#000000;stroke-linejoin:miter;"/>
   </g>
   <g id="patch_4">
    <path clip-path="url(#p2aface584a)" d="M 109.895 399.431091 
L 141.984062 399.431091 
L 141.984062 326.154533 
L 109.895 326.154533 
z
" style="fill:#ffd700;stroke:#000000;stroke-linejoin:miter;"/>
   </g>
   <g id="patch_5">
    <path clip-path="url(#p2aface584a)" d="M 141.984062 399.431091 
L 174.073125 399.431091 
L 174.073125 221.655188 
L 141.984062 221.655188 
z
" style="fill:#32cd32;stroke:#000000;stroke-linejoin:miter;"/>
   </g>
   <g id="patch_6">
    <path clip-path="url(#p2aface584a)" d="M 174.073125 399.431091 
L 206.162188 399.431091 
L 206.162188 313.500976 
L 174.073125 313.500976 
z
" style="fill:#6495ed;stroke:#000000;stroke-linejoin:miter;"/>
   </g>
   <g id="patch_7">
    <path clip-path="url(#p2aface584a)" d="M 238.25125 399.431091 
L 270.340312 399.431091 
L 270.340312 29.834401 
L 238.25125 29.834401 
z
" style="fill:#ff0000;stroke:#000000;stroke-linejoin:miter;"/>
   </g>
   <g id="patch_8">
    <path clip-path="url(#p2aface584a)" d="M 270.340312 399.431091 
L 302.429375 399.431091 
L 302.429375 124.048601 
L 270.340312 124.048601 
z
" style="fill:#ffd700;stroke:#000000;stroke-linejoin:miter;"/>
   </g>
   <g id="patch_9">
    <path clip-path="url(#p2aface584a)" d="M 302.429375 399.431091 
L 334.518438 399.431091 
L 334.518438 46.666217 
L 302.429375 46.666217 
z
" style="fill:#32cd32;stroke:#000000;stroke-linejoin:miter;"/>
   </g>
   <g id="patch_10">
    <path clip-path="url(#p2aface584a)" d="M 334.518438 399.431091 
L 366.6075 399.431091 
L 366.6075 132.781002 
L 334.518438 132.781002 
z
" style="fill:#6495ed;stroke:#000000;stroke-linejoin:miter;"/>
   </g>
   <g id="patch_11">
    <path clip-path="url(#p2aface584a)" d="M 398.696562 399.431091 
L 430.785625 399.431091 
L 430.785625 129.522694 
L 398.696562 129.522694 
z
" style="fill:#ff0000;stroke:#000000;stroke-linejoin:miter;"/>
   </g>
   <g id="patch_12">
    <path clip-path="url(#p2aface584a)" d="M 430.785625 399.431091 
L 462.874687 399.431091 
L 462.874687 203.116827 
L 430.785625 203.116827 
z
" style="fill:#ffd700;stroke:#000000;stroke-linejoin:miter;"/>
   </g>
   <g id="patch_13">
    <path clip-path="url(#p2aface584a)" d="M 462.874687 399.431091 
L 494.96375 399.431091 
L 494.96375 138.390725 
L 462.874687 138.390725 
z
" style="fill:#32cd32;stroke:#000000;stroke-linejoin:miter;"/>
   </g>
   <g id="patch_14">
    <path clip-path="url(#p2aface584a)" d="M 494.96375 399.431091 
L 527.052812 399.431091 
L 527.052812 203.070953 
L 494.96375 203.070953 
z
" style="fill:#6495ed;stroke:#000000;stroke-linejoin:miter;"/>
   </g>
   <g id="matplotlib.axis_1">
    <g id="xtick_1">
     <g id="line2d_1">
      <defs>
       <path d="M 0 0 
L 0 3.5 
" id="mc431b19e30" style="stroke:#000000;stroke-width:0.8;"/>
      </defs>
      <g>
       <use style="stroke:#000000;stroke-width:0.8;" x="141.984062" xlink:href="#mc431b19e30" y="328.54175"/>
      </g>
     </g>
     <g id="text_1">
      <!-- Conv1 weights -->
      <g transform="translate(105.072344 343.140187)scale(0.1 -0.1)">
       <defs>
        <path d="M 64.40625 67.28125 
L 64.40625 56.890625 
Q 59.421875 61.53125 53.78125 63.8125 
Q 48.140625 66.109375 41.796875 66.109375 
Q 29.296875 66.109375 22.65625 58.46875 
Q 16.015625 50.828125 16.015625 36.375 
Q 16.015625 21.96875 22.65625 14.328125 
Q 29.296875 6.6875 41.796875 6.6875 
Q 48.140625 6.6875 53.78125 8.984375 
Q 59.421875 11.28125 64.40625 15.921875 
L 64.40625 5.609375 
Q 59.234375 2.09375 53.4375 0.328125 
Q 47.65625 -1.421875 41.21875 -1.421875 
Q 24.65625 -1.421875 15.125 8.703125 
Q 5.609375 18.84375 5.609375 36.375 
Q 5.609375 53.953125 15.125 64.078125 
Q 24.65625 74.21875 41.21875 74.21875 
Q 47.75 74.21875 53.53125 72.484375 
Q 59.328125 70.75 64.40625 67.28125 
z
" id="DejaVuSans-67"/>
        <path d="M 30.609375 48.390625 
Q 23.390625 48.390625 19.1875 42.75 
Q 14.984375 37.109375 14.984375 27.296875 
Q 14.984375 17.484375 19.15625 11.84375 
Q 23.34375 6.203125 30.609375 6.203125 
Q 37.796875 6.203125 41.984375 11.859375 
Q 46.1875 17.53125 46.1875 27.296875 
Q 46.1875 37.015625 41.984375 42.703125 
Q 37.796875 48.390625 30.609375 48.390625 
z
M 30.609375 56 
Q 42.328125 56 49.015625 48.375 
Q 55.71875 40.765625 55.71875 27.296875 
Q 55.71875 13.875 49.015625 6.21875 
Q 42.328125 -1.421875 30.609375 -1.421875 
Q 18.84375 -1.421875 12.171875 6.21875 
Q 5.515625 13.875 5.515625 27.296875 
Q 5.515625 40.765625 12.171875 48.375 
Q 18.84375 56 30.609375 56 
z
" id="DejaVuSans-111"/>
        <path d="M 54.890625 33.015625 
L 54.890625 0 
L 45.90625 0 
L 45.90625 32.71875 
Q 45.90625 40.484375 42.875 44.328125 
Q 39.84375 48.1875 33.796875 48.1875 
Q 26.515625 48.1875 22.3125 43.546875 
Q 18.109375 38.921875 18.109375 30.90625 
L 18.109375 0 
L 9.078125 0 
L 9.078125 54.6875 
L 18.109375 54.6875 
L 18.109375 46.1875 
Q 21.34375 51.125 25.703125 53.5625 
Q 30.078125 56 35.796875 56 
Q 45.21875 56 50.046875 50.171875 
Q 54.890625 44.34375 54.890625 33.015625 
z
" id="DejaVuSans-110"/>
        <path d="M 2.984375 54.6875 
L 12.5 54.6875 
L 29.59375 8.796875 
L 46.6875 54.6875 
L 56.203125 54.6875 
L 35.6875 0 
L 23.484375 0 
z
" id="DejaVuSans-118"/>
        <path d="M 12.40625 8.296875 
L 28.515625 8.296875 
L 28.515625 63.921875 
L 10.984375 60.40625 
L 10.984375 69.390625 
L 28.421875 72.90625 
L 38.28125 72.90625 
L 38.28125 8.296875 
L 54.390625 8.296875 
L 54.390625 0 
L 12.40625 0 
z
" id="DejaVuSans-49"/>
        <path id="DejaVuSans-32"/>
        <path d="M 4.203125 54.6875 
L 13.1875 54.6875 
L 24.421875 12.015625 
L 35.59375 54.6875 
L 46.1875 54.6875 
L 57.421875 12.015625 
L 68.609375 54.6875 
L 77.59375 54.6875 
L 63.28125 0 
L 52.6875 0 
L 40.921875 44.828125 
L 29.109375 0 
L 18.5 0 
z
" id="DejaVuSans-119"/>
        <path d="M 56.203125 29.59375 
L 56.203125 25.203125 
L 14.890625 25.203125 
Q 15.484375 15.921875 20.484375 11.0625 
Q 25.484375 6.203125 34.421875 6.203125 
Q 39.59375 6.203125 44.453125 7.46875 
Q 49.3125 8.734375 54.109375 11.28125 
L 54.109375 2.78125 
Q 49.265625 0.734375 44.1875 -0.34375 
Q 39.109375 -1.421875 33.890625 -1.421875 
Q 20.796875 -1.421875 13.15625 6.1875 
Q 5.515625 13.8125 5.515625 26.8125 
Q 5.515625 40.234375 12.765625 48.109375 
Q 20.015625 56 32.328125 56 
Q 43.359375 56 49.78125 48.890625 
Q 56.203125 41.796875 56.203125 29.59375 
z
M 47.21875 32.234375 
Q 47.125 39.59375 43.09375 43.984375 
Q 39.0625 48.390625 32.421875 48.390625 
Q 24.90625 48.390625 20.390625 44.140625 
Q 15.875 39.890625 15.1875 32.171875 
z
" id="DejaVuSans-101"/>
        <path d="M 9.421875 54.6875 
L 18.40625 54.6875 
L 18.40625 0 
L 9.421875 0 
z
M 9.421875 75.984375 
L 18.40625 75.984375 
L 18.40625 64.59375 
L 9.421875 64.59375 
z
" id="DejaVuSans-105"/>
        <path d="M 45.40625 27.984375 
Q 45.40625 37.75 41.375 43.109375 
Q 37.359375 48.484375 30.078125 48.484375 
Q 22.859375 48.484375 18.828125 43.109375 
Q 14.796875 37.75 14.796875 27.984375 
Q 14.796875 18.265625 18.828125 12.890625 
Q 22.859375 7.515625 30.078125 7.515625 
Q 37.359375 7.515625 41.375 12.890625 
Q 45.40625 18.265625 45.40625 27.984375 
z
M 54.390625 6.78125 
Q 54.390625 -7.171875 48.1875 -13.984375 
Q 42 -20.796875 29.203125 -20.796875 
Q 24.46875 -20.796875 20.265625 -20.09375 
Q 16.0625 -19.390625 12.109375 -17.921875 
L 12.109375 -9.1875 
Q 16.0625 -11.328125 19.921875 -12.34375 
Q 23.78125 -13.375 27.78125 -13.375 
Q 36.625 -13.375 41.015625 -8.765625 
Q 45.40625 -4.15625 45.40625 5.171875 
L 45.40625 9.625 
Q 42.625 4.78125 38.28125 2.390625 
Q 33.9375 0 27.875 0 
Q 17.828125 0 11.671875 7.65625 
Q 5.515625 15.328125 5.515625 27.984375 
Q 5.515625 40.671875 11.671875 48.328125 
Q 17.828125 56 27.875 56 
Q 33.9375 56 38.28125 53.609375 
Q 42.625 51.21875 45.40625 46.390625 
L 45.40625 54.6875 
L 54.390625 54.6875 
z
" id="DejaVuSans-103"/>
        <path d="M 54.890625 33.015625 
L 54.890625 0 
L 45.90625 0 
L 45.90625 32.71875 
Q 45.90625 40.484375 42.875 44.328125 
Q 39.84375 48.1875 33.796875 48.1875 
Q 26.515625 48.1875 22.3125 43.546875 
Q 18.109375 38.921875 18.109375 30.90625 
L 18.109375 0 
L 9.078125 0 
L 9.078125 75.984375 
L 18.109375 75.984375 
L 18.109375 46.1875 
Q 21.34375 51.125 25.703125 53.5625 
Q 30.078125 56 35.796875 56 
Q 45.21875 56 50.046875 50.171875 
Q 54.890625 44.34375 54.890625 33.015625 
z
" id="DejaVuSans-104"/>
        <path d="M 18.3125 70.21875 
L 18.3125 54.6875 
L 36.8125 54.6875 
L 36.8125 47.703125 
L 18.3125 47.703125 
L 18.3125 18.015625 
Q 18.3125 11.328125 20.140625 9.421875 
Q 21.96875 7.515625 27.59375 7.515625 
L 36.8125 7.515625 
L 36.8125 0 
L 27.59375 0 
Q 17.1875 0 13.234375 3.875 
Q 9.28125 7.765625 9.28125 18.015625 
L 9.28125 47.703125 
L 2.6875 47.703125 
L 2.6875 54.6875 
L 9.28125 54.6875 
L 9.28125 70.21875 
z
" id="DejaVuSans-116"/>
        <path d="M 44.28125 53.078125 
L 44.28125 44.578125 
Q 40.484375 46.53125 36.375 47.5 
Q 32.28125 48.484375 27.875 48.484375 
Q 21.1875 48.484375 17.84375 46.4375 
Q 14.5 44.390625 14.5 40.28125 
Q 14.5 37.15625 16.890625 35.375 
Q 19.28125 33.59375 26.515625 31.984375 
L 29.59375 31.296875 
Q 39.15625 29.25 43.1875 25.515625 
Q 47.21875 21.78125 47.21875 15.09375 
Q 47.21875 7.46875 41.1875 3.015625 
Q 35.15625 -1.421875 24.609375 -1.421875 
Q 20.21875 -1.421875 15.453125 -0.5625 
Q 10.6875 0.296875 5.421875 2 
L 5.421875 11.28125 
Q 10.40625 8.6875 15.234375 7.390625 
Q 20.0625 6.109375 24.8125 6.109375 
Q 31.15625 6.109375 34.5625 8.28125 
Q 37.984375 10.453125 37.984375 14.40625 
Q 37.984375 18.0625 35.515625 20.015625 
Q 33.0625 21.96875 24.703125 23.78125 
L 21.578125 24.515625 
Q 13.234375 26.265625 9.515625 29.90625 
Q 5.8125 33.546875 5.8125 39.890625 
Q 5.8125 47.609375 11.28125 51.796875 
Q 16.75 56 26.8125 56 
Q 31.78125 56 36.171875 55.265625 
Q 40.578125 54.546875 44.28125 53.078125 
z
" id="DejaVuSans-115"/>
       </defs>
       <use xlink:href="#DejaVuSans-67"/>
       <use x="69.824219" xlink:href="#DejaVuSans-111"/>
       <use x="131.005859" xlink:href="#DejaVuSans-110"/>
       <use x="194.384766" xlink:href="#DejaVuSans-118"/>
       <use x="253.564453" xlink:href="#DejaVuSans-49"/>
       <use x="317.1875" xlink:href="#DejaVuSans-32"/>
       <use x="348.974609" xlink:href="#DejaVuSans-119"/>
       <use x="430.761719" xlink:href="#DejaVuSans-101"/>
       <use x="492.285156" xlink:href="#DejaVuSans-105"/>
       <use x="520.068359" xlink:href="#DejaVuSans-103"/>
       <use x="583.544922" xlink:href="#DejaVuSans-104"/>
       <use x="646.923828" xlink:href="#DejaVuSans-116"/>
       <use x="686.132812" xlink:href="#DejaVuSans-115"/>
      </g>
     </g>
    </g>
    <g id="xtick_2">
     <g id="line2d_2">
      <g>
       <use style="stroke:#000000;stroke-width:0.8;" x="302.429375" xlink:href="#mc431b19e30" y="328.54175"/>
      </g>
     </g>
     <g id="text_2">
      <!-- Conv2 weights -->
      <g transform="translate(265.517656 343.140187)scale(0.1 -0.1)">
       <defs>
        <path d="M 19.1875 8.296875 
L 53.609375 8.296875 
L 53.609375 0 
L 7.328125 0 
L 7.328125 8.296875 
Q 12.9375 14.109375 22.625 23.890625 
Q 32.328125 33.6875 34.8125 36.53125 
Q 39.546875 41.84375 41.421875 45.53125 
Q 43.3125 49.21875 43.3125 52.78125 
Q 43.3125 58.59375 39.234375 62.25 
Q 35.15625 65.921875 28.609375 65.921875 
Q 23.96875 65.921875 18.8125 64.3125 
Q 13.671875 62.703125 7.8125 59.421875 
L 7.8125 69.390625 
Q 13.765625 71.78125 18.9375 73 
Q 24.125 74.21875 28.421875 74.21875 
Q 39.75 74.21875 46.484375 68.546875 
Q 53.21875 62.890625 53.21875 53.421875 
Q 53.21875 48.921875 51.53125 44.890625 
Q 49.859375 40.875 45.40625 35.40625 
Q 44.1875 33.984375 37.640625 27.21875 
Q 31.109375 20.453125 19.1875 8.296875 
z
" id="DejaVuSans-50"/>
       </defs>
       <use xlink:href="#DejaVuSans-67"/>
       <use x="69.824219" xlink:href="#DejaVuSans-111"/>
       <use x="131.005859" xlink:href="#DejaVuSans-110"/>
       <use x="194.384766" xlink:href="#DejaVuSans-118"/>
       <use x="253.564453" xlink:href="#DejaVuSans-50"/>
       <use x="317.1875" xlink:href="#DejaVuSans-32"/>
       <use x="348.974609" xlink:href="#DejaVuSans-119"/>
       <use x="430.761719" xlink:href="#DejaVuSans-101"/>
       <use x="492.285156" xlink:href="#DejaVuSans-105"/>
       <use x="520.068359" xlink:href="#DejaVuSans-103"/>
       <use x="583.544922" xlink:href="#DejaVuSans-104"/>
       <use x="646.923828" xlink:href="#DejaVuSans-116"/>
       <use x="686.132812" xlink:href="#DejaVuSans-115"/>
      </g>
     </g>
    </g>
    <g id="xtick_3">
     <g id="line2d_3">
      <g>
       <use style="stroke:#000000;stroke-width:0.8;" x="462.874687" xlink:href="#mc431b19e30" y="328.54175"/>
      </g>
     </g>
     <g id="text_3">
      <!-- Conv3 weights -->
      <g transform="translate(425.962969 343.140187)scale(0.1 -0.1)">
       <defs>
        <path d="M 40.578125 39.3125 
Q 47.65625 37.796875 51.625 33 
Q 55.609375 28.21875 55.609375 21.1875 
Q 55.609375 10.40625 48.1875 4.484375 
Q 40.765625 -1.421875 27.09375 -1.421875 
Q 22.515625 -1.421875 17.65625 -0.515625 
Q 12.796875 0.390625 7.625 2.203125 
L 7.625 11.71875 
Q 11.71875 9.328125 16.59375 8.109375 
Q 21.484375 6.890625 26.8125 6.890625 
Q 36.078125 6.890625 40.9375 10.546875 
Q 45.796875 14.203125 45.796875 21.1875 
Q 45.796875 27.640625 41.28125 31.265625 
Q 36.765625 34.90625 28.71875 34.90625 
L 20.21875 34.90625 
L 20.21875 43.015625 
L 29.109375 43.015625 
Q 36.375 43.015625 40.234375 45.921875 
Q 44.09375 48.828125 44.09375 54.296875 
Q 44.09375 59.90625 40.109375 62.90625 
Q 36.140625 65.921875 28.71875 65.921875 
Q 24.65625 65.921875 20.015625 65.03125 
Q 15.375 64.15625 9.8125 62.3125 
L 9.8125 71.09375 
Q 15.4375 72.65625 20.34375 73.4375 
Q 25.25 74.21875 29.59375 74.21875 
Q 40.828125 74.21875 47.359375 69.109375 
Q 53.90625 64.015625 53.90625 55.328125 
Q 53.90625 49.265625 50.4375 45.09375 
Q 46.96875 40.921875 40.578125 39.3125 
z
" id="DejaVuSans-51"/>
       </defs>
       <use xlink:href="#DejaVuSans-67"/>
       <use x="69.824219" xlink:href="#DejaVuSans-111"/>
       <use x="131.005859" xlink:href="#DejaVuSans-110"/>
       <use x="194.384766" xlink:href="#DejaVuSans-118"/>
       <use x="253.564453" xlink:href="#DejaVuSans-51"/>
       <use x="317.1875" xlink:href="#DejaVuSans-32"/>
       <use x="348.974609" xlink:href="#DejaVuSans-119"/>
       <use x="430.761719" xlink:href="#DejaVuSans-101"/>
       <use x="492.285156" xlink:href="#DejaVuSans-105"/>
       <use x="520.068359" xlink:href="#DejaVuSans-103"/>
       <use x="583.544922" xlink:href="#DejaVuSans-104"/>
       <use x="646.923828" xlink:href="#DejaVuSans-116"/>
       <use x="686.132812" xlink:href="#DejaVuSans-115"/>
      </g>
     </g>
    </g>
   </g>
   <g id="matplotlib.axis_2">
    <g id="ytick_1">
     <g id="line2d_4">
      <defs>
       <path d="M 0 0 
L -3.5 0 
" id="m176a7ffbb1" style="stroke:#000000;stroke-width:0.8;"/>
      </defs>
      <g>
       <use style="stroke:#000000;stroke-width:0.8;" x="45.716875" xlink:href="#m176a7ffbb1" y="303.942431"/>
      </g>
     </g>
     <g id="text_4">
      <!-- 0.2 -->
      <g transform="translate(22.81375 307.741649)scale(0.1 -0.1)">
       <defs>
        <path d="M 31.78125 66.40625 
Q 24.171875 66.40625 20.328125 58.90625 
Q 16.5 51.421875 16.5 36.375 
Q 16.5 21.390625 20.328125 13.890625 
Q 24.171875 6.390625 31.78125 6.390625 
Q 39.453125 6.390625 43.28125 13.890625 
Q 47.125 21.390625 47.125 36.375 
Q 47.125 51.421875 43.28125 58.90625 
Q 39.453125 66.40625 31.78125 66.40625 
z
M 31.78125 74.21875 
Q 44.046875 74.21875 50.515625 64.515625 
Q 56.984375 54.828125 56.984375 36.375 
Q 56.984375 17.96875 50.515625 8.265625 
Q 44.046875 -1.421875 31.78125 -1.421875 
Q 19.53125 -1.421875 13.0625 8.265625 
Q 6.59375 17.96875 6.59375 36.375 
Q 6.59375 54.828125 13.0625 64.515625 
Q 19.53125 74.21875 31.78125 74.21875 
z
" id="DejaVuSans-48"/>
        <path d="M 10.6875 12.40625 
L 21 12.40625 
L 21 0 
L 10.6875 0 
z
" id="DejaVuSans-46"/>
       </defs>
       <use xlink:href="#DejaVuSans-48"/>
       <use x="63.623047" xlink:href="#DejaVuSans-46"/>
       <use x="95.410156" xlink:href="#DejaVuSans-50"/>
      </g>
     </g>
    </g>
    <g id="ytick_2">
     <g id="line2d_5">
      <g>
       <use style="stroke:#000000;stroke-width:0.8;" x="45.716875" xlink:href="#m176a7ffbb1" y="256.1981"/>
      </g>
     </g>
     <g id="text_5">
      <!-- 0.3 -->
      <g transform="translate(22.81375 259.997319)scale(0.1 -0.1)">
       <use xlink:href="#DejaVuSans-48"/>
       <use x="63.623047" xlink:href="#DejaVuSans-46"/>
       <use x="95.410156" xlink:href="#DejaVuSans-51"/>
      </g>
     </g>
    </g>
    <g id="ytick_3">
     <g id="line2d_6">
      <g>
       <use style="stroke:#000000;stroke-width:0.8;" x="45.716875" xlink:href="#m176a7ffbb1" y="208.45377"/>
      </g>
     </g>
     <g id="text_6">
      <!-- 0.4 -->
      <g transform="translate(22.81375 212.252989)scale(0.1 -0.1)">
       <defs>
        <path d="M 37.796875 64.3125 
L 12.890625 25.390625 
L 37.796875 25.390625 
z
M 35.203125 72.90625 
L 47.609375 72.90625 
L 47.609375 25.390625 
L 58.015625 25.390625 
L 58.015625 17.1875 
L 47.609375 17.1875 
L 47.609375 0 
L 37.796875 0 
L 37.796875 17.1875 
L 4.890625 17.1875 
L 4.890625 26.703125 
z
" id="DejaVuSans-52"/>
       </defs>
       <use xlink:href="#DejaVuSans-48"/>
       <use x="63.623047" xlink:href="#DejaVuSans-46"/>
       <use x="95.410156" xlink:href="#DejaVuSans-52"/>
      </g>
     </g>
    </g>
    <g id="ytick_4">
     <g id="line2d_7">
      <g>
       <use style="stroke:#000000;stroke-width:0.8;" x="45.716875" xlink:href="#m176a7ffbb1" y="160.70944"/>
      </g>
     </g>
     <g id="text_7">
      <!-- 0.5 -->
      <g transform="translate(22.81375 164.508658)scale(0.1 -0.1)">
       <defs>
        <path d="M 10.796875 72.90625 
L 49.515625 72.90625 
L 49.515625 64.59375 
L 19.828125 64.59375 
L 19.828125 46.734375 
Q 21.96875 47.46875 24.109375 47.828125 
Q 26.265625 48.1875 28.421875 48.1875 
Q 40.625 48.1875 47.75 41.5 
Q 54.890625 34.8125 54.890625 23.390625 
Q 54.890625 11.625 47.5625 5.09375 
Q 40.234375 -1.421875 26.90625 -1.421875 
Q 22.3125 -1.421875 17.546875 -0.640625 
Q 12.796875 0.140625 7.71875 1.703125 
L 7.71875 11.625 
Q 12.109375 9.234375 16.796875 8.0625 
Q 21.484375 6.890625 26.703125 6.890625 
Q 35.15625 6.890625 40.078125 11.328125 
Q 45.015625 15.765625 45.015625 23.390625 
Q 45.015625 31 40.078125 35.4375 
Q 35.15625 39.890625 26.703125 39.890625 
Q 22.75 39.890625 18.8125 39.015625 
Q 14.890625 38.140625 10.796875 36.28125 
z
" id="DejaVuSans-53"/>
       </defs>
       <use xlink:href="#DejaVuSans-48"/>
       <use x="63.623047" xlink:href="#DejaVuSans-46"/>
       <use x="95.410156" xlink:href="#DejaVuSans-53"/>
      </g>
     </g>
    </g>
    <g id="ytick_5">
     <g id="line2d_8">
      <g>
       <use style="stroke:#000000;stroke-width:0.8;" x="45.716875" xlink:href="#m176a7ffbb1" y="112.965109"/>
      </g>
     </g>
     <g id="text_8">
      <!-- 0.6 -->
      <g transform="translate(22.81375 116.764328)scale(0.1 -0.1)">
       <defs>
        <path d="M 33.015625 40.375 
Q 26.375 40.375 22.484375 35.828125 
Q 18.609375 31.296875 18.609375 23.390625 
Q 18.609375 15.53125 22.484375 10.953125 
Q 26.375 6.390625 33.015625 6.390625 
Q 39.65625 6.390625 43.53125 10.953125 
Q 47.40625 15.53125 47.40625 23.390625 
Q 47.40625 31.296875 43.53125 35.828125 
Q 39.65625 40.375 33.015625 40.375 
z
M 52.59375 71.296875 
L 52.59375 62.3125 
Q 48.875 64.0625 45.09375 64.984375 
Q 41.3125 65.921875 37.59375 65.921875 
Q 27.828125 65.921875 22.671875 59.328125 
Q 17.53125 52.734375 16.796875 39.40625 
Q 19.671875 43.65625 24.015625 45.921875 
Q 28.375 48.1875 33.59375 48.1875 
Q 44.578125 48.1875 50.953125 41.515625 
Q 57.328125 34.859375 57.328125 23.390625 
Q 57.328125 12.15625 50.6875 5.359375 
Q 44.046875 -1.421875 33.015625 -1.421875 
Q 20.359375 -1.421875 13.671875 8.265625 
Q 6.984375 17.96875 6.984375 36.375 
Q 6.984375 53.65625 15.1875 63.9375 
Q 23.390625 74.21875 37.203125 74.21875 
Q 40.921875 74.21875 44.703125 73.484375 
Q 48.484375 72.75 52.59375 71.296875 
z
" id="DejaVuSans-54"/>
       </defs>
       <use xlink:href="#DejaVuSans-48"/>
       <use x="63.623047" xlink:href="#DejaVuSans-46"/>
       <use x="95.410156" xlink:href="#DejaVuSans-54"/>
      </g>
     </g>
    </g>
    <g id="ytick_6">
     <g id="line2d_9">
      <g>
       <use style="stroke:#000000;stroke-width:0.8;" x="45.716875" xlink:href="#m176a7ffbb1" y="65.220779"/>
      </g>
     </g>
     <g id="text_9">
      <!-- 0.7 -->
      <g transform="translate(22.81375 69.019998)scale(0.1 -0.1)">
       <defs>
        <path d="M 8.203125 72.90625 
L 55.078125 72.90625 
L 55.078125 68.703125 
L 28.609375 0 
L 18.3125 0 
L 43.21875 64.59375 
L 8.203125 64.59375 
z
" id="DejaVuSans-55"/>
       </defs>
       <use xlink:href="#DejaVuSans-48"/>
       <use x="63.623047" xlink:href="#DejaVuSans-46"/>
       <use x="95.410156" xlink:href="#DejaVuSans-55"/>
      </g>
     </g>
    </g>
    <g id="text_10">
     <!-- Feature Reuse -->
     <g transform="translate(16.318125 219.127375)rotate(-90)scale(0.12 -0.12)">
      <defs>
       <path d="M 9.8125 72.90625 
L 51.703125 72.90625 
L 51.703125 64.59375 
L 19.671875 64.59375 
L 19.671875 43.109375 
L 48.578125 43.109375 
L 48.578125 34.8125 
L 19.671875 34.8125 
L 19.671875 0 
L 9.8125 0 
z
" id="DejaVuSans-70"/>
       <path d="M 34.28125 27.484375 
Q 23.390625 27.484375 19.1875 25 
Q 14.984375 22.515625 14.984375 16.5 
Q 14.984375 11.71875 18.140625 8.90625 
Q 21.296875 6.109375 26.703125 6.109375 
Q 34.1875 6.109375 38.703125 11.40625 
Q 43.21875 16.703125 43.21875 25.484375 
L 43.21875 27.484375 
z
M 52.203125 31.203125 
L 52.203125 0 
L 43.21875 0 
L 43.21875 8.296875 
Q 40.140625 3.328125 35.546875 0.953125 
Q 30.953125 -1.421875 24.3125 -1.421875 
Q 15.921875 -1.421875 10.953125 3.296875 
Q 6 8.015625 6 15.921875 
Q 6 25.140625 12.171875 29.828125 
Q 18.359375 34.515625 30.609375 34.515625 
L 43.21875 34.515625 
L 43.21875 35.40625 
Q 43.21875 41.609375 39.140625 45 
Q 35.0625 48.390625 27.6875 48.390625 
Q 23 48.390625 18.546875 47.265625 
Q 14.109375 46.140625 10.015625 43.890625 
L 10.015625 52.203125 
Q 14.9375 54.109375 19.578125 55.046875 
Q 24.21875 56 28.609375 56 
Q 40.484375 56 46.34375 49.84375 
Q 52.203125 43.703125 52.203125 31.203125 
z
" id="DejaVuSans-97"/>
       <path d="M 8.5 21.578125 
L 8.5 54.6875 
L 17.484375 54.6875 
L 17.484375 21.921875 
Q 17.484375 14.15625 20.5 10.265625 
Q 23.53125 6.390625 29.59375 6.390625 
Q 36.859375 6.390625 41.078125 11.03125 
Q 45.3125 15.671875 45.3125 23.6875 
L 45.3125 54.6875 
L 54.296875 54.6875 
L 54.296875 0 
L 45.3125 0 
L 45.3125 8.40625 
Q 42.046875 3.421875 37.71875 1 
Q 33.40625 -1.421875 27.6875 -1.421875 
Q 18.265625 -1.421875 13.375 4.4375 
Q 8.5 10.296875 8.5 21.578125 
z
M 31.109375 56 
z
" id="DejaVuSans-117"/>
       <path d="M 41.109375 46.296875 
Q 39.59375 47.171875 37.8125 47.578125 
Q 36.03125 48 33.890625 48 
Q 26.265625 48 22.1875 43.046875 
Q 18.109375 38.09375 18.109375 28.8125 
L 18.109375 0 
L 9.078125 0 
L 9.078125 54.6875 
L 18.109375 54.6875 
L 18.109375 46.1875 
Q 20.953125 51.171875 25.484375 53.578125 
Q 30.03125 56 36.53125 56 
Q 37.453125 56 38.578125 55.875 
Q 39.703125 55.765625 41.0625 55.515625 
z
" id="DejaVuSans-114"/>
       <path d="M 44.390625 34.1875 
Q 47.5625 33.109375 50.5625 29.59375 
Q 53.5625 26.078125 56.59375 19.921875 
L 66.609375 0 
L 56 0 
L 46.6875 18.703125 
Q 43.0625 26.03125 39.671875 28.421875 
Q 36.28125 30.8125 30.421875 30.8125 
L 19.671875 30.8125 
L 19.671875 0 
L 9.8125 0 
L 9.8125 72.90625 
L 32.078125 72.90625 
Q 44.578125 72.90625 50.734375 67.671875 
Q 56.890625 62.453125 56.890625 51.90625 
Q 56.890625 45.015625 53.6875 40.46875 
Q 50.484375 35.9375 44.390625 34.1875 
z
M 19.671875 64.796875 
L 19.671875 38.921875 
L 32.078125 38.921875 
Q 39.203125 38.921875 42.84375 42.21875 
Q 46.484375 45.515625 46.484375 51.90625 
Q 46.484375 58.296875 42.84375 61.546875 
Q 39.203125 64.796875 32.078125 64.796875 
z
" id="DejaVuSans-82"/>
      </defs>
      <use xlink:href="#DejaVuSans-70"/>
      <use x="52.019531" xlink:href="#DejaVuSans-101"/>
      <use x="113.542969" xlink:href="#DejaVuSans-97"/>
      <use x="174.822266" xlink:href="#DejaVuSans-116"/>
      <use x="214.03125" xlink:href="#DejaVuSans-117"/>
      <use x="277.410156" xlink:href="#DejaVuSans-114"/>
      <use x="316.273438" xlink:href="#DejaVuSans-101"/>
      <use x="377.796875" xlink:href="#DejaVuSans-32"/>
      <use x="409.583984" xlink:href="#DejaVuSans-82"/>
      <use x="474.566406" xlink:href="#DejaVuSans-101"/>
      <use x="536.089844" xlink:href="#DejaVuSans-117"/>
      <use x="599.46875" xlink:href="#DejaVuSans-115"/>
      <use x="651.568359" xlink:href="#DejaVuSans-101"/>
     </g>
    </g>
   </g>
   <g id="LineCollection_1">
    <path clip-path="url(#p2aface584a)" d="M 93.850469 168.111283 
L 93.850469 162.841598 
" style="fill:none;stroke:#000000;stroke-width:1.5;"/>
   </g>
   <g id="LineCollection_2">
    <path clip-path="url(#p2aface584a)" d="M 125.939531 327.70402 
L 125.939531 324.605047 
" style="fill:none;stroke:#000000;stroke-width:1.5;"/>
   </g>
   <g id="LineCollection_3">
    <path clip-path="url(#p2aface584a)" d="M 158.028594 222.658742 
L 158.028594 220.651633 
" style="fill:none;stroke:#000000;stroke-width:1.5;"/>
   </g>
   <g id="LineCollection_4">
    <path clip-path="url(#p2aface584a)" d="M 190.117656 317.264102 
L 190.117656 309.73785 
" style="fill:none;stroke:#000000;stroke-width:1.5;"/>
   </g>
   <g id="LineCollection_5">
    <path clip-path="url(#p2aface584a)" d="M 254.295781 33.139834 
L 254.295781 26.528969 
" style="fill:none;stroke:#000000;stroke-width:1.5;"/>
   </g>
   <g id="LineCollection_6">
    <path clip-path="url(#p2aface584a)" d="M 286.384844 126.851276 
L 286.384844 121.245925 
" style="fill:none;stroke:#000000;stroke-width:1.5;"/>
   </g>
   <g id="LineCollection_7">
    <path clip-path="url(#p2aface584a)" d="M 318.473906 49.51661 
L 318.473906 43.815823 
" style="fill:none;stroke:#000000;stroke-width:1.5;"/>
   </g>
   <g id="LineCollection_8">
    <path clip-path="url(#p2aface584a)" d="M 350.562969 137.011651 
L 350.562969 128.550354 
" style="fill:none;stroke:#000000;stroke-width:1.5;"/>
   </g>
   <g id="LineCollection_9">
    <path clip-path="url(#p2aface584a)" d="M 414.741094 132.484679 
L 414.741094 126.560708 
" style="fill:none;stroke:#000000;stroke-width:1.5;"/>
   </g>
   <g id="LineCollection_10">
    <path clip-path="url(#p2aface584a)" d="M 446.830156 204.424223 
L 446.830156 201.809431 
" style="fill:none;stroke:#000000;stroke-width:1.5;"/>
   </g>
   <g id="LineCollection_11">
    <path clip-path="url(#p2aface584a)" d="M 478.919219 140.300474 
L 478.919219 136.480977 
" style="fill:none;stroke:#000000;stroke-width:1.5;"/>
   </g>
   <g id="LineCollection_12">
    <path clip-path="url(#p2aface584a)" d="M 511.008281 210.446903 
L 511.008281 195.695002 
" style="fill:none;stroke:#000000;stroke-width:1.5;"/>
   </g>
   <g id="line2d_10">
    <defs>
     <path d="M 10 0 
L -10 -0 
" id="m4ed8a5adf3" style="stroke:#000000;"/>
    </defs>
    <g clip-path="url(#p2aface584a)">
     <use style="stroke:#000000;" x="93.850469" xlink:href="#m4ed8a5adf3" y="168.111283"/>
    </g>
   </g>
   <g id="line2d_11">
    <g clip-path="url(#p2aface584a)">
     <use style="stroke:#000000;" x="93.850469" xlink:href="#m4ed8a5adf3" y="162.841598"/>
    </g>
   </g>
   <g id="line2d_12">
    <g clip-path="url(#p2aface584a)">
     <use style="stroke:#000000;" x="125.939531" xlink:href="#m4ed8a5adf3" y="327.70402"/>
    </g>
   </g>
   <g id="line2d_13">
    <g clip-path="url(#p2aface584a)">
     <use style="stroke:#000000;" x="125.939531" xlink:href="#m4ed8a5adf3" y="324.605047"/>
    </g>
   </g>
   <g id="line2d_14">
    <g clip-path="url(#p2aface584a)">
     <use style="stroke:#000000;" x="158.028594" xlink:href="#m4ed8a5adf3" y="222.658742"/>
    </g>
   </g>
   <g id="line2d_15">
    <g clip-path="url(#p2aface584a)">
     <use style="stroke:#000000;" x="158.028594" xlink:href="#m4ed8a5adf3" y="220.651633"/>
    </g>
   </g>
   <g id="line2d_16">
    <g clip-path="url(#p2aface584a)">
     <use style="stroke:#000000;" x="190.117656" xlink:href="#m4ed8a5adf3" y="317.264102"/>
    </g>
   </g>
   <g id="line2d_17">
    <g clip-path="url(#p2aface584a)">
     <use style="stroke:#000000;" x="190.117656" xlink:href="#m4ed8a5adf3" y="309.73785"/>
    </g>
   </g>
   <g id="line2d_18">
    <g clip-path="url(#p2aface584a)">
     <use style="stroke:#000000;" x="254.295781" xlink:href="#m4ed8a5adf3" y="33.139834"/>
    </g>
   </g>
   <g id="line2d_19">
    <g clip-path="url(#p2aface584a)">
     <use style="stroke:#000000;" x="254.295781" xlink:href="#m4ed8a5adf3" y="26.528969"/>
    </g>
   </g>
   <g id="line2d_20">
    <g clip-path="url(#p2aface584a)">
     <use style="stroke:#000000;" x="286.384844" xlink:href="#m4ed8a5adf3" y="126.851276"/>
    </g>
   </g>
   <g id="line2d_21">
    <g clip-path="url(#p2aface584a)">
     <use style="stroke:#000000;" x="286.384844" xlink:href="#m4ed8a5adf3" y="121.245925"/>
    </g>
   </g>
   <g id="line2d_22">
    <g clip-path="url(#p2aface584a)">
     <use style="stroke:#000000;" x="318.473906" xlink:href="#m4ed8a5adf3" y="49.51661"/>
    </g>
   </g>
   <g id="line2d_23">
    <g clip-path="url(#p2aface584a)">
     <use style="stroke:#000000;" x="318.473906" xlink:href="#m4ed8a5adf3" y="43.815823"/>
    </g>
   </g>
   <g id="line2d_24">
    <g clip-path="url(#p2aface584a)">
     <use style="stroke:#000000;" x="350.562969" xlink:href="#m4ed8a5adf3" y="137.011651"/>
    </g>
   </g>
   <g id="line2d_25">
    <g clip-path="url(#p2aface584a)">
     <use style="stroke:#000000;" x="350.562969" xlink:href="#m4ed8a5adf3" y="128.550354"/>
    </g>
   </g>
   <g id="line2d_26">
    <g clip-path="url(#p2aface584a)">
     <use style="stroke:#000000;" x="414.741094" xlink:href="#m4ed8a5adf3" y="132.484679"/>
    </g>
   </g>
   <g id="line2d_27">
    <g clip-path="url(#p2aface584a)">
     <use style="stroke:#000000;" x="414.741094" xlink:href="#m4ed8a5adf3" y="126.560708"/>
    </g>
   </g>
   <g id="line2d_28">
    <g clip-path="url(#p2aface584a)">
     <use style="stroke:#000000;" x="446.830156" xlink:href="#m4ed8a5adf3" y="204.424223"/>
    </g>
   </g>
   <g id="line2d_29">
    <g clip-path="url(#p2aface584a)">
     <use style="stroke:#000000;" x="446.830156" xlink:href="#m4ed8a5adf3" y="201.809431"/>
    </g>
   </g>
   <g id="line2d_30">
    <g clip-path="url(#p2aface584a)">
     <use style="stroke:#000000;" x="478.919219" xlink:href="#m4ed8a5adf3" y="140.300474"/>
    </g>
   </g>
   <g id="line2d_31">
    <g clip-path="url(#p2aface584a)">
     <use style="stroke:#000000;" x="478.919219" xlink:href="#m4ed8a5adf3" y="136.480977"/>
    </g>
   </g>
   <g id="line2d_32">
    <g clip-path="url(#p2aface584a)">
     <use style="stroke:#000000;" x="511.008281" xlink:href="#m4ed8a5adf3" y="210.446903"/>
    </g>
   </g>
   <g id="line2d_33">
    <g clip-path="url(#p2aface584a)">
     <use style="stroke:#000000;" x="511.008281" xlink:href="#m4ed8a5adf3" y="195.695002"/>
    </g>
   </g>
   <g id="patch_15">
    <path d="M 45.716875 328.54175 
L 45.716875 24.14175 
" style="fill:none;stroke:#000000;stroke-linecap:square;stroke-linejoin:miter;stroke-width:0.8;"/>
   </g>
   <g id="patch_16">
    <path d="M 559.141875 328.54175 
L 559.141875 24.14175 
" style="fill:none;stroke:#000000;stroke-linecap:square;stroke-linejoin:miter;stroke-width:0.8;"/>
   </g>
   <g id="patch_17">
    <path d="M 45.716875 328.54175 
L 559.141875 328.54175 
" style="fill:none;stroke:#000000;stroke-linecap:square;stroke-linejoin:miter;stroke-width:0.8;"/>
   </g>
   <g id="patch_18">
    <path d="M 45.716875 24.14175 
L 559.141875 24.14175 
" style="fill:none;stroke:#000000;stroke-linecap:square;stroke-linejoin:miter;stroke-width:0.8;"/>
   </g>
   <g id="text_11">
    <!-- Finetuned on ImageNet-1k -->
    <g transform="translate(206.784125 18.14175)scale(0.144 -0.144)">
     <defs>
      <path d="M 45.40625 46.390625 
L 45.40625 75.984375 
L 54.390625 75.984375 
L 54.390625 0 
L 45.40625 0 
L 45.40625 8.203125 
Q 42.578125 3.328125 38.25 0.953125 
Q 33.9375 -1.421875 27.875 -1.421875 
Q 17.96875 -1.421875 11.734375 6.484375 
Q 5.515625 14.40625 5.515625 27.296875 
Q 5.515625 40.1875 11.734375 48.09375 
Q 17.96875 56 27.875 56 
Q 33.9375 56 38.25 53.625 
Q 42.578125 51.265625 45.40625 46.390625 
z
M 14.796875 27.296875 
Q 14.796875 17.390625 18.875 11.75 
Q 22.953125 6.109375 30.078125 6.109375 
Q 37.203125 6.109375 41.296875 11.75 
Q 45.40625 17.390625 45.40625 27.296875 
Q 45.40625 37.203125 41.296875 42.84375 
Q 37.203125 48.484375 30.078125 48.484375 
Q 22.953125 48.484375 18.875 42.84375 
Q 14.796875 37.203125 14.796875 27.296875 
z
" id="DejaVuSans-100"/>
      <path d="M 9.8125 72.90625 
L 19.671875 72.90625 
L 19.671875 0 
L 9.8125 0 
z
" id="DejaVuSans-73"/>
      <path d="M 52 44.1875 
Q 55.375 50.25 60.0625 53.125 
Q 64.75 56 71.09375 56 
Q 79.640625 56 84.28125 50.015625 
Q 88.921875 44.046875 88.921875 33.015625 
L 88.921875 0 
L 79.890625 0 
L 79.890625 32.71875 
Q 79.890625 40.578125 77.09375 44.375 
Q 74.3125 48.1875 68.609375 48.1875 
Q 61.625 48.1875 57.5625 43.546875 
Q 53.515625 38.921875 53.515625 30.90625 
L 53.515625 0 
L 44.484375 0 
L 44.484375 32.71875 
Q 44.484375 40.625 41.703125 44.40625 
Q 38.921875 48.1875 33.109375 48.1875 
Q 26.21875 48.1875 22.15625 43.53125 
Q 18.109375 38.875 18.109375 30.90625 
L 18.109375 0 
L 9.078125 0 
L 9.078125 54.6875 
L 18.109375 54.6875 
L 18.109375 46.1875 
Q 21.1875 51.21875 25.484375 53.609375 
Q 29.78125 56 35.6875 56 
Q 41.65625 56 45.828125 52.96875 
Q 50 49.953125 52 44.1875 
z
" id="DejaVuSans-109"/>
      <path d="M 9.8125 72.90625 
L 23.09375 72.90625 
L 55.421875 11.921875 
L 55.421875 72.90625 
L 64.984375 72.90625 
L 64.984375 0 
L 51.703125 0 
L 19.390625 60.984375 
L 19.390625 0 
L 9.8125 0 
z
" id="DejaVuSans-78"/>
      <path d="M 4.890625 31.390625 
L 31.203125 31.390625 
L 31.203125 23.390625 
L 4.890625 23.390625 
z
" id="DejaVuSans-45"/>
      <path d="M 9.078125 75.984375 
L 18.109375 75.984375 
L 18.109375 31.109375 
L 44.921875 54.6875 
L 56.390625 54.6875 
L 27.390625 29.109375 
L 57.625 0 
L 45.90625 0 
L 18.109375 26.703125 
L 18.109375 0 
L 9.078125 0 
z
" id="DejaVuSans-107"/>
     </defs>
     <use xlink:href="#DejaVuSans-70"/>
     <use x="50.269531" xlink:href="#DejaVuSans-105"/>
     <use x="78.052734" xlink:href="#DejaVuSans-110"/>
     <use x="141.431641" xlink:href="#DejaVuSans-101"/>
     <use x="202.955078" xlink:href="#DejaVuSans-116"/>
     <use x="242.164062" xlink:href="#DejaVuSans-117"/>
     <use x="305.542969" xlink:href="#DejaVuSans-110"/>
     <use x="368.921875" xlink:href="#DejaVuSans-101"/>
     <use x="430.445312" xlink:href="#DejaVuSans-100"/>
     <use x="493.921875" xlink:href="#DejaVuSans-32"/>
     <use x="525.708984" xlink:href="#DejaVuSans-111"/>
     <use x="586.890625" xlink:href="#DejaVuSans-110"/>
     <use x="650.269531" xlink:href="#DejaVuSans-32"/>
     <use x="682.056641" xlink:href="#DejaVuSans-73"/>
     <use x="711.548828" xlink:href="#DejaVuSans-109"/>
     <use x="808.960938" xlink:href="#DejaVuSans-97"/>
     <use x="870.240234" xlink:href="#DejaVuSans-103"/>
     <use x="933.716797" xlink:href="#DejaVuSans-101"/>
     <use x="995.240234" xlink:href="#DejaVuSans-78"/>
     <use x="1070.044922" xlink:href="#DejaVuSans-101"/>
     <use x="1131.568359" xlink:href="#DejaVuSans-116"/>
     <use x="1170.777344" xlink:href="#DejaVuSans-45"/>
     <use x="1206.861328" xlink:href="#DejaVuSans-49"/>
     <use x="1270.484375" xlink:href="#DejaVuSans-107"/>
    </g>
   </g>
  </g>
  <g id="axes_2">
   <g id="patch_19">
    <path d="M 622.691875 328.54175 
L 1136.116875 328.54175 
L 1136.116875 24.14175 
L 622.691875 24.14175 
z
" style="fill:#ffffff;"/>
   </g>
   <g id="patch_20">
    <path clip-path="url(#p9187af823c)" d="M 654.780937 27154.720019 
L 686.87 27154.720019 
L 686.87 160.427517 
L 654.780937 160.427517 
z
" style="fill:#ff0000;stroke:#000000;stroke-linejoin:miter;"/>
   </g>
   <g id="patch_21">
    <path clip-path="url(#p9187af823c)" d="M 686.87 27154.720019 
L 718.959062 27154.720019 
L 718.959062 188.78958 
L 686.87 188.78958 
z
" style="fill:#ffd700;stroke:#000000;stroke-linejoin:miter;"/>
   </g>
   <g id="patch_22">
    <path clip-path="url(#p9187af823c)" d="M 718.959062 27154.720019 
L 751.048125 27154.720019 
L 751.048125 160.113706 
L 718.959062 160.113706 
z
" style="fill:#32cd32;stroke:#000000;stroke-linejoin:miter;"/>
   </g>
   <g id="patch_23">
    <path clip-path="url(#p9187af823c)" d="M 751.048125 27154.720019 
L 783.137187 27154.720019 
L 783.137187 170.165309 
L 751.048125 170.165309 
z
" style="fill:#6495ed;stroke:#000000;stroke-linejoin:miter;"/>
   </g>
   <g id="patch_24">
    <path clip-path="url(#p9187af823c)" d="M 815.22625 27154.720019 
L 847.315312 27154.720019 
L 847.315312 169.180425 
L 815.22625 169.180425 
z
" style="fill:#ff0000;stroke:#000000;stroke-linejoin:miter;"/>
   </g>
   <g id="patch_25">
    <path clip-path="url(#p9187af823c)" d="M 847.315312 27154.720019 
L 879.404375 27154.720019 
L 879.404375 162.435906 
L 847.315312 162.435906 
z
" style="fill:#ffd700;stroke:#000000;stroke-linejoin:miter;"/>
   </g>
   <g id="patch_26">
    <path clip-path="url(#p9187af823c)" d="M 879.404375 27154.720019 
L 911.493437 27154.720019 
L 911.493437 162.085082 
L 879.404375 162.085082 
z
" style="fill:#32cd32;stroke:#000000;stroke-linejoin:miter;"/>
   </g>
   <g id="patch_27">
    <path clip-path="url(#p9187af823c)" d="M 911.493437 27154.720019 
L 943.5825 27154.720019 
L 943.5825 166.251524 
L 911.493437 166.251524 
z
" style="fill:#6495ed;stroke:#000000;stroke-linejoin:miter;"/>
   </g>
   <g id="patch_28">
    <path clip-path="url(#p9187af823c)" d="M 975.671562 27154.720019 
L 1007.760625 27154.720019 
L 1007.760625 183.567446 
L 975.671562 183.567446 
z
" style="fill:#ff0000;stroke:#000000;stroke-linejoin:miter;"/>
   </g>
   <g id="patch_29">
    <path clip-path="url(#p9187af823c)" d="M 1007.760625 27154.720019 
L 1039.849687 27154.720019 
L 1039.849687 193.545022 
L 1007.760625 193.545022 
z
" style="fill:#ffd700;stroke:#000000;stroke-linejoin:miter;"/>
   </g>
   <g id="patch_30">
    <path clip-path="url(#p9187af823c)" d="M 1039.849687 27154.720019 
L 1071.93875 27154.720019 
L 1071.93875 182.951089 
L 1039.849687 182.951089 
z
" style="fill:#32cd32;stroke:#000000;stroke-linejoin:miter;"/>
   </g>
   <g id="patch_31">
    <path clip-path="url(#p9187af823c)" d="M 1071.93875 27154.720019 
L 1104.027812 27154.720019 
L 1104.027812 184.854875 
L 1071.93875 184.854875 
z
" style="fill:#6495ed;stroke:#000000;stroke-linejoin:miter;"/>
   </g>
   <g id="matplotlib.axis_3">
    <g id="xtick_4">
     <g id="line2d_34">
      <g>
       <use style="stroke:#000000;stroke-width:0.8;" x="718.959062" xlink:href="#mc431b19e30" y="328.54175"/>
      </g>
     </g>
     <g id="text_12">
      <!-- Conv1 weights -->
      <g transform="translate(682.047344 343.140187)scale(0.1 -0.1)">
       <use xlink:href="#DejaVuSans-67"/>
       <use x="69.824219" xlink:href="#DejaVuSans-111"/>
       <use x="131.005859" xlink:href="#DejaVuSans-110"/>
       <use x="194.384766" xlink:href="#DejaVuSans-118"/>
       <use x="253.564453" xlink:href="#DejaVuSans-49"/>
       <use x="317.1875" xlink:href="#DejaVuSans-32"/>
       <use x="348.974609" xlink:href="#DejaVuSans-119"/>
       <use x="430.761719" xlink:href="#DejaVuSans-101"/>
       <use x="492.285156" xlink:href="#DejaVuSans-105"/>
       <use x="520.068359" xlink:href="#DejaVuSans-103"/>
       <use x="583.544922" xlink:href="#DejaVuSans-104"/>
       <use x="646.923828" xlink:href="#DejaVuSans-116"/>
       <use x="686.132812" xlink:href="#DejaVuSans-115"/>
      </g>
     </g>
    </g>
    <g id="xtick_5">
     <g id="line2d_35">
      <g>
       <use style="stroke:#000000;stroke-width:0.8;" x="879.404375" xlink:href="#mc431b19e30" y="328.54175"/>
      </g>
     </g>
     <g id="text_13">
      <!-- Conv2 weights -->
      <g transform="translate(842.492656 343.140187)scale(0.1 -0.1)">
       <use xlink:href="#DejaVuSans-67"/>
       <use x="69.824219" xlink:href="#DejaVuSans-111"/>
       <use x="131.005859" xlink:href="#DejaVuSans-110"/>
       <use x="194.384766" xlink:href="#DejaVuSans-118"/>
       <use x="253.564453" xlink:href="#DejaVuSans-50"/>
       <use x="317.1875" xlink:href="#DejaVuSans-32"/>
       <use x="348.974609" xlink:href="#DejaVuSans-119"/>
       <use x="430.761719" xlink:href="#DejaVuSans-101"/>
       <use x="492.285156" xlink:href="#DejaVuSans-105"/>
       <use x="520.068359" xlink:href="#DejaVuSans-103"/>
       <use x="583.544922" xlink:href="#DejaVuSans-104"/>
       <use x="646.923828" xlink:href="#DejaVuSans-116"/>
       <use x="686.132812" xlink:href="#DejaVuSans-115"/>
      </g>
     </g>
    </g>
    <g id="xtick_6">
     <g id="line2d_36">
      <g>
       <use style="stroke:#000000;stroke-width:0.8;" x="1039.849687" xlink:href="#mc431b19e30" y="328.54175"/>
      </g>
     </g>
     <g id="text_14">
      <!-- Conv3 weights -->
      <g transform="translate(1002.937969 343.140187)scale(0.1 -0.1)">
       <use xlink:href="#DejaVuSans-67"/>
       <use x="69.824219" xlink:href="#DejaVuSans-111"/>
       <use x="131.005859" xlink:href="#DejaVuSans-110"/>
       <use x="194.384766" xlink:href="#DejaVuSans-118"/>
       <use x="253.564453" xlink:href="#DejaVuSans-51"/>
       <use x="317.1875" xlink:href="#DejaVuSans-32"/>
       <use x="348.974609" xlink:href="#DejaVuSans-119"/>
       <use x="430.761719" xlink:href="#DejaVuSans-101"/>
       <use x="492.285156" xlink:href="#DejaVuSans-105"/>
       <use x="520.068359" xlink:href="#DejaVuSans-103"/>
       <use x="583.544922" xlink:href="#DejaVuSans-104"/>
       <use x="646.923828" xlink:href="#DejaVuSans-116"/>
       <use x="686.132812" xlink:href="#DejaVuSans-115"/>
      </g>
     </g>
    </g>
   </g>
   <g id="matplotlib.axis_4">
    <g id="ytick_7">
     <g id="line2d_37">
      <g>
       <use style="stroke:#000000;stroke-width:0.8;" x="622.691875" xlink:href="#m176a7ffbb1" y="317.370431"/>
      </g>
     </g>
     <g id="text_15">
      <!-- 0.994 -->
      <g transform="translate(587.06375 321.16965)scale(0.1 -0.1)">
       <defs>
        <path d="M 10.984375 1.515625 
L 10.984375 10.5 
Q 14.703125 8.734375 18.5 7.8125 
Q 22.3125 6.890625 25.984375 6.890625 
Q 35.75 6.890625 40.890625 13.453125 
Q 46.046875 20.015625 46.78125 33.40625 
Q 43.953125 29.203125 39.59375 26.953125 
Q 35.25 24.703125 29.984375 24.703125 
Q 19.046875 24.703125 12.671875 31.3125 
Q 6.296875 37.9375 6.296875 49.421875 
Q 6.296875 60.640625 12.9375 67.421875 
Q 19.578125 74.21875 30.609375 74.21875 
Q 43.265625 74.21875 49.921875 64.515625 
Q 56.59375 54.828125 56.59375 36.375 
Q 56.59375 19.140625 48.40625 8.859375 
Q 40.234375 -1.421875 26.421875 -1.421875 
Q 22.703125 -1.421875 18.890625 -0.6875 
Q 15.09375 0.046875 10.984375 1.515625 
z
M 30.609375 32.421875 
Q 37.25 32.421875 41.125 36.953125 
Q 45.015625 41.5 45.015625 49.421875 
Q 45.015625 57.28125 41.125 61.84375 
Q 37.25 66.40625 30.609375 66.40625 
Q 23.96875 66.40625 20.09375 61.84375 
Q 16.21875 57.28125 16.21875 49.421875 
Q 16.21875 41.5 20.09375 36.953125 
Q 23.96875 32.421875 30.609375 32.421875 
z
" id="DejaVuSans-57"/>
       </defs>
       <use xlink:href="#DejaVuSans-48"/>
       <use x="63.623047" xlink:href="#DejaVuSans-46"/>
       <use x="95.410156" xlink:href="#DejaVuSans-57"/>
       <use x="159.033203" xlink:href="#DejaVuSans-57"/>
       <use x="222.65625" xlink:href="#DejaVuSans-52"/>
      </g>
     </g>
    </g>
    <g id="ytick_8">
     <g id="line2d_38">
      <g>
       <use style="stroke:#000000;stroke-width:0.8;" x="622.691875" xlink:href="#m176a7ffbb1" y="263.37174"/>
      </g>
     </g>
     <g id="text_16">
      <!-- 0.996 -->
      <g transform="translate(587.06375 267.170959)scale(0.1 -0.1)">
       <use xlink:href="#DejaVuSans-48"/>
       <use x="63.623047" xlink:href="#DejaVuSans-46"/>
       <use x="95.410156" xlink:href="#DejaVuSans-57"/>
       <use x="159.033203" xlink:href="#DejaVuSans-57"/>
       <use x="222.65625" xlink:href="#DejaVuSans-54"/>
      </g>
     </g>
    </g>
    <g id="ytick_9">
     <g id="line2d_39">
      <g>
       <use style="stroke:#000000;stroke-width:0.8;" x="622.691875" xlink:href="#m176a7ffbb1" y="209.373049"/>
      </g>
     </g>
     <g id="text_17">
      <!-- 0.998 -->
      <g transform="translate(587.06375 213.172267)scale(0.1 -0.1)">
       <defs>
        <path d="M 31.78125 34.625 
Q 24.75 34.625 20.71875 30.859375 
Q 16.703125 27.09375 16.703125 20.515625 
Q 16.703125 13.921875 20.71875 10.15625 
Q 24.75 6.390625 31.78125 6.390625 
Q 38.8125 6.390625 42.859375 10.171875 
Q 46.921875 13.96875 46.921875 20.515625 
Q 46.921875 27.09375 42.890625 30.859375 
Q 38.875 34.625 31.78125 34.625 
z
M 21.921875 38.8125 
Q 15.578125 40.375 12.03125 44.71875 
Q 8.5 49.078125 8.5 55.328125 
Q 8.5 64.0625 14.71875 69.140625 
Q 20.953125 74.21875 31.78125 74.21875 
Q 42.671875 74.21875 48.875 69.140625 
Q 55.078125 64.0625 55.078125 55.328125 
Q 55.078125 49.078125 51.53125 44.71875 
Q 48 40.375 41.703125 38.8125 
Q 48.828125 37.15625 52.796875 32.3125 
Q 56.78125 27.484375 56.78125 20.515625 
Q 56.78125 9.90625 50.3125 4.234375 
Q 43.84375 -1.421875 31.78125 -1.421875 
Q 19.734375 -1.421875 13.25 4.234375 
Q 6.78125 9.90625 6.78125 20.515625 
Q 6.78125 27.484375 10.78125 32.3125 
Q 14.796875 37.15625 21.921875 38.8125 
z
M 18.3125 54.390625 
Q 18.3125 48.734375 21.84375 45.5625 
Q 25.390625 42.390625 31.78125 42.390625 
Q 38.140625 42.390625 41.71875 45.5625 
Q 45.3125 48.734375 45.3125 54.390625 
Q 45.3125 60.0625 41.71875 63.234375 
Q 38.140625 66.40625 31.78125 66.40625 
Q 25.390625 66.40625 21.84375 63.234375 
Q 18.3125 60.0625 18.3125 54.390625 
z
" id="DejaVuSans-56"/>
       </defs>
       <use xlink:href="#DejaVuSans-48"/>
       <use x="63.623047" xlink:href="#DejaVuSans-46"/>
       <use x="95.410156" xlink:href="#DejaVuSans-57"/>
       <use x="159.033203" xlink:href="#DejaVuSans-57"/>
       <use x="222.65625" xlink:href="#DejaVuSans-56"/>
      </g>
     </g>
    </g>
    <g id="ytick_10">
     <g id="line2d_40">
      <g>
       <use style="stroke:#000000;stroke-width:0.8;" x="622.691875" xlink:href="#m176a7ffbb1" y="155.374357"/>
      </g>
     </g>
     <g id="text_18">
      <!-- 1.000 -->
      <g transform="translate(587.06375 159.173576)scale(0.1 -0.1)">
       <use xlink:href="#DejaVuSans-49"/>
       <use x="63.623047" xlink:href="#DejaVuSans-46"/>
       <use x="95.410156" xlink:href="#DejaVuSans-48"/>
       <use x="159.033203" xlink:href="#DejaVuSans-48"/>
       <use x="222.65625" xlink:href="#DejaVuSans-48"/>
      </g>
     </g>
    </g>
    <g id="ytick_11">
     <g id="line2d_41">
      <g>
       <use style="stroke:#000000;stroke-width:0.8;" x="622.691875" xlink:href="#m176a7ffbb1" y="101.375666"/>
      </g>
     </g>
     <g id="text_19">
      <!-- 1.002 -->
      <g transform="translate(587.06375 105.174885)scale(0.1 -0.1)">
       <use xlink:href="#DejaVuSans-49"/>
       <use x="63.623047" xlink:href="#DejaVuSans-46"/>
       <use x="95.410156" xlink:href="#DejaVuSans-48"/>
       <use x="159.033203" xlink:href="#DejaVuSans-48"/>
       <use x="222.65625" xlink:href="#DejaVuSans-50"/>
      </g>
     </g>
    </g>
    <g id="ytick_12">
     <g id="line2d_42">
      <g>
       <use style="stroke:#000000;stroke-width:0.8;" x="622.691875" xlink:href="#m176a7ffbb1" y="47.376975"/>
      </g>
     </g>
     <g id="text_20">
      <!-- 1.004 -->
      <g transform="translate(587.06375 51.176194)scale(0.1 -0.1)">
       <use xlink:href="#DejaVuSans-49"/>
       <use x="63.623047" xlink:href="#DejaVuSans-46"/>
       <use x="95.410156" xlink:href="#DejaVuSans-48"/>
       <use x="159.033203" xlink:href="#DejaVuSans-48"/>
       <use x="222.65625" xlink:href="#DejaVuSans-52"/>
      </g>
     </g>
    </g>
    <g id="text_21">
     <!-- Feature Reuse -->
     <g transform="translate(580.568125 219.127375)rotate(-90)scale(0.12 -0.12)">
      <use xlink:href="#DejaVuSans-70"/>
      <use x="52.019531" xlink:href="#DejaVuSans-101"/>
      <use x="113.542969" xlink:href="#DejaVuSans-97"/>
      <use x="174.822266" xlink:href="#DejaVuSans-116"/>
      <use x="214.03125" xlink:href="#DejaVuSans-117"/>
      <use x="277.410156" xlink:href="#DejaVuSans-114"/>
      <use x="316.273438" xlink:href="#DejaVuSans-101"/>
      <use x="377.796875" xlink:href="#DejaVuSans-32"/>
      <use x="409.583984" xlink:href="#DejaVuSans-82"/>
      <use x="474.566406" xlink:href="#DejaVuSans-101"/>
      <use x="536.089844" xlink:href="#DejaVuSans-117"/>
      <use x="599.46875" xlink:href="#DejaVuSans-115"/>
      <use x="651.568359" xlink:href="#DejaVuSans-101"/>
     </g>
    </g>
   </g>
   <g id="LineCollection_13">
    <path clip-path="url(#p9187af823c)" d="M 670.825469 161.352286 
L 670.825469 159.502747 
" style="fill:none;stroke:#000000;stroke-width:1.5;"/>
   </g>
   <g id="LineCollection_14">
    <path clip-path="url(#p9187af823c)" d="M 702.914531 191.253021 
L 702.914531 186.326139 
" style="fill:none;stroke:#000000;stroke-width:1.5;"/>
   </g>
   <g id="LineCollection_15">
    <path clip-path="url(#p9187af823c)" d="M 735.003594 161.089054 
L 735.003594 159.138358 
" style="fill:none;stroke:#000000;stroke-width:1.5;"/>
   </g>
   <g id="LineCollection_16">
    <path clip-path="url(#p9187af823c)" d="M 767.092656 173.302837 
L 767.092656 167.027781 
" style="fill:none;stroke:#000000;stroke-width:1.5;"/>
   </g>
   <g id="LineCollection_17">
    <path clip-path="url(#p9187af823c)" d="M 831.270781 171.006239 
L 831.270781 167.354612 
" style="fill:none;stroke:#000000;stroke-width:1.5;"/>
   </g>
   <g id="LineCollection_18">
    <path clip-path="url(#p9187af823c)" d="M 863.359844 163.067429 
L 863.359844 161.804383 
" style="fill:none;stroke:#000000;stroke-width:1.5;"/>
   </g>
   <g id="LineCollection_19">
    <path clip-path="url(#p9187af823c)" d="M 895.448906 162.581648 
L 895.448906 161.588515 
" style="fill:none;stroke:#000000;stroke-width:1.5;"/>
   </g>
   <g id="LineCollection_20">
    <path clip-path="url(#p9187af823c)" d="M 927.537969 168.082489 
L 927.537969 164.420559 
" style="fill:none;stroke:#000000;stroke-width:1.5;"/>
   </g>
   <g id="LineCollection_21">
    <path clip-path="url(#p9187af823c)" d="M 991.716094 184.606539 
L 991.716094 182.528353 
" style="fill:none;stroke:#000000;stroke-width:1.5;"/>
   </g>
   <g id="LineCollection_22">
    <path clip-path="url(#p9187af823c)" d="M 1023.805156 200.068232 
L 1023.805156 187.021812 
" style="fill:none;stroke:#000000;stroke-width:1.5;"/>
   </g>
   <g id="LineCollection_23">
    <path clip-path="url(#p9187af823c)" d="M 1055.894219 183.497645 
L 1055.894219 182.404533 
" style="fill:none;stroke:#000000;stroke-width:1.5;"/>
   </g>
   <g id="LineCollection_24">
    <path clip-path="url(#p9187af823c)" d="M 1087.983281 187.214111 
L 1087.983281 182.495639 
" style="fill:none;stroke:#000000;stroke-width:1.5;"/>
   </g>
   <g id="line2d_43">
    <g clip-path="url(#p9187af823c)">
     <use style="stroke:#000000;" x="670.825469" xlink:href="#m4ed8a5adf3" y="161.352286"/>
    </g>
   </g>
   <g id="line2d_44">
    <g clip-path="url(#p9187af823c)">
     <use style="stroke:#000000;" x="670.825469" xlink:href="#m4ed8a5adf3" y="159.502747"/>
    </g>
   </g>
   <g id="line2d_45">
    <g clip-path="url(#p9187af823c)">
     <use style="stroke:#000000;" x="702.914531" xlink:href="#m4ed8a5adf3" y="191.253021"/>
    </g>
   </g>
   <g id="line2d_46">
    <g clip-path="url(#p9187af823c)">
     <use style="stroke:#000000;" x="702.914531" xlink:href="#m4ed8a5adf3" y="186.326139"/>
    </g>
   </g>
   <g id="line2d_47">
    <g clip-path="url(#p9187af823c)">
     <use style="stroke:#000000;" x="735.003594" xlink:href="#m4ed8a5adf3" y="161.089054"/>
    </g>
   </g>
   <g id="line2d_48">
    <g clip-path="url(#p9187af823c)">
     <use style="stroke:#000000;" x="735.003594" xlink:href="#m4ed8a5adf3" y="159.138358"/>
    </g>
   </g>
   <g id="line2d_49">
    <g clip-path="url(#p9187af823c)">
     <use style="stroke:#000000;" x="767.092656" xlink:href="#m4ed8a5adf3" y="173.302837"/>
    </g>
   </g>
   <g id="line2d_50">
    <g clip-path="url(#p9187af823c)">
     <use style="stroke:#000000;" x="767.092656" xlink:href="#m4ed8a5adf3" y="167.027781"/>
    </g>
   </g>
   <g id="line2d_51">
    <g clip-path="url(#p9187af823c)">
     <use style="stroke:#000000;" x="831.270781" xlink:href="#m4ed8a5adf3" y="171.006239"/>
    </g>
   </g>
   <g id="line2d_52">
    <g clip-path="url(#p9187af823c)">
     <use style="stroke:#000000;" x="831.270781" xlink:href="#m4ed8a5adf3" y="167.354612"/>
    </g>
   </g>
   <g id="line2d_53">
    <g clip-path="url(#p9187af823c)">
     <use style="stroke:#000000;" x="863.359844" xlink:href="#m4ed8a5adf3" y="163.067429"/>
    </g>
   </g>
   <g id="line2d_54">
    <g clip-path="url(#p9187af823c)">
     <use style="stroke:#000000;" x="863.359844" xlink:href="#m4ed8a5adf3" y="161.804383"/>
    </g>
   </g>
   <g id="line2d_55">
    <g clip-path="url(#p9187af823c)">
     <use style="stroke:#000000;" x="895.448906" xlink:href="#m4ed8a5adf3" y="162.581648"/>
    </g>
   </g>
   <g id="line2d_56">
    <g clip-path="url(#p9187af823c)">
     <use style="stroke:#000000;" x="895.448906" xlink:href="#m4ed8a5adf3" y="161.588515"/>
    </g>
   </g>
   <g id="line2d_57">
    <g clip-path="url(#p9187af823c)">
     <use style="stroke:#000000;" x="927.537969" xlink:href="#m4ed8a5adf3" y="168.082489"/>
    </g>
   </g>
   <g id="line2d_58">
    <g clip-path="url(#p9187af823c)">
     <use style="stroke:#000000;" x="927.537969" xlink:href="#m4ed8a5adf3" y="164.420559"/>
    </g>
   </g>
   <g id="line2d_59">
    <g clip-path="url(#p9187af823c)">
     <use style="stroke:#000000;" x="991.716094" xlink:href="#m4ed8a5adf3" y="184.606539"/>
    </g>
   </g>
   <g id="line2d_60">
    <g clip-path="url(#p9187af823c)">
     <use style="stroke:#000000;" x="991.716094" xlink:href="#m4ed8a5adf3" y="182.528353"/>
    </g>
   </g>
   <g id="line2d_61">
    <g clip-path="url(#p9187af823c)">
     <use style="stroke:#000000;" x="1023.805156" xlink:href="#m4ed8a5adf3" y="200.068232"/>
    </g>
   </g>
   <g id="line2d_62">
    <g clip-path="url(#p9187af823c)">
     <use style="stroke:#000000;" x="1023.805156" xlink:href="#m4ed8a5adf3" y="187.021812"/>
    </g>
   </g>
   <g id="line2d_63">
    <g clip-path="url(#p9187af823c)">
     <use style="stroke:#000000;" x="1055.894219" xlink:href="#m4ed8a5adf3" y="183.497645"/>
    </g>
   </g>
   <g id="line2d_64">
    <g clip-path="url(#p9187af823c)">
     <use style="stroke:#000000;" x="1055.894219" xlink:href="#m4ed8a5adf3" y="182.404533"/>
    </g>
   </g>
   <g id="line2d_65">
    <g clip-path="url(#p9187af823c)">
     <use style="stroke:#000000;" x="1087.983281" xlink:href="#m4ed8a5adf3" y="187.214111"/>
    </g>
   </g>
   <g id="line2d_66">
    <g clip-path="url(#p9187af823c)">
     <use style="stroke:#000000;" x="1087.983281" xlink:href="#m4ed8a5adf3" y="182.495639"/>
    </g>
   </g>
   <g id="patch_32">
    <path d="M 622.691875 328.54175 
L 622.691875 24.14175 
" style="fill:none;stroke:#000000;stroke-linecap:square;stroke-linejoin:miter;stroke-width:0.8;"/>
   </g>
   <g id="patch_33">
    <path d="M 1136.116875 328.54175 
L 1136.116875 24.14175 
" style="fill:none;stroke:#000000;stroke-linecap:square;stroke-linejoin:miter;stroke-width:0.8;"/>
   </g>
   <g id="patch_34">
    <path d="M 622.691875 328.54175 
L 1136.116875 328.54175 
" style="fill:none;stroke:#000000;stroke-linecap:square;stroke-linejoin:miter;stroke-width:0.8;"/>
   </g>
   <g id="patch_35">
    <path d="M 622.691875 24.14175 
L 1136.116875 24.14175 
" style="fill:none;stroke:#000000;stroke-linecap:square;stroke-linejoin:miter;stroke-width:0.8;"/>
   </g>
   <g id="text_22">
    <!-- Finetuned on RadNet-1.28M -->
    <g transform="translate(778.9925 18.14175)scale(0.144 -0.144)">
     <defs>
      <path d="M 9.8125 72.90625 
L 24.515625 72.90625 
L 43.109375 23.296875 
L 61.8125 72.90625 
L 76.515625 72.90625 
L 76.515625 0 
L 66.890625 0 
L 66.890625 64.015625 
L 48.09375 14.015625 
L 38.1875 14.015625 
L 19.390625 64.015625 
L 19.390625 0 
L 9.8125 0 
z
" id="DejaVuSans-77"/>
     </defs>
     <use xlink:href="#DejaVuSans-70"/>
     <use x="50.269531" xlink:href="#DejaVuSans-105"/>
     <use x="78.052734" xlink:href="#DejaVuSans-110"/>
     <use x="141.431641" xlink:href="#DejaVuSans-101"/>
     <use x="202.955078" xlink:href="#DejaVuSans-116"/>
     <use x="242.164062" xlink:href="#DejaVuSans-117"/>
     <use x="305.542969" xlink:href="#DejaVuSans-110"/>
     <use x="368.921875" xlink:href="#DejaVuSans-101"/>
     <use x="430.445312" xlink:href="#DejaVuSans-100"/>
     <use x="493.921875" xlink:href="#DejaVuSans-32"/>
     <use x="525.708984" xlink:href="#DejaVuSans-111"/>
     <use x="586.890625" xlink:href="#DejaVuSans-110"/>
     <use x="650.269531" xlink:href="#DejaVuSans-32"/>
     <use x="682.056641" xlink:href="#DejaVuSans-82"/>
     <use x="749.289062" xlink:href="#DejaVuSans-97"/>
     <use x="810.568359" xlink:href="#DejaVuSans-100"/>
     <use x="874.044922" xlink:href="#DejaVuSans-78"/>
     <use x="948.849609" xlink:href="#DejaVuSans-101"/>
     <use x="1010.373047" xlink:href="#DejaVuSans-116"/>
     <use x="1049.582031" xlink:href="#DejaVuSans-45"/>
     <use x="1085.666016" xlink:href="#DejaVuSans-49"/>
     <use x="1149.289062" xlink:href="#DejaVuSans-46"/>
     <use x="1181.076172" xlink:href="#DejaVuSans-50"/>
     <use x="1244.699219" xlink:href="#DejaVuSans-56"/>
     <use x="1308.322266" xlink:href="#DejaVuSans-77"/>
    </g>
   </g>
  </g>
  <g id="legend_1">
   <g id="patch_36">
    <path d="M 56.377969 390.358937 
L 1101.856875 390.358937 
Q 1104.856875 390.358937 1104.856875 387.358937 
L 1104.856875 366.84175 
Q 1104.856875 363.84175 1101.856875 363.84175 
L 56.377969 363.84175 
Q 53.377969 363.84175 53.377969 366.84175 
L 53.377969 387.358937 
Q 53.377969 390.358937 56.377969 390.358937 
z
" style="fill:#ffffff;opacity:0.8;stroke:#cccccc;stroke-linejoin:miter;"/>
   </g>
   <g id="patch_37">
    <path d="M 59.377969 381.239406 
L 89.377969 381.239406 
L 89.377969 370.739406 
L 59.377969 370.739406 
z
" style="fill:#ff0000;stroke:#000000;stroke-linejoin:miter;"/>
   </g>
   <g id="text_23">
    <!-- Pretrained on ImageNet-1k -->
    <g transform="translate(101.377969 381.239406)scale(0.15 -0.15)">
     <defs>
      <path d="M 19.671875 64.796875 
L 19.671875 37.40625 
L 32.078125 37.40625 
Q 38.96875 37.40625 42.71875 40.96875 
Q 46.484375 44.53125 46.484375 51.125 
Q 46.484375 57.671875 42.71875 61.234375 
Q 38.96875 64.796875 32.078125 64.796875 
z
M 9.8125 72.90625 
L 32.078125 72.90625 
Q 44.34375 72.90625 50.609375 67.359375 
Q 56.890625 61.8125 56.890625 51.125 
Q 56.890625 40.328125 50.609375 34.8125 
Q 44.34375 29.296875 32.078125 29.296875 
L 19.671875 29.296875 
L 19.671875 0 
L 9.8125 0 
z
" id="DejaVuSans-80"/>
     </defs>
     <use xlink:href="#DejaVuSans-80"/>
     <use x="58.552734" xlink:href="#DejaVuSans-114"/>
     <use x="97.416016" xlink:href="#DejaVuSans-101"/>
     <use x="158.939453" xlink:href="#DejaVuSans-116"/>
     <use x="198.148438" xlink:href="#DejaVuSans-114"/>
     <use x="239.261719" xlink:href="#DejaVuSans-97"/>
     <use x="300.541016" xlink:href="#DejaVuSans-105"/>
     <use x="328.324219" xlink:href="#DejaVuSans-110"/>
     <use x="391.703125" xlink:href="#DejaVuSans-101"/>
     <use x="453.226562" xlink:href="#DejaVuSans-100"/>
     <use x="516.703125" xlink:href="#DejaVuSans-32"/>
     <use x="548.490234" xlink:href="#DejaVuSans-111"/>
     <use x="609.671875" xlink:href="#DejaVuSans-110"/>
     <use x="673.050781" xlink:href="#DejaVuSans-32"/>
     <use x="704.837891" xlink:href="#DejaVuSans-73"/>
     <use x="734.330078" xlink:href="#DejaVuSans-109"/>
     <use x="831.742188" xlink:href="#DejaVuSans-97"/>
     <use x="893.021484" xlink:href="#DejaVuSans-103"/>
     <use x="956.498047" xlink:href="#DejaVuSans-101"/>
     <use x="1018.021484" xlink:href="#DejaVuSans-78"/>
     <use x="1092.826172" xlink:href="#DejaVuSans-101"/>
     <use x="1154.349609" xlink:href="#DejaVuSans-116"/>
     <use x="1193.558594" xlink:href="#DejaVuSans-45"/>
     <use x="1229.642578" xlink:href="#DejaVuSans-49"/>
     <use x="1293.265625" xlink:href="#DejaVuSans-107"/>
    </g>
   </g>
   <g id="patch_38">
    <path d="M 334.056094 381.239406 
L 364.056094 381.239406 
L 364.056094 370.739406 
L 334.056094 370.739406 
z
" style="fill:#ffd700;stroke:#000000;stroke-linejoin:miter;"/>
   </g>
   <g id="text_24">
    <!-- P.o. I-1k + R-1.28M, Seq. -->
    <g transform="translate(376.056094 381.239406)scale(0.15 -0.15)">
     <defs>
      <path d="M 46 62.703125 
L 46 35.5 
L 73.1875 35.5 
L 73.1875 27.203125 
L 46 27.203125 
L 46 0 
L 37.796875 0 
L 37.796875 27.203125 
L 10.59375 27.203125 
L 10.59375 35.5 
L 37.796875 35.5 
L 37.796875 62.703125 
z
" id="DejaVuSans-43"/>
      <path d="M 11.71875 12.40625 
L 22.015625 12.40625 
L 22.015625 4 
L 14.015625 -11.625 
L 7.71875 -11.625 
L 11.71875 4 
z
" id="DejaVuSans-44"/>
      <path d="M 53.515625 70.515625 
L 53.515625 60.890625 
Q 47.90625 63.578125 42.921875 64.890625 
Q 37.9375 66.21875 33.296875 66.21875 
Q 25.25 66.21875 20.875 63.09375 
Q 16.5 59.96875 16.5 54.203125 
Q 16.5 49.359375 19.40625 46.890625 
Q 22.3125 44.4375 30.421875 42.921875 
L 36.375 41.703125 
Q 47.40625 39.59375 52.65625 34.296875 
Q 57.90625 29 57.90625 20.125 
Q 57.90625 9.515625 50.796875 4.046875 
Q 43.703125 -1.421875 29.984375 -1.421875 
Q 24.8125 -1.421875 18.96875 -0.25 
Q 13.140625 0.921875 6.890625 3.21875 
L 6.890625 13.375 
Q 12.890625 10.015625 18.65625 8.296875 
Q 24.421875 6.59375 29.984375 6.59375 
Q 38.421875 6.59375 43.015625 9.90625 
Q 47.609375 13.234375 47.609375 19.390625 
Q 47.609375 24.75 44.3125 27.78125 
Q 41.015625 30.8125 33.5 32.328125 
L 27.484375 33.5 
Q 16.453125 35.6875 11.515625 40.375 
Q 6.59375 45.0625 6.59375 53.421875 
Q 6.59375 63.09375 13.40625 68.65625 
Q 20.21875 74.21875 32.171875 74.21875 
Q 37.3125 74.21875 42.625 73.28125 
Q 47.953125 72.359375 53.515625 70.515625 
z
" id="DejaVuSans-83"/>
      <path d="M 14.796875 27.296875 
Q 14.796875 17.390625 18.875 11.75 
Q 22.953125 6.109375 30.078125 6.109375 
Q 37.203125 6.109375 41.296875 11.75 
Q 45.40625 17.390625 45.40625 27.296875 
Q 45.40625 37.203125 41.296875 42.84375 
Q 37.203125 48.484375 30.078125 48.484375 
Q 22.953125 48.484375 18.875 42.84375 
Q 14.796875 37.203125 14.796875 27.296875 
z
M 45.40625 8.203125 
Q 42.578125 3.328125 38.25 0.953125 
Q 33.9375 -1.421875 27.875 -1.421875 
Q 17.96875 -1.421875 11.734375 6.484375 
Q 5.515625 14.40625 5.515625 27.296875 
Q 5.515625 40.1875 11.734375 48.09375 
Q 17.96875 56 27.875 56 
Q 33.9375 56 38.25 53.625 
Q 42.578125 51.265625 45.40625 46.390625 
L 45.40625 54.6875 
L 54.390625 54.6875 
L 54.390625 -20.796875 
L 45.40625 -20.796875 
z
" id="DejaVuSans-113"/>
     </defs>
     <use xlink:href="#DejaVuSans-80"/>
     <use x="44.677734" xlink:href="#DejaVuSans-46"/>
     <use x="76.464844" xlink:href="#DejaVuSans-111"/>
     <use x="135.896484" xlink:href="#DejaVuSans-46"/>
     <use x="167.683594" xlink:href="#DejaVuSans-32"/>
     <use x="199.470703" xlink:href="#DejaVuSans-73"/>
     <use x="228.962891" xlink:href="#DejaVuSans-45"/>
     <use x="265.046875" xlink:href="#DejaVuSans-49"/>
     <use x="328.669922" xlink:href="#DejaVuSans-107"/>
     <use x="386.580078" xlink:href="#DejaVuSans-32"/>
     <use x="418.367188" xlink:href="#DejaVuSans-43"/>
     <use x="502.15625" xlink:href="#DejaVuSans-32"/>
     <use x="533.943359" xlink:href="#DejaVuSans-82"/>
     <use x="599.425781" xlink:href="#DejaVuSans-45"/>
     <use x="635.509766" xlink:href="#DejaVuSans-49"/>
     <use x="699.132812" xlink:href="#DejaVuSans-46"/>
     <use x="730.919922" xlink:href="#DejaVuSans-50"/>
     <use x="794.542969" xlink:href="#DejaVuSans-56"/>
     <use x="858.166016" xlink:href="#DejaVuSans-77"/>
     <use x="944.445312" xlink:href="#DejaVuSans-44"/>
     <use x="976.232422" xlink:href="#DejaVuSans-32"/>
     <use x="1008.019531" xlink:href="#DejaVuSans-83"/>
     <use x="1071.496094" xlink:href="#DejaVuSans-101"/>
     <use x="1133.019531" xlink:href="#DejaVuSans-113"/>
     <use x="1196.496094" xlink:href="#DejaVuSans-46"/>
    </g>
   </g>
   <g id="patch_39">
    <path d="M 590.295938 381.239406 
L 620.295938 381.239406 
L 620.295938 370.739406 
L 590.295938 370.739406 
z
" style="fill:#32cd32;stroke:#000000;stroke-linejoin:miter;"/>
   </g>
   <g id="text_25">
    <!-- P.o. I-1k + R-1.28M, Mix. -->
    <g transform="translate(632.295938 381.239406)scale(0.15 -0.15)">
     <defs>
      <path d="M 54.890625 54.6875 
L 35.109375 28.078125 
L 55.90625 0 
L 45.3125 0 
L 29.390625 21.484375 
L 13.484375 0 
L 2.875 0 
L 24.125 28.609375 
L 4.6875 54.6875 
L 15.28125 54.6875 
L 29.78125 35.203125 
L 44.28125 54.6875 
z
" id="DejaVuSans-120"/>
     </defs>
     <use xlink:href="#DejaVuSans-80"/>
     <use x="44.677734" xlink:href="#DejaVuSans-46"/>
     <use x="76.464844" xlink:href="#DejaVuSans-111"/>
     <use x="135.896484" xlink:href="#DejaVuSans-46"/>
     <use x="167.683594" xlink:href="#DejaVuSans-32"/>
     <use x="199.470703" xlink:href="#DejaVuSans-73"/>
     <use x="228.962891" xlink:href="#DejaVuSans-45"/>
     <use x="265.046875" xlink:href="#DejaVuSans-49"/>
     <use x="328.669922" xlink:href="#DejaVuSans-107"/>
     <use x="386.580078" xlink:href="#DejaVuSans-32"/>
     <use x="418.367188" xlink:href="#DejaVuSans-43"/>
     <use x="502.15625" xlink:href="#DejaVuSans-32"/>
     <use x="533.943359" xlink:href="#DejaVuSans-82"/>
     <use x="599.425781" xlink:href="#DejaVuSans-45"/>
     <use x="635.509766" xlink:href="#DejaVuSans-49"/>
     <use x="699.132812" xlink:href="#DejaVuSans-46"/>
     <use x="730.919922" xlink:href="#DejaVuSans-50"/>
     <use x="794.542969" xlink:href="#DejaVuSans-56"/>
     <use x="858.166016" xlink:href="#DejaVuSans-77"/>
     <use x="944.445312" xlink:href="#DejaVuSans-44"/>
     <use x="976.232422" xlink:href="#DejaVuSans-32"/>
     <use x="1008.019531" xlink:href="#DejaVuSans-77"/>
     <use x="1094.298828" xlink:href="#DejaVuSans-105"/>
     <use x="1122.082031" xlink:href="#DejaVuSans-120"/>
     <use x="1181.261719" xlink:href="#DejaVuSans-46"/>
    </g>
   </g>
   <g id="patch_40">
    <path d="M 844.248281 381.239406 
L 874.248281 381.239406 
L 874.248281 370.739406 
L 844.248281 370.739406 
z
" style="fill:#6495ed;stroke:#000000;stroke-linejoin:miter;"/>
   </g>
   <g id="text_26">
    <!-- Pretrained on RadNet-1.28M -->
    <g transform="translate(886.248281 381.239406)scale(0.15 -0.15)">
     <use xlink:href="#DejaVuSans-80"/>
     <use x="58.552734" xlink:href="#DejaVuSans-114"/>
     <use x="97.416016" xlink:href="#DejaVuSans-101"/>
     <use x="158.939453" xlink:href="#DejaVuSans-116"/>
     <use x="198.148438" xlink:href="#DejaVuSans-114"/>
     <use x="239.261719" xlink:href="#DejaVuSans-97"/>
     <use x="300.541016" xlink:href="#DejaVuSans-105"/>
     <use x="328.324219" xlink:href="#DejaVuSans-110"/>
     <use x="391.703125" xlink:href="#DejaVuSans-101"/>
     <use x="453.226562" xlink:href="#DejaVuSans-100"/>
     <use x="516.703125" xlink:href="#DejaVuSans-32"/>
     <use x="548.490234" xlink:href="#DejaVuSans-111"/>
     <use x="609.671875" xlink:href="#DejaVuSans-110"/>
     <use x="673.050781" xlink:href="#DejaVuSans-32"/>
     <use x="704.837891" xlink:href="#DejaVuSans-82"/>
     <use x="772.070312" xlink:href="#DejaVuSans-97"/>
     <use x="833.349609" xlink:href="#DejaVuSans-100"/>
     <use x="896.826172" xlink:href="#DejaVuSans-78"/>
     <use x="971.630859" xlink:href="#DejaVuSans-101"/>
     <use x="1033.154297" xlink:href="#DejaVuSans-116"/>
     <use x="1072.363281" xlink:href="#DejaVuSans-45"/>
     <use x="1108.447266" xlink:href="#DejaVuSans-49"/>
     <use x="1172.070312" xlink:href="#DejaVuSans-46"/>
     <use x="1203.857422" xlink:href="#DejaVuSans-50"/>
     <use x="1267.480469" xlink:href="#DejaVuSans-56"/>
     <use x="1331.103516" xlink:href="#DejaVuSans-77"/>
    </g>
   </g>
  </g>
 </g>
 <defs>
  <clipPath id="p2aface584a">
   <rect height="304.4" width="513.425" x="45.716875" y="24.14175"/>
  </clipPath>
  <clipPath id="p9187af823c">
   <rect height="304.4" width="513.425" x="622.691875" y="24.14175"/>
  </clipPath>
 </defs>
</svg>
