<?xml version="1.0" encoding="utf-8" standalone="no"?>
<!DOCTYPE svg PUBLIC "-//W3C//DTD SVG 1.1//EN"
  "http://www.w3.org/Graphics/SVG/1.1/DTD/svg11.dtd">
<!-- Created with matplotlib (https://matplotlib.org/) -->
<svg height="361.401898pt" version="1.1" viewBox="0 0 512.041875 361.401898" width="512.041875pt" xmlns="http://www.w3.org/2000/svg" xmlns:xlink="http://www.w3.org/1999/xlink">
 <metadata>
  <rdf:RDF xmlns:cc="http://creativecommons.org/ns#" xmlns:dc="http://purl.org/dc/elements/1.1/" xmlns:rdf="http://www.w3.org/1999/02/22-rdf-syntax-ns#">
   <cc:Work>
    <dc:type rdf:resource="http://purl.org/dc/dcmitype/StillImage"/>
    <dc:date>2023-06-28T19:30:37.620356</dc:date>
    <dc:format>image/svg+xml</dc:format>
    <dc:creator>
     <cc:Agent>
      <dc:title>Matplotlib v3.3.3, https://matplotlib.org/</dc:title>
     </cc:Agent>
    </dc:creator>
   </cc:Work>
  </rdf:RDF>
 </metadata>
 <defs>
  <style type="text/css">*{stroke-linecap:butt;stroke-linejoin:round;}</style>
 </defs>
 <g id="figure_1">
  <g id="patch_1">
   <path d="M 0 361.401898 
L 512.041875 361.401898 
L 512.041875 0 
L 0 0 
z
" style="fill:none;"/>
  </g>
  <g id="axes_1">
   <g id="patch_2">
    <path d="M 58.441875 268.94175 
L 504.841875 268.94175 
L 504.841875 24.14175 
L 58.441875 24.14175 
z
" style="fill:#ffffff;"/>
   </g>
   <g id="patch_3">
    <path clip-path="url(#p25f288ba70)" d="M 78.732784 61224.14175 
L 86.318171 61224.14175 
L 86.318171 122.315707 
L 78.732784 122.315707 
z
" style="fill:#1f77b4;stroke:#000000;stroke-linejoin:miter;"/>
   </g>
   <g id="patch_4">
    <path clip-path="url(#p25f288ba70)" d="M 97.696251 61224.14175 
L 105.281637 61224.14175 
L 105.281637 61224.14175 
L 97.696251 61224.14175 
z
" style="fill:#aec7e8;stroke:#000000;stroke-linejoin:miter;"/>
   </g>
   <g id="patch_5">
    <path clip-path="url(#p25f288ba70)" d="M 116.659717 61224.14175 
L 124.245104 61224.14175 
L 124.245104 148.990066 
L 116.659717 148.990066 
z
" style="fill:#ff7f0e;stroke:#000000;stroke-linejoin:miter;"/>
   </g>
   <g id="patch_6">
    <path clip-path="url(#p25f288ba70)" d="M 135.623183 61224.14175 
L 143.20857 61224.14175 
L 143.20857 61224.14175 
L 135.623183 61224.14175 
z
" style="fill:#ffbb78;stroke:#000000;stroke-linejoin:miter;"/>
   </g>
   <g id="patch_7">
    <path clip-path="url(#p25f288ba70)" d="M 154.58665 61224.14175 
L 162.172036 61224.14175 
L 162.172036 167.647278 
L 154.58665 167.647278 
z
" style="fill:#2ca02c;stroke:#000000;stroke-linejoin:miter;"/>
   </g>
   <g id="patch_8">
    <path clip-path="url(#p25f288ba70)" d="M 173.550116 61224.14175 
L 181.135503 61224.14175 
L 181.135503 61224.14175 
L 173.550116 61224.14175 
z
" style="fill:#98df8a;stroke:#000000;stroke-linejoin:miter;"/>
   </g>
   <g id="patch_9">
    <path clip-path="url(#p25f288ba70)" d="M 192.513583 61224.14175 
L 200.098969 61224.14175 
L 200.098969 143.152596 
L 192.513583 143.152596 
z
" style="fill:#d62728;stroke:#000000;stroke-linejoin:miter;"/>
   </g>
   <g id="patch_10">
    <path clip-path="url(#p25f288ba70)" d="M 211.477049 61224.14175 
L 219.062436 61224.14175 
L 219.062436 61224.14175 
L 211.477049 61224.14175 
z
" style="fill:#ff9896;stroke:#000000;stroke-linejoin:miter;"/>
   </g>
   <g id="patch_11">
    <path clip-path="url(#p25f288ba70)" d="M 230.440516 61224.14175 
L 238.025902 61224.14175 
L 238.025902 162.52838 
L 230.440516 162.52838 
z
" style="fill:#9467bd;stroke:#000000;stroke-linejoin:miter;"/>
   </g>
   <g id="patch_12">
    <path clip-path="url(#p25f288ba70)" d="M 249.403982 61224.14175 
L 256.989369 61224.14175 
L 256.989369 61224.14175 
L 249.403982 61224.14175 
z
" style="fill:#c5b0d5;stroke:#000000;stroke-linejoin:miter;"/>
   </g>
   <g id="patch_13">
    <path clip-path="url(#p25f288ba70)" d="M 268.367448 61224.14175 
L 275.952835 61224.14175 
L 275.952835 147.187421 
L 268.367448 147.187421 
z
" style="fill:#8c564b;stroke:#000000;stroke-linejoin:miter;"/>
   </g>
   <g id="patch_14">
    <path clip-path="url(#p25f288ba70)" d="M 287.330915 61224.14175 
L 294.916302 61224.14175 
L 294.916302 61224.14175 
L 287.330915 61224.14175 
z
" style="fill:#c49c94;stroke:#000000;stroke-linejoin:miter;"/>
   </g>
   <g id="patch_15">
    <path clip-path="url(#p25f288ba70)" d="M 306.294381 61224.14175 
L 313.879768 61224.14175 
L 313.879768 109.722271 
L 306.294381 109.722271 
z
" style="fill:#e377c2;stroke:#000000;stroke-linejoin:miter;"/>
   </g>
   <g id="patch_16">
    <path clip-path="url(#p25f288ba70)" d="M 325.257848 61224.14175 
L 332.843234 61224.14175 
L 332.843234 61224.14175 
L 325.257848 61224.14175 
z
" style="fill:#f7b6d2;stroke:#000000;stroke-linejoin:miter;"/>
   </g>
   <g id="patch_17">
    <path clip-path="url(#p25f288ba70)" d="M 344.221314 61224.14175 
L 351.806701 61224.14175 
L 351.806701 27.092556 
L 344.221314 27.092556 
z
" style="fill:#7f7f7f;stroke:#000000;stroke-linejoin:miter;"/>
   </g>
   <g id="patch_18">
    <path clip-path="url(#p25f288ba70)" d="M 363.184781 61224.14175 
L 370.770167 61224.14175 
L 370.770167 61224.14175 
L 363.184781 61224.14175 
z
" style="fill:#c7c7c7;stroke:#000000;stroke-linejoin:miter;"/>
   </g>
   <g id="patch_19">
    <path clip-path="url(#p25f288ba70)" d="M 86.318171 61224.14175 
L 93.903557 61224.14175 
L 93.903557 252.769198 
L 86.318171 252.769198 
z
" style="fill:url(#h87c04821b1);stroke:#000000;stroke-linejoin:miter;"/>
   </g>
   <g id="patch_20">
    <path clip-path="url(#p25f288ba70)" d="M 105.281637 61224.14175 
L 112.867024 61224.14175 
L 112.867024 61224.14175 
L 105.281637 61224.14175 
z
" style="fill:url(#hd098a071f6);stroke:#000000;stroke-linejoin:miter;"/>
   </g>
   <g id="patch_21">
    <path clip-path="url(#p25f288ba70)" d="M 124.245104 61224.14175 
L 131.83049 61224.14175 
L 131.83049 185.949065 
L 124.245104 185.949065 
z
" style="fill:url(#hec6a499634);stroke:#000000;stroke-linejoin:miter;"/>
   </g>
   <g id="patch_22">
    <path clip-path="url(#p25f288ba70)" d="M 143.20857 61224.14175 
L 150.793957 61224.14175 
L 150.793957 61224.14175 
L 143.20857 61224.14175 
z
" style="fill:url(#h24c1ae5225);stroke:#000000;stroke-linejoin:miter;"/>
   </g>
   <g id="patch_23">
    <path clip-path="url(#p25f288ba70)" d="M 162.172036 61224.14175 
L 169.757423 61224.14175 
L 169.757423 174.058405 
L 162.172036 174.058405 
z
" style="fill:url(#h547d889f94);stroke:#000000;stroke-linejoin:miter;"/>
   </g>
   <g id="patch_24">
    <path clip-path="url(#p25f288ba70)" d="M 181.135503 61224.14175 
L 188.720889 61224.14175 
L 188.720889 61224.14175 
L 181.135503 61224.14175 
z
" style="fill:url(#h172d03213d);stroke:#000000;stroke-linejoin:miter;"/>
   </g>
   <g id="patch_25">
    <path clip-path="url(#p25f288ba70)" d="M 200.098969 61224.14175 
L 207.684356 61224.14175 
L 207.684356 107.238272 
L 200.098969 107.238272 
z
" style="fill:url(#hd7e879b909);stroke:#000000;stroke-linejoin:miter;"/>
   </g>
   <g id="patch_26">
    <path clip-path="url(#p25f288ba70)" d="M 219.062436 61224.14175 
L 226.647822 61224.14175 
L 226.647822 61224.14175 
L 219.062436 61224.14175 
z
" style="fill:url(#hcb4a348dd8);stroke:#000000;stroke-linejoin:miter;"/>
   </g>
   <g id="patch_27">
    <path clip-path="url(#p25f288ba70)" d="M 238.025902 61224.14175 
L 245.611289 61224.14175 
L 245.611289 174.442255 
L 238.025902 174.442255 
z
" style="fill:url(#hb3e5ba9b40);stroke:#000000;stroke-linejoin:miter;"/>
   </g>
   <g id="patch_28">
    <path clip-path="url(#p25f288ba70)" d="M 256.989369 61224.14175 
L 264.574755 61224.14175 
L 264.574755 61224.14175 
L 256.989369 61224.14175 
z
" style="fill:url(#h63fd29f70f);stroke:#000000;stroke-linejoin:miter;"/>
   </g>
   <g id="patch_29">
    <path clip-path="url(#p25f288ba70)" d="M 275.952835 61224.14175 
L 283.538222 61224.14175 
L 283.538222 107.622122 
L 275.952835 107.622122 
z
" style="fill:url(#h215cf1aba6);stroke:#000000;stroke-linejoin:miter;"/>
   </g>
   <g id="patch_30">
    <path clip-path="url(#p25f288ba70)" d="M 294.916302 61224.14175 
L 302.501688 61224.14175 
L 302.501688 61224.14175 
L 294.916302 61224.14175 
z
" style="fill:url(#h35328d97d8);stroke:#000000;stroke-linejoin:miter;"/>
   </g>
   <g id="patch_31">
    <path clip-path="url(#p25f288ba70)" d="M 313.879768 61224.14175 
L 321.465155 61224.14175 
L 321.465155 95.731462 
L 313.879768 95.731462 
z
" style="fill:url(#ha397c9f542);stroke:#000000;stroke-linejoin:miter;"/>
   </g>
   <g id="patch_32">
    <path clip-path="url(#p25f288ba70)" d="M 332.843234 61224.14175 
L 340.428621 61224.14175 
L 340.428621 61224.14175 
L 332.843234 61224.14175 
z
" style="fill:url(#h821e49887e);stroke:#000000;stroke-linejoin:miter;"/>
   </g>
   <g id="patch_33">
    <path clip-path="url(#p25f288ba70)" d="M 351.806701 61224.14175 
L 359.392087 61224.14175 
L 359.392087 28.911329 
L 351.806701 28.911329 
z
" style="fill:url(#h616f20edbe);stroke:#000000;stroke-linejoin:miter;"/>
   </g>
   <g id="patch_34">
    <path clip-path="url(#p25f288ba70)" d="M 370.770167 61224.14175 
L 378.355554 61224.14175 
L 378.355554 61224.14175 
L 370.770167 61224.14175 
z
" style="fill:url(#h74998158d8);stroke:#000000;stroke-linejoin:miter;"/>
   </g>
   <g id="patch_35">
    <path clip-path="url(#p25f288ba70)" d="M 412.489793 61224.14175 
L 420.07518 61224.14175 
L 420.07518 129.650428 
L 412.489793 129.650428 
z
" style="fill:#f08080;stroke:#000000;stroke-linejoin:miter;"/>
   </g>
   <g id="patch_36">
    <path clip-path="url(#p25f288ba70)" d="M 431.45326 61224.14175 
L 439.038646 61224.14175 
L 439.038646 106.874066 
L 431.45326 106.874066 
z
" style="fill:#6495ed;stroke:#000000;stroke-linejoin:miter;"/>
   </g>
   <g id="patch_37">
    <path clip-path="url(#p25f288ba70)" d="M 450.416726 61224.14175 
L 458.002113 61224.14175 
L 458.002113 127.488357 
L 450.416726 127.488357 
z
" style="fill:#ff0000;stroke:#000000;stroke-linejoin:miter;"/>
   </g>
   <g id="patch_38">
    <path clip-path="url(#p25f288ba70)" d="M 469.380193 61224.14175 
L 476.965579 61224.14175 
L 476.965579 106.306525 
L 469.380193 106.306525 
z
" style="fill:#0000ff;stroke:#000000;stroke-linejoin:miter;"/>
   </g>
   <g id="patch_39">
    <path clip-path="url(#p25f288ba70)" d="M 420.07518 61224.14175 
L 427.660567 61224.14175 
L 427.660567 106.262164 
L 420.07518 106.262164 
z
" style="fill:url(#h056bc23478);stroke:#000000;stroke-linejoin:miter;"/>
   </g>
   <g id="patch_40">
    <path clip-path="url(#p25f288ba70)" d="M 439.038646 61224.14175 
L 446.624033 61224.14175 
L 446.624033 94.371503 
L 439.038646 94.371503 
z
" style="fill:url(#h06f053c394);stroke:#000000;stroke-linejoin:miter;"/>
   </g>
   <g id="patch_41">
    <path clip-path="url(#p25f288ba70)" d="M 458.002113 61224.14175 
L 465.587499 61224.14175 
L 465.587499 105.89733 
L 458.002113 105.89733 
z
" style="fill:url(#hd0d8c9ecf2);stroke:#000000;stroke-linejoin:miter;"/>
   </g>
   <g id="patch_42">
    <path clip-path="url(#p25f288ba70)" d="M 476.965579 61224.14175 
L 484.550966 61224.14175 
L 484.550966 94.390519 
L 476.965579 94.390519 
z
" style="fill:url(#h4a2bbca911);stroke:#000000;stroke-linejoin:miter;"/>
   </g>
   <g id="matplotlib.axis_1">
    <g id="xtick_1">
     <g id="line2d_1">
      <defs>
       <path d="M 0 0 
L 0 3.5 
" id="m5e18616fac" style="stroke:#000000;stroke-width:0.8;"/>
      </defs>
      <g>
       <use style="stroke:#000000;stroke-width:0.8;" x="82.525477" xlink:href="#m5e18616fac" y="268.94175"/>
      </g>
     </g>
     <g id="text_1">
      <!-- No predictors -->
      <g transform="translate(33.572696 328.796877)rotate(-45)scale(0.1 -0.1)">
       <defs>
        <path d="M 9.8125 72.90625 
L 23.09375 72.90625 
L 55.421875 11.921875 
L 55.421875 72.90625 
L 64.984375 72.90625 
L 64.984375 0 
L 51.703125 0 
L 19.390625 60.984375 
L 19.390625 0 
L 9.8125 0 
z
" id="DejaVuSans-78"/>
        <path d="M 30.609375 48.390625 
Q 23.390625 48.390625 19.1875 42.75 
Q 14.984375 37.109375 14.984375 27.296875 
Q 14.984375 17.484375 19.15625 11.84375 
Q 23.34375 6.203125 30.609375 6.203125 
Q 37.796875 6.203125 41.984375 11.859375 
Q 46.1875 17.53125 46.1875 27.296875 
Q 46.1875 37.015625 41.984375 42.703125 
Q 37.796875 48.390625 30.609375 48.390625 
z
M 30.609375 56 
Q 42.328125 56 49.015625 48.375 
Q 55.71875 40.765625 55.71875 27.296875 
Q 55.71875 13.875 49.015625 6.21875 
Q 42.328125 -1.421875 30.609375 -1.421875 
Q 18.84375 -1.421875 12.171875 6.21875 
Q 5.515625 13.875 5.515625 27.296875 
Q 5.515625 40.765625 12.171875 48.375 
Q 18.84375 56 30.609375 56 
z
" id="DejaVuSans-111"/>
        <path id="DejaVuSans-32"/>
        <path d="M 18.109375 8.203125 
L 18.109375 -20.796875 
L 9.078125 -20.796875 
L 9.078125 54.6875 
L 18.109375 54.6875 
L 18.109375 46.390625 
Q 20.953125 51.265625 25.265625 53.625 
Q 29.59375 56 35.59375 56 
Q 45.5625 56 51.78125 48.09375 
Q 58.015625 40.1875 58.015625 27.296875 
Q 58.015625 14.40625 51.78125 6.484375 
Q 45.5625 -1.421875 35.59375 -1.421875 
Q 29.59375 -1.421875 25.265625 0.953125 
Q 20.953125 3.328125 18.109375 8.203125 
z
M 48.6875 27.296875 
Q 48.6875 37.203125 44.609375 42.84375 
Q 40.53125 48.484375 33.40625 48.484375 
Q 26.265625 48.484375 22.1875 42.84375 
Q 18.109375 37.203125 18.109375 27.296875 
Q 18.109375 17.390625 22.1875 11.75 
Q 26.265625 6.109375 33.40625 6.109375 
Q 40.53125 6.109375 44.609375 11.75 
Q 48.6875 17.390625 48.6875 27.296875 
z
" id="DejaVuSans-112"/>
        <path d="M 41.109375 46.296875 
Q 39.59375 47.171875 37.8125 47.578125 
Q 36.03125 48 33.890625 48 
Q 26.265625 48 22.1875 43.046875 
Q 18.109375 38.09375 18.109375 28.8125 
L 18.109375 0 
L 9.078125 0 
L 9.078125 54.6875 
L 18.109375 54.6875 
L 18.109375 46.1875 
Q 20.953125 51.171875 25.484375 53.578125 
Q 30.03125 56 36.53125 56 
Q 37.453125 56 38.578125 55.875 
Q 39.703125 55.765625 41.0625 55.515625 
z
" id="DejaVuSans-114"/>
        <path d="M 56.203125 29.59375 
L 56.203125 25.203125 
L 14.890625 25.203125 
Q 15.484375 15.921875 20.484375 11.0625 
Q 25.484375 6.203125 34.421875 6.203125 
Q 39.59375 6.203125 44.453125 7.46875 
Q 49.3125 8.734375 54.109375 11.28125 
L 54.109375 2.78125 
Q 49.265625 0.734375 44.1875 -0.34375 
Q 39.109375 -1.421875 33.890625 -1.421875 
Q 20.796875 -1.421875 13.15625 6.1875 
Q 5.515625 13.8125 5.515625 26.8125 
Q 5.515625 40.234375 12.765625 48.109375 
Q 20.015625 56 32.328125 56 
Q 43.359375 56 49.78125 48.890625 
Q 56.203125 41.796875 56.203125 29.59375 
z
M 47.21875 32.234375 
Q 47.125 39.59375 43.09375 43.984375 
Q 39.0625 48.390625 32.421875 48.390625 
Q 24.90625 48.390625 20.390625 44.140625 
Q 15.875 39.890625 15.1875 32.171875 
z
" id="DejaVuSans-101"/>
        <path d="M 45.40625 46.390625 
L 45.40625 75.984375 
L 54.390625 75.984375 
L 54.390625 0 
L 45.40625 0 
L 45.40625 8.203125 
Q 42.578125 3.328125 38.25 0.953125 
Q 33.9375 -1.421875 27.875 -1.421875 
Q 17.96875 -1.421875 11.734375 6.484375 
Q 5.515625 14.40625 5.515625 27.296875 
Q 5.515625 40.1875 11.734375 48.09375 
Q 17.96875 56 27.875 56 
Q 33.9375 56 38.25 53.625 
Q 42.578125 51.265625 45.40625 46.390625 
z
M 14.796875 27.296875 
Q 14.796875 17.390625 18.875 11.75 
Q 22.953125 6.109375 30.078125 6.109375 
Q 37.203125 6.109375 41.296875 11.75 
Q 45.40625 17.390625 45.40625 27.296875 
Q 45.40625 37.203125 41.296875 42.84375 
Q 37.203125 48.484375 30.078125 48.484375 
Q 22.953125 48.484375 18.875 42.84375 
Q 14.796875 37.203125 14.796875 27.296875 
z
" id="DejaVuSans-100"/>
        <path d="M 9.421875 54.6875 
L 18.40625 54.6875 
L 18.40625 0 
L 9.421875 0 
z
M 9.421875 75.984375 
L 18.40625 75.984375 
L 18.40625 64.59375 
L 9.421875 64.59375 
z
" id="DejaVuSans-105"/>
        <path d="M 48.78125 52.59375 
L 48.78125 44.1875 
Q 44.96875 46.296875 41.140625 47.34375 
Q 37.3125 48.390625 33.40625 48.390625 
Q 24.65625 48.390625 19.8125 42.84375 
Q 14.984375 37.3125 14.984375 27.296875 
Q 14.984375 17.28125 19.8125 11.734375 
Q 24.65625 6.203125 33.40625 6.203125 
Q 37.3125 6.203125 41.140625 7.25 
Q 44.96875 8.296875 48.78125 10.40625 
L 48.78125 2.09375 
Q 45.015625 0.34375 40.984375 -0.53125 
Q 36.96875 -1.421875 32.421875 -1.421875 
Q 20.0625 -1.421875 12.78125 6.34375 
Q 5.515625 14.109375 5.515625 27.296875 
Q 5.515625 40.671875 12.859375 48.328125 
Q 20.21875 56 33.015625 56 
Q 37.15625 56 41.109375 55.140625 
Q 45.0625 54.296875 48.78125 52.59375 
z
" id="DejaVuSans-99"/>
        <path d="M 18.3125 70.21875 
L 18.3125 54.6875 
L 36.8125 54.6875 
L 36.8125 47.703125 
L 18.3125 47.703125 
L 18.3125 18.015625 
Q 18.3125 11.328125 20.140625 9.421875 
Q 21.96875 7.515625 27.59375 7.515625 
L 36.8125 7.515625 
L 36.8125 0 
L 27.59375 0 
Q 17.1875 0 13.234375 3.875 
Q 9.28125 7.765625 9.28125 18.015625 
L 9.28125 47.703125 
L 2.6875 47.703125 
L 2.6875 54.6875 
L 9.28125 54.6875 
L 9.28125 70.21875 
z
" id="DejaVuSans-116"/>
        <path d="M 44.28125 53.078125 
L 44.28125 44.578125 
Q 40.484375 46.53125 36.375 47.5 
Q 32.28125 48.484375 27.875 48.484375 
Q 21.1875 48.484375 17.84375 46.4375 
Q 14.5 44.390625 14.5 40.28125 
Q 14.5 37.15625 16.890625 35.375 
Q 19.28125 33.59375 26.515625 31.984375 
L 29.59375 31.296875 
Q 39.15625 29.25 43.1875 25.515625 
Q 47.21875 21.78125 47.21875 15.09375 
Q 47.21875 7.46875 41.1875 3.015625 
Q 35.15625 -1.421875 24.609375 -1.421875 
Q 20.21875 -1.421875 15.453125 -0.5625 
Q 10.6875 0.296875 5.421875 2 
L 5.421875 11.28125 
Q 10.40625 8.6875 15.234375 7.390625 
Q 20.0625 6.109375 24.8125 6.109375 
Q 31.15625 6.109375 34.5625 8.28125 
Q 37.984375 10.453125 37.984375 14.40625 
Q 37.984375 18.0625 35.515625 20.015625 
Q 33.0625 21.96875 24.703125 23.78125 
L 21.578125 24.515625 
Q 13.234375 26.265625 9.515625 29.90625 
Q 5.8125 33.546875 5.8125 39.890625 
Q 5.8125 47.609375 11.28125 51.796875 
Q 16.75 56 26.8125 56 
Q 31.78125 56 36.171875 55.265625 
Q 40.578125 54.546875 44.28125 53.078125 
z
" id="DejaVuSans-115"/>
       </defs>
       <use xlink:href="#DejaVuSans-78"/>
       <use x="74.804688" xlink:href="#DejaVuSans-111"/>
       <use x="135.986328" xlink:href="#DejaVuSans-32"/>
       <use x="167.773438" xlink:href="#DejaVuSans-112"/>
       <use x="231.25" xlink:href="#DejaVuSans-114"/>
       <use x="270.113281" xlink:href="#DejaVuSans-101"/>
       <use x="331.636719" xlink:href="#DejaVuSans-100"/>
       <use x="395.113281" xlink:href="#DejaVuSans-105"/>
       <use x="422.896484" xlink:href="#DejaVuSans-99"/>
       <use x="477.876953" xlink:href="#DejaVuSans-116"/>
       <use x="517.085938" xlink:href="#DejaVuSans-111"/>
       <use x="578.267578" xlink:href="#DejaVuSans-114"/>
       <use x="619.380859" xlink:href="#DejaVuSans-115"/>
      </g>
     </g>
    </g>
    <g id="xtick_2">
     <g id="line2d_2">
      <g>
       <use style="stroke:#000000;stroke-width:0.8;" x="101.488944" xlink:href="#m5e18616fac" y="268.94175"/>
      </g>
     </g>
     <g id="text_2">
      <!-- Scratch (S) -->
      <g transform="translate(61.005976 320.327064)rotate(-45)scale(0.1 -0.1)">
       <defs>
        <path d="M 53.515625 70.515625 
L 53.515625 60.890625 
Q 47.90625 63.578125 42.921875 64.890625 
Q 37.9375 66.21875 33.296875 66.21875 
Q 25.25 66.21875 20.875 63.09375 
Q 16.5 59.96875 16.5 54.203125 
Q 16.5 49.359375 19.40625 46.890625 
Q 22.3125 44.4375 30.421875 42.921875 
L 36.375 41.703125 
Q 47.40625 39.59375 52.65625 34.296875 
Q 57.90625 29 57.90625 20.125 
Q 57.90625 9.515625 50.796875 4.046875 
Q 43.703125 -1.421875 29.984375 -1.421875 
Q 24.8125 -1.421875 18.96875 -0.25 
Q 13.140625 0.921875 6.890625 3.21875 
L 6.890625 13.375 
Q 12.890625 10.015625 18.65625 8.296875 
Q 24.421875 6.59375 29.984375 6.59375 
Q 38.421875 6.59375 43.015625 9.90625 
Q 47.609375 13.234375 47.609375 19.390625 
Q 47.609375 24.75 44.3125 27.78125 
Q 41.015625 30.8125 33.5 32.328125 
L 27.484375 33.5 
Q 16.453125 35.6875 11.515625 40.375 
Q 6.59375 45.0625 6.59375 53.421875 
Q 6.59375 63.09375 13.40625 68.65625 
Q 20.21875 74.21875 32.171875 74.21875 
Q 37.3125 74.21875 42.625 73.28125 
Q 47.953125 72.359375 53.515625 70.515625 
z
" id="DejaVuSans-83"/>
        <path d="M 34.28125 27.484375 
Q 23.390625 27.484375 19.1875 25 
Q 14.984375 22.515625 14.984375 16.5 
Q 14.984375 11.71875 18.140625 8.90625 
Q 21.296875 6.109375 26.703125 6.109375 
Q 34.1875 6.109375 38.703125 11.40625 
Q 43.21875 16.703125 43.21875 25.484375 
L 43.21875 27.484375 
z
M 52.203125 31.203125 
L 52.203125 0 
L 43.21875 0 
L 43.21875 8.296875 
Q 40.140625 3.328125 35.546875 0.953125 
Q 30.953125 -1.421875 24.3125 -1.421875 
Q 15.921875 -1.421875 10.953125 3.296875 
Q 6 8.015625 6 15.921875 
Q 6 25.140625 12.171875 29.828125 
Q 18.359375 34.515625 30.609375 34.515625 
L 43.21875 34.515625 
L 43.21875 35.40625 
Q 43.21875 41.609375 39.140625 45 
Q 35.0625 48.390625 27.6875 48.390625 
Q 23 48.390625 18.546875 47.265625 
Q 14.109375 46.140625 10.015625 43.890625 
L 10.015625 52.203125 
Q 14.9375 54.109375 19.578125 55.046875 
Q 24.21875 56 28.609375 56 
Q 40.484375 56 46.34375 49.84375 
Q 52.203125 43.703125 52.203125 31.203125 
z
" id="DejaVuSans-97"/>
        <path d="M 54.890625 33.015625 
L 54.890625 0 
L 45.90625 0 
L 45.90625 32.71875 
Q 45.90625 40.484375 42.875 44.328125 
Q 39.84375 48.1875 33.796875 48.1875 
Q 26.515625 48.1875 22.3125 43.546875 
Q 18.109375 38.921875 18.109375 30.90625 
L 18.109375 0 
L 9.078125 0 
L 9.078125 75.984375 
L 18.109375 75.984375 
L 18.109375 46.1875 
Q 21.34375 51.125 25.703125 53.5625 
Q 30.078125 56 35.796875 56 
Q 45.21875 56 50.046875 50.171875 
Q 54.890625 44.34375 54.890625 33.015625 
z
" id="DejaVuSans-104"/>
        <path d="M 31 75.875 
Q 24.46875 64.65625 21.28125 53.65625 
Q 18.109375 42.671875 18.109375 31.390625 
Q 18.109375 20.125 21.3125 9.0625 
Q 24.515625 -2 31 -13.1875 
L 23.1875 -13.1875 
Q 15.875 -1.703125 12.234375 9.375 
Q 8.59375 20.453125 8.59375 31.390625 
Q 8.59375 42.28125 12.203125 53.3125 
Q 15.828125 64.359375 23.1875 75.875 
z
" id="DejaVuSans-40"/>
        <path d="M 8.015625 75.875 
L 15.828125 75.875 
Q 23.140625 64.359375 26.78125 53.3125 
Q 30.421875 42.28125 30.421875 31.390625 
Q 30.421875 20.453125 26.78125 9.375 
Q 23.140625 -1.703125 15.828125 -13.1875 
L 8.015625 -13.1875 
Q 14.5 -2 17.703125 9.0625 
Q 20.90625 20.125 20.90625 31.390625 
Q 20.90625 42.671875 17.703125 53.65625 
Q 14.5 64.65625 8.015625 75.875 
z
" id="DejaVuSans-41"/>
       </defs>
       <use xlink:href="#DejaVuSans-83"/>
       <use x="63.476562" xlink:href="#DejaVuSans-99"/>
       <use x="118.457031" xlink:href="#DejaVuSans-114"/>
       <use x="159.570312" xlink:href="#DejaVuSans-97"/>
       <use x="220.849609" xlink:href="#DejaVuSans-116"/>
       <use x="260.058594" xlink:href="#DejaVuSans-99"/>
       <use x="315.039062" xlink:href="#DejaVuSans-104"/>
       <use x="378.417969" xlink:href="#DejaVuSans-32"/>
       <use x="410.205078" xlink:href="#DejaVuSans-40"/>
       <use x="449.21875" xlink:href="#DejaVuSans-83"/>
       <use x="512.695312" xlink:href="#DejaVuSans-41"/>
      </g>
     </g>
    </g>
    <g id="xtick_3">
     <g id="line2d_3">
      <g>
       <use style="stroke:#000000;stroke-width:0.8;" x="120.45241" xlink:href="#m5e18616fac" y="268.94175"/>
      </g>
     </g>
     <g id="text_3">
      <!-- ImageNet-1k (I) -->
      <g transform="translate(63.426458 336.870048)rotate(-45)scale(0.1 -0.1)">
       <defs>
        <path d="M 9.8125 72.90625 
L 19.671875 72.90625 
L 19.671875 0 
L 9.8125 0 
z
" id="DejaVuSans-73"/>
        <path d="M 52 44.1875 
Q 55.375 50.25 60.0625 53.125 
Q 64.75 56 71.09375 56 
Q 79.640625 56 84.28125 50.015625 
Q 88.921875 44.046875 88.921875 33.015625 
L 88.921875 0 
L 79.890625 0 
L 79.890625 32.71875 
Q 79.890625 40.578125 77.09375 44.375 
Q 74.3125 48.1875 68.609375 48.1875 
Q 61.625 48.1875 57.5625 43.546875 
Q 53.515625 38.921875 53.515625 30.90625 
L 53.515625 0 
L 44.484375 0 
L 44.484375 32.71875 
Q 44.484375 40.625 41.703125 44.40625 
Q 38.921875 48.1875 33.109375 48.1875 
Q 26.21875 48.1875 22.15625 43.53125 
Q 18.109375 38.875 18.109375 30.90625 
L 18.109375 0 
L 9.078125 0 
L 9.078125 54.6875 
L 18.109375 54.6875 
L 18.109375 46.1875 
Q 21.1875 51.21875 25.484375 53.609375 
Q 29.78125 56 35.6875 56 
Q 41.65625 56 45.828125 52.96875 
Q 50 49.953125 52 44.1875 
z
" id="DejaVuSans-109"/>
        <path d="M 45.40625 27.984375 
Q 45.40625 37.75 41.375 43.109375 
Q 37.359375 48.484375 30.078125 48.484375 
Q 22.859375 48.484375 18.828125 43.109375 
Q 14.796875 37.75 14.796875 27.984375 
Q 14.796875 18.265625 18.828125 12.890625 
Q 22.859375 7.515625 30.078125 7.515625 
Q 37.359375 7.515625 41.375 12.890625 
Q 45.40625 18.265625 45.40625 27.984375 
z
M 54.390625 6.78125 
Q 54.390625 -7.171875 48.1875 -13.984375 
Q 42 -20.796875 29.203125 -20.796875 
Q 24.46875 -20.796875 20.265625 -20.09375 
Q 16.0625 -19.390625 12.109375 -17.921875 
L 12.109375 -9.1875 
Q 16.0625 -11.328125 19.921875 -12.34375 
Q 23.78125 -13.375 27.78125 -13.375 
Q 36.625 -13.375 41.015625 -8.765625 
Q 45.40625 -4.15625 45.40625 5.171875 
L 45.40625 9.625 
Q 42.625 4.78125 38.28125 2.390625 
Q 33.9375 0 27.875 0 
Q 17.828125 0 11.671875 7.65625 
Q 5.515625 15.328125 5.515625 27.984375 
Q 5.515625 40.671875 11.671875 48.328125 
Q 17.828125 56 27.875 56 
Q 33.9375 56 38.28125 53.609375 
Q 42.625 51.21875 45.40625 46.390625 
L 45.40625 54.6875 
L 54.390625 54.6875 
z
" id="DejaVuSans-103"/>
        <path d="M 4.890625 31.390625 
L 31.203125 31.390625 
L 31.203125 23.390625 
L 4.890625 23.390625 
z
" id="DejaVuSans-45"/>
        <path d="M 12.40625 8.296875 
L 28.515625 8.296875 
L 28.515625 63.921875 
L 10.984375 60.40625 
L 10.984375 69.390625 
L 28.421875 72.90625 
L 38.28125 72.90625 
L 38.28125 8.296875 
L 54.390625 8.296875 
L 54.390625 0 
L 12.40625 0 
z
" id="DejaVuSans-49"/>
        <path d="M 9.078125 75.984375 
L 18.109375 75.984375 
L 18.109375 31.109375 
L 44.921875 54.6875 
L 56.390625 54.6875 
L 27.390625 29.109375 
L 57.625 0 
L 45.90625 0 
L 18.109375 26.703125 
L 18.109375 0 
L 9.078125 0 
z
" id="DejaVuSans-107"/>
       </defs>
       <use xlink:href="#DejaVuSans-73"/>
       <use x="29.492188" xlink:href="#DejaVuSans-109"/>
       <use x="126.904297" xlink:href="#DejaVuSans-97"/>
       <use x="188.183594" xlink:href="#DejaVuSans-103"/>
       <use x="251.660156" xlink:href="#DejaVuSans-101"/>
       <use x="313.183594" xlink:href="#DejaVuSans-78"/>
       <use x="387.988281" xlink:href="#DejaVuSans-101"/>
       <use x="449.511719" xlink:href="#DejaVuSans-116"/>
       <use x="488.720703" xlink:href="#DejaVuSans-45"/>
       <use x="524.804688" xlink:href="#DejaVuSans-49"/>
       <use x="588.427734" xlink:href="#DejaVuSans-107"/>
       <use x="646.337891" xlink:href="#DejaVuSans-32"/>
       <use x="678.125" xlink:href="#DejaVuSans-40"/>
       <use x="717.138672" xlink:href="#DejaVuSans-73"/>
       <use x="746.630859" xlink:href="#DejaVuSans-41"/>
      </g>
     </g>
    </g>
    <g id="xtick_4">
     <g id="line2d_4">
      <g>
       <use style="stroke:#000000;stroke-width:0.8;" x="139.415877" xlink:href="#m5e18616fac" y="268.94175"/>
      </g>
     </g>
     <g id="text_4">
      <!-- S, I -->
      <g transform="translate(126.87578 292.384192)rotate(-45)scale(0.1 -0.1)">
       <defs>
        <path d="M 11.71875 12.40625 
L 22.015625 12.40625 
L 22.015625 4 
L 14.015625 -11.625 
L 7.71875 -11.625 
L 11.71875 4 
z
" id="DejaVuSans-44"/>
       </defs>
       <use xlink:href="#DejaVuSans-83"/>
       <use x="63.476562" xlink:href="#DejaVuSans-44"/>
       <use x="95.263672" xlink:href="#DejaVuSans-32"/>
       <use x="127.050781" xlink:href="#DejaVuSans-73"/>
      </g>
     </g>
    </g>
    <g id="xtick_5">
     <g id="line2d_5">
      <g>
       <use style="stroke:#000000;stroke-width:0.8;" x="158.379343" xlink:href="#m5e18616fac" y="268.94175"/>
      </g>
     </g>
     <g id="text_5">
      <!-- RadNet-1.28M (R) -->
      <g transform="translate(93.844801 344.378638)rotate(-45)scale(0.1 -0.1)">
       <defs>
        <path d="M 44.390625 34.1875 
Q 47.5625 33.109375 50.5625 29.59375 
Q 53.5625 26.078125 56.59375 19.921875 
L 66.609375 0 
L 56 0 
L 46.6875 18.703125 
Q 43.0625 26.03125 39.671875 28.421875 
Q 36.28125 30.8125 30.421875 30.8125 
L 19.671875 30.8125 
L 19.671875 0 
L 9.8125 0 
L 9.8125 72.90625 
L 32.078125 72.90625 
Q 44.578125 72.90625 50.734375 67.671875 
Q 56.890625 62.453125 56.890625 51.90625 
Q 56.890625 45.015625 53.6875 40.46875 
Q 50.484375 35.9375 44.390625 34.1875 
z
M 19.671875 64.796875 
L 19.671875 38.921875 
L 32.078125 38.921875 
Q 39.203125 38.921875 42.84375 42.21875 
Q 46.484375 45.515625 46.484375 51.90625 
Q 46.484375 58.296875 42.84375 61.546875 
Q 39.203125 64.796875 32.078125 64.796875 
z
" id="DejaVuSans-82"/>
        <path d="M 10.6875 12.40625 
L 21 12.40625 
L 21 0 
L 10.6875 0 
z
" id="DejaVuSans-46"/>
        <path d="M 19.1875 8.296875 
L 53.609375 8.296875 
L 53.609375 0 
L 7.328125 0 
L 7.328125 8.296875 
Q 12.9375 14.109375 22.625 23.890625 
Q 32.328125 33.6875 34.8125 36.53125 
Q 39.546875 41.84375 41.421875 45.53125 
Q 43.3125 49.21875 43.3125 52.78125 
Q 43.3125 58.59375 39.234375 62.25 
Q 35.15625 65.921875 28.609375 65.921875 
Q 23.96875 65.921875 18.8125 64.3125 
Q 13.671875 62.703125 7.8125 59.421875 
L 7.8125 69.390625 
Q 13.765625 71.78125 18.9375 73 
Q 24.125 74.21875 28.421875 74.21875 
Q 39.75 74.21875 46.484375 68.546875 
Q 53.21875 62.890625 53.21875 53.421875 
Q 53.21875 48.921875 51.53125 44.890625 
Q 49.859375 40.875 45.40625 35.40625 
Q 44.1875 33.984375 37.640625 27.21875 
Q 31.109375 20.453125 19.1875 8.296875 
z
" id="DejaVuSans-50"/>
        <path d="M 31.78125 34.625 
Q 24.75 34.625 20.71875 30.859375 
Q 16.703125 27.09375 16.703125 20.515625 
Q 16.703125 13.921875 20.71875 10.15625 
Q 24.75 6.390625 31.78125 6.390625 
Q 38.8125 6.390625 42.859375 10.171875 
Q 46.921875 13.96875 46.921875 20.515625 
Q 46.921875 27.09375 42.890625 30.859375 
Q 38.875 34.625 31.78125 34.625 
z
M 21.921875 38.8125 
Q 15.578125 40.375 12.03125 44.71875 
Q 8.5 49.078125 8.5 55.328125 
Q 8.5 64.0625 14.71875 69.140625 
Q 20.953125 74.21875 31.78125 74.21875 
Q 42.671875 74.21875 48.875 69.140625 
Q 55.078125 64.0625 55.078125 55.328125 
Q 55.078125 49.078125 51.53125 44.71875 
Q 48 40.375 41.703125 38.8125 
Q 48.828125 37.15625 52.796875 32.3125 
Q 56.78125 27.484375 56.78125 20.515625 
Q 56.78125 9.90625 50.3125 4.234375 
Q 43.84375 -1.421875 31.78125 -1.421875 
Q 19.734375 -1.421875 13.25 4.234375 
Q 6.78125 9.90625 6.78125 20.515625 
Q 6.78125 27.484375 10.78125 32.3125 
Q 14.796875 37.15625 21.921875 38.8125 
z
M 18.3125 54.390625 
Q 18.3125 48.734375 21.84375 45.5625 
Q 25.390625 42.390625 31.78125 42.390625 
Q 38.140625 42.390625 41.71875 45.5625 
Q 45.3125 48.734375 45.3125 54.390625 
Q 45.3125 60.0625 41.71875 63.234375 
Q 38.140625 66.40625 31.78125 66.40625 
Q 25.390625 66.40625 21.84375 63.234375 
Q 18.3125 60.0625 18.3125 54.390625 
z
" id="DejaVuSans-56"/>
        <path d="M 9.8125 72.90625 
L 24.515625 72.90625 
L 43.109375 23.296875 
L 61.8125 72.90625 
L 76.515625 72.90625 
L 76.515625 0 
L 66.890625 0 
L 66.890625 64.015625 
L 48.09375 14.015625 
L 38.1875 14.015625 
L 19.390625 64.015625 
L 19.390625 0 
L 9.8125 0 
z
" id="DejaVuSans-77"/>
       </defs>
       <use xlink:href="#DejaVuSans-82"/>
       <use x="67.232422" xlink:href="#DejaVuSans-97"/>
       <use x="128.511719" xlink:href="#DejaVuSans-100"/>
       <use x="191.988281" xlink:href="#DejaVuSans-78"/>
       <use x="266.792969" xlink:href="#DejaVuSans-101"/>
       <use x="328.316406" xlink:href="#DejaVuSans-116"/>
       <use x="367.525391" xlink:href="#DejaVuSans-45"/>
       <use x="403.609375" xlink:href="#DejaVuSans-49"/>
       <use x="467.232422" xlink:href="#DejaVuSans-46"/>
       <use x="499.019531" xlink:href="#DejaVuSans-50"/>
       <use x="562.642578" xlink:href="#DejaVuSans-56"/>
       <use x="626.265625" xlink:href="#DejaVuSans-77"/>
       <use x="712.544922" xlink:href="#DejaVuSans-32"/>
       <use x="744.332031" xlink:href="#DejaVuSans-40"/>
       <use x="783.345703" xlink:href="#DejaVuSans-82"/>
       <use x="852.828125" xlink:href="#DejaVuSans-41"/>
      </g>
     </g>
    </g>
    <g id="xtick_6">
     <g id="line2d_6">
      <g>
       <use style="stroke:#000000;stroke-width:0.8;" x="177.34281" xlink:href="#m5e18616fac" y="268.94175"/>
      </g>
     </g>
     <g id="text_6">
      <!-- S, R -->
      <g transform="translate(161.97539 295.211515)rotate(-45)scale(0.1 -0.1)">
       <use xlink:href="#DejaVuSans-83"/>
       <use x="63.476562" xlink:href="#DejaVuSans-44"/>
       <use x="95.263672" xlink:href="#DejaVuSans-32"/>
       <use x="127.050781" xlink:href="#DejaVuSans-82"/>
      </g>
     </g>
    </g>
    <g id="xtick_7">
     <g id="line2d_7">
      <g>
       <use style="stroke:#000000;stroke-width:0.8;" x="196.306276" xlink:href="#m5e18616fac" y="268.94175"/>
      </g>
     </g>
     <g id="text_7">
      <!-- I, R -->
      <g transform="translate(183.341915 292.808456)rotate(-45)scale(0.1 -0.1)">
       <use xlink:href="#DejaVuSans-73"/>
       <use x="29.492188" xlink:href="#DejaVuSans-44"/>
       <use x="61.279297" xlink:href="#DejaVuSans-32"/>
       <use x="93.066406" xlink:href="#DejaVuSans-82"/>
      </g>
     </g>
    </g>
    <g id="xtick_8">
     <g id="line2d_8">
      <g>
       <use style="stroke:#000000;stroke-width:0.8;" x="215.269742" xlink:href="#m5e18616fac" y="268.94175"/>
      </g>
     </g>
     <g id="text_8">
      <!-- S, I, R -->
      <g transform="translate(193.321811 301.792027)rotate(-45)scale(0.1 -0.1)">
       <use xlink:href="#DejaVuSans-83"/>
       <use x="63.476562" xlink:href="#DejaVuSans-44"/>
       <use x="95.263672" xlink:href="#DejaVuSans-32"/>
       <use x="127.050781" xlink:href="#DejaVuSans-73"/>
       <use x="156.542969" xlink:href="#DejaVuSans-44"/>
       <use x="188.330078" xlink:href="#DejaVuSans-32"/>
       <use x="220.117188" xlink:href="#DejaVuSans-82"/>
      </g>
     </g>
    </g>
    <g id="xtick_9">
     <g id="line2d_9">
      <g>
       <use style="stroke:#000000;stroke-width:0.8;" x="234.233209" xlink:href="#m5e18616fac" y="268.94175"/>
      </g>
     </g>
     <g id="text_9">
      <!-- RadNet-12M (R12M) -->
      <g transform="translate(161.345968 352.731337)rotate(-45)scale(0.1 -0.1)">
       <use xlink:href="#DejaVuSans-82"/>
       <use x="67.232422" xlink:href="#DejaVuSans-97"/>
       <use x="128.511719" xlink:href="#DejaVuSans-100"/>
       <use x="191.988281" xlink:href="#DejaVuSans-78"/>
       <use x="266.792969" xlink:href="#DejaVuSans-101"/>
       <use x="328.316406" xlink:href="#DejaVuSans-116"/>
       <use x="367.525391" xlink:href="#DejaVuSans-45"/>
       <use x="403.609375" xlink:href="#DejaVuSans-49"/>
       <use x="467.232422" xlink:href="#DejaVuSans-50"/>
       <use x="530.855469" xlink:href="#DejaVuSans-77"/>
       <use x="617.134766" xlink:href="#DejaVuSans-32"/>
       <use x="648.921875" xlink:href="#DejaVuSans-40"/>
       <use x="687.935547" xlink:href="#DejaVuSans-82"/>
       <use x="757.417969" xlink:href="#DejaVuSans-49"/>
       <use x="821.041016" xlink:href="#DejaVuSans-50"/>
       <use x="884.664062" xlink:href="#DejaVuSans-77"/>
       <use x="970.943359" xlink:href="#DejaVuSans-41"/>
      </g>
     </g>
    </g>
    <g id="xtick_10">
     <g id="line2d_10">
      <g>
       <use style="stroke:#000000;stroke-width:0.8;" x="253.196675" xlink:href="#m5e18616fac" y="268.94175"/>
      </g>
     </g>
     <g id="text_10">
      <!-- S, R12M -->
      <g transform="translate(222.730317 310.310454)rotate(-45)scale(0.1 -0.1)">
       <use xlink:href="#DejaVuSans-83"/>
       <use x="63.476562" xlink:href="#DejaVuSans-44"/>
       <use x="95.263672" xlink:href="#DejaVuSans-32"/>
       <use x="127.050781" xlink:href="#DejaVuSans-82"/>
       <use x="196.533203" xlink:href="#DejaVuSans-49"/>
       <use x="260.15625" xlink:href="#DejaVuSans-50"/>
       <use x="323.779297" xlink:href="#DejaVuSans-77"/>
      </g>
     </g>
    </g>
    <g id="xtick_11">
     <g id="line2d_11">
      <g>
       <use style="stroke:#000000;stroke-width:0.8;" x="272.160142" xlink:href="#m5e18616fac" y="268.94175"/>
      </g>
     </g>
     <g id="text_11">
      <!-- I, R12M -->
      <g transform="translate(244.096841 307.907396)rotate(-45)scale(0.1 -0.1)">
       <use xlink:href="#DejaVuSans-73"/>
       <use x="29.492188" xlink:href="#DejaVuSans-44"/>
       <use x="61.279297" xlink:href="#DejaVuSans-32"/>
       <use x="93.066406" xlink:href="#DejaVuSans-82"/>
       <use x="162.548828" xlink:href="#DejaVuSans-49"/>
       <use x="226.171875" xlink:href="#DejaVuSans-50"/>
       <use x="289.794922" xlink:href="#DejaVuSans-77"/>
      </g>
     </g>
    </g>
    <g id="xtick_12">
     <g id="line2d_12">
      <g>
       <use style="stroke:#000000;stroke-width:0.8;" x="291.123608" xlink:href="#m5e18616fac" y="268.94175"/>
      </g>
     </g>
     <g id="text_12">
      <!-- S, I, R12M -->
      <g transform="translate(254.076737 316.890967)rotate(-45)scale(0.1 -0.1)">
       <use xlink:href="#DejaVuSans-83"/>
       <use x="63.476562" xlink:href="#DejaVuSans-44"/>
       <use x="95.263672" xlink:href="#DejaVuSans-32"/>
       <use x="127.050781" xlink:href="#DejaVuSans-73"/>
       <use x="156.542969" xlink:href="#DejaVuSans-44"/>
       <use x="188.330078" xlink:href="#DejaVuSans-32"/>
       <use x="220.117188" xlink:href="#DejaVuSans-82"/>
       <use x="289.599609" xlink:href="#DejaVuSans-49"/>
       <use x="353.222656" xlink:href="#DejaVuSans-50"/>
       <use x="416.845703" xlink:href="#DejaVuSans-77"/>
      </g>
     </g>
    </g>
    <g id="xtick_13">
     <g id="line2d_13">
      <g>
       <use style="stroke:#000000;stroke-width:0.8;" x="310.087075" xlink:href="#m5e18616fac" y="268.94175"/>
      </g>
     </g>
     <g id="text_13">
      <!-- R, R12M -->
      <g transform="translate(279.196452 310.734718)rotate(-45)scale(0.1 -0.1)">
       <use xlink:href="#DejaVuSans-82"/>
       <use x="69.482422" xlink:href="#DejaVuSans-44"/>
       <use x="101.269531" xlink:href="#DejaVuSans-32"/>
       <use x="133.056641" xlink:href="#DejaVuSans-82"/>
       <use x="202.539062" xlink:href="#DejaVuSans-49"/>
       <use x="266.162109" xlink:href="#DejaVuSans-50"/>
       <use x="329.785156" xlink:href="#DejaVuSans-77"/>
      </g>
     </g>
    </g>
    <g id="xtick_14">
     <g id="line2d_14">
      <g>
       <use style="stroke:#000000;stroke-width:0.8;" x="329.050541" xlink:href="#m5e18616fac" y="268.94175"/>
      </g>
     </g>
     <g id="text_14">
      <!-- S, R, R12M -->
      <g transform="translate(289.176348 319.718289)rotate(-45)scale(0.1 -0.1)">
       <use xlink:href="#DejaVuSans-83"/>
       <use x="63.476562" xlink:href="#DejaVuSans-44"/>
       <use x="95.263672" xlink:href="#DejaVuSans-32"/>
       <use x="127.050781" xlink:href="#DejaVuSans-82"/>
       <use x="196.533203" xlink:href="#DejaVuSans-44"/>
       <use x="228.320312" xlink:href="#DejaVuSans-32"/>
       <use x="260.107422" xlink:href="#DejaVuSans-82"/>
       <use x="329.589844" xlink:href="#DejaVuSans-49"/>
       <use x="393.212891" xlink:href="#DejaVuSans-50"/>
       <use x="456.835938" xlink:href="#DejaVuSans-77"/>
      </g>
     </g>
    </g>
    <g id="xtick_15">
     <g id="line2d_15">
      <g>
       <use style="stroke:#000000;stroke-width:0.8;" x="348.014008" xlink:href="#m5e18616fac" y="268.94175"/>
      </g>
     </g>
     <g id="text_15">
      <!-- I, R, R12M -->
      <g transform="translate(310.542872 317.315231)rotate(-45)scale(0.1 -0.1)">
       <use xlink:href="#DejaVuSans-73"/>
       <use x="29.492188" xlink:href="#DejaVuSans-44"/>
       <use x="61.279297" xlink:href="#DejaVuSans-32"/>
       <use x="93.066406" xlink:href="#DejaVuSans-82"/>
       <use x="162.548828" xlink:href="#DejaVuSans-44"/>
       <use x="194.335938" xlink:href="#DejaVuSans-32"/>
       <use x="226.123047" xlink:href="#DejaVuSans-82"/>
       <use x="295.605469" xlink:href="#DejaVuSans-49"/>
       <use x="359.228516" xlink:href="#DejaVuSans-50"/>
       <use x="422.851562" xlink:href="#DejaVuSans-77"/>
      </g>
     </g>
    </g>
    <g id="xtick_16">
     <g id="line2d_16">
      <g>
       <use style="stroke:#000000;stroke-width:0.8;" x="366.977474" xlink:href="#m5e18616fac" y="268.94175"/>
      </g>
     </g>
     <g id="text_16">
      <!-- S, I, R, R12M -->
      <g transform="translate(320.522768 326.298801)rotate(-45)scale(0.1 -0.1)">
       <use xlink:href="#DejaVuSans-83"/>
       <use x="63.476562" xlink:href="#DejaVuSans-44"/>
       <use x="95.263672" xlink:href="#DejaVuSans-32"/>
       <use x="127.050781" xlink:href="#DejaVuSans-73"/>
       <use x="156.542969" xlink:href="#DejaVuSans-44"/>
       <use x="188.330078" xlink:href="#DejaVuSans-32"/>
       <use x="220.117188" xlink:href="#DejaVuSans-82"/>
       <use x="289.599609" xlink:href="#DejaVuSans-44"/>
       <use x="321.386719" xlink:href="#DejaVuSans-32"/>
       <use x="353.173828" xlink:href="#DejaVuSans-82"/>
       <use x="422.65625" xlink:href="#DejaVuSans-49"/>
       <use x="486.279297" xlink:href="#DejaVuSans-50"/>
       <use x="549.902344" xlink:href="#DejaVuSans-77"/>
      </g>
     </g>
    </g>
    <g id="xtick_17">
     <g id="line2d_17">
      <g>
       <use style="stroke:#000000;stroke-width:0.8;" x="416.282487" xlink:href="#m5e18616fac" y="268.94175"/>
      </g>
     </g>
     <g id="text_17">
      <!-- I, ¬R -->
      <g transform="translate(397.392792 298.73379)rotate(-45)scale(0.1 -0.1)">
       <defs>
        <path d="M 10.59375 42.09375 
L 73.1875 42.09375 
L 73.1875 14.015625 
L 64.984375 14.015625 
L 64.984375 33.796875 
L 10.59375 33.796875 
z
" id="DejaVuSans-172"/>
       </defs>
       <use xlink:href="#DejaVuSans-73"/>
       <use x="29.492188" xlink:href="#DejaVuSans-44"/>
       <use x="61.279297" xlink:href="#DejaVuSans-32"/>
       <use x="93.066406" xlink:href="#DejaVuSans-172"/>
       <use x="176.855469" xlink:href="#DejaVuSans-82"/>
      </g>
     </g>
    </g>
    <g id="xtick_18">
     <g id="line2d_18">
      <g>
       <use style="stroke:#000000;stroke-width:0.8;" x="435.245953" xlink:href="#m5e18616fac" y="268.94175"/>
      </g>
     </g>
     <g id="text_18">
      <!-- R, ¬I -->
      <g transform="translate(416.356258 298.73379)rotate(-45)scale(0.1 -0.1)">
       <use xlink:href="#DejaVuSans-82"/>
       <use x="69.482422" xlink:href="#DejaVuSans-44"/>
       <use x="101.269531" xlink:href="#DejaVuSans-32"/>
       <use x="133.056641" xlink:href="#DejaVuSans-172"/>
       <use x="216.845703" xlink:href="#DejaVuSans-73"/>
      </g>
     </g>
    </g>
    <g id="xtick_19">
     <g id="line2d_19">
      <g>
       <use style="stroke:#000000;stroke-width:0.8;" x="454.20942" xlink:href="#m5e18616fac" y="268.94175"/>
      </g>
     </g>
     <g id="text_19">
      <!-- I, ¬R12M -->
      <g transform="translate(420.220785 313.83273)rotate(-45)scale(0.1 -0.1)">
       <use xlink:href="#DejaVuSans-73"/>
       <use x="29.492188" xlink:href="#DejaVuSans-44"/>
       <use x="61.279297" xlink:href="#DejaVuSans-32"/>
       <use x="93.066406" xlink:href="#DejaVuSans-172"/>
       <use x="176.855469" xlink:href="#DejaVuSans-82"/>
       <use x="246.337891" xlink:href="#DejaVuSans-49"/>
       <use x="309.960938" xlink:href="#DejaVuSans-50"/>
       <use x="373.583984" xlink:href="#DejaVuSans-77"/>
      </g>
     </g>
    </g>
    <g id="xtick_20">
     <g id="line2d_20">
      <g>
       <use style="stroke:#000000;stroke-width:0.8;" x="473.172886" xlink:href="#m5e18616fac" y="268.94175"/>
      </g>
     </g>
     <g id="text_20">
      <!-- R12M, ¬I -->
      <g transform="translate(439.184252 313.83273)rotate(-45)scale(0.1 -0.1)">
       <use xlink:href="#DejaVuSans-82"/>
       <use x="69.482422" xlink:href="#DejaVuSans-49"/>
       <use x="133.105469" xlink:href="#DejaVuSans-50"/>
       <use x="196.728516" xlink:href="#DejaVuSans-77"/>
       <use x="283.007812" xlink:href="#DejaVuSans-44"/>
       <use x="314.794922" xlink:href="#DejaVuSans-32"/>
       <use x="346.582031" xlink:href="#DejaVuSans-172"/>
       <use x="430.371094" xlink:href="#DejaVuSans-73"/>
      </g>
     </g>
    </g>
   </g>
   <g id="matplotlib.axis_2">
    <g id="ytick_1">
     <g id="line2d_21">
      <defs>
       <path d="M 0 0 
L -3.5 0 
" id="ma5dc60067d" style="stroke:#000000;stroke-width:0.8;"/>
      </defs>
      <g>
       <use style="stroke:#000000;stroke-width:0.8;" x="58.441875" xlink:href="#ma5dc60067d" y="268.94175"/>
      </g>
     </g>
     <g id="text_21">
      <!-- 0.000 -->
      <g transform="translate(22.81375 272.740969)scale(0.1 -0.1)">
       <defs>
        <path d="M 31.78125 66.40625 
Q 24.171875 66.40625 20.328125 58.90625 
Q 16.5 51.421875 16.5 36.375 
Q 16.5 21.390625 20.328125 13.890625 
Q 24.171875 6.390625 31.78125 6.390625 
Q 39.453125 6.390625 43.28125 13.890625 
Q 47.125 21.390625 47.125 36.375 
Q 47.125 51.421875 43.28125 58.90625 
Q 39.453125 66.40625 31.78125 66.40625 
z
M 31.78125 74.21875 
Q 44.046875 74.21875 50.515625 64.515625 
Q 56.984375 54.828125 56.984375 36.375 
Q 56.984375 17.96875 50.515625 8.265625 
Q 44.046875 -1.421875 31.78125 -1.421875 
Q 19.53125 -1.421875 13.0625 8.265625 
Q 6.59375 17.96875 6.59375 36.375 
Q 6.59375 54.828125 13.0625 64.515625 
Q 19.53125 74.21875 31.78125 74.21875 
z
" id="DejaVuSans-48"/>
       </defs>
       <use xlink:href="#DejaVuSans-48"/>
       <use x="63.623047" xlink:href="#DejaVuSans-46"/>
       <use x="95.410156" xlink:href="#DejaVuSans-48"/>
       <use x="159.033203" xlink:href="#DejaVuSans-48"/>
       <use x="222.65625" xlink:href="#DejaVuSans-48"/>
      </g>
     </g>
    </g>
    <g id="ytick_2">
     <g id="line2d_22">
      <g>
       <use style="stroke:#000000;stroke-width:0.8;" x="58.441875" xlink:href="#ma5dc60067d" y="207.74175"/>
      </g>
     </g>
     <g id="text_22">
      <!-- 0.001 -->
      <g transform="translate(22.81375 211.540969)scale(0.1 -0.1)">
       <use xlink:href="#DejaVuSans-48"/>
       <use x="63.623047" xlink:href="#DejaVuSans-46"/>
       <use x="95.410156" xlink:href="#DejaVuSans-48"/>
       <use x="159.033203" xlink:href="#DejaVuSans-48"/>
       <use x="222.65625" xlink:href="#DejaVuSans-49"/>
      </g>
     </g>
    </g>
    <g id="ytick_3">
     <g id="line2d_23">
      <g>
       <use style="stroke:#000000;stroke-width:0.8;" x="58.441875" xlink:href="#ma5dc60067d" y="146.54175"/>
      </g>
     </g>
     <g id="text_23">
      <!-- 0.010 -->
      <g transform="translate(22.81375 150.340969)scale(0.1 -0.1)">
       <use xlink:href="#DejaVuSans-48"/>
       <use x="63.623047" xlink:href="#DejaVuSans-46"/>
       <use x="95.410156" xlink:href="#DejaVuSans-48"/>
       <use x="159.033203" xlink:href="#DejaVuSans-49"/>
       <use x="222.65625" xlink:href="#DejaVuSans-48"/>
      </g>
     </g>
    </g>
    <g id="ytick_4">
     <g id="line2d_24">
      <g>
       <use style="stroke:#000000;stroke-width:0.8;" x="58.441875" xlink:href="#ma5dc60067d" y="85.34175"/>
      </g>
     </g>
     <g id="text_24">
      <!-- 0.100 -->
      <g transform="translate(22.81375 89.140969)scale(0.1 -0.1)">
       <use xlink:href="#DejaVuSans-48"/>
       <use x="63.623047" xlink:href="#DejaVuSans-46"/>
       <use x="95.410156" xlink:href="#DejaVuSans-49"/>
       <use x="159.033203" xlink:href="#DejaVuSans-48"/>
       <use x="222.65625" xlink:href="#DejaVuSans-48"/>
      </g>
     </g>
    </g>
    <g id="ytick_5">
     <g id="line2d_25">
      <g>
       <use style="stroke:#000000;stroke-width:0.8;" x="58.441875" xlink:href="#ma5dc60067d" y="24.14175"/>
      </g>
     </g>
     <g id="text_25">
      <!-- 1.000 -->
      <g transform="translate(22.81375 27.940969)scale(0.1 -0.1)">
       <use xlink:href="#DejaVuSans-49"/>
       <use x="63.623047" xlink:href="#DejaVuSans-46"/>
       <use x="95.410156" xlink:href="#DejaVuSans-48"/>
       <use x="159.033203" xlink:href="#DejaVuSans-48"/>
       <use x="222.65625" xlink:href="#DejaVuSans-48"/>
      </g>
     </g>
    </g>
    <g id="ytick_6">
     <g id="line2d_26">
      <defs>
       <path d="M 0 0 
L -2 0 
" id="m1ca42ba46d" style="stroke:#000000;stroke-width:0.6;"/>
      </defs>
      <g>
       <use style="stroke:#000000;stroke-width:0.6;" x="58.441875" xlink:href="#m1ca42ba46d" y="250.518714"/>
      </g>
     </g>
    </g>
    <g id="ytick_7">
     <g id="line2d_27">
      <g>
       <use style="stroke:#000000;stroke-width:0.6;" x="58.441875" xlink:href="#m1ca42ba46d" y="239.741929"/>
      </g>
     </g>
    </g>
    <g id="ytick_8">
     <g id="line2d_28">
      <g>
       <use style="stroke:#000000;stroke-width:0.6;" x="58.441875" xlink:href="#m1ca42ba46d" y="232.095679"/>
      </g>
     </g>
    </g>
    <g id="ytick_9">
     <g id="line2d_29">
      <g>
       <use style="stroke:#000000;stroke-width:0.6;" x="58.441875" xlink:href="#m1ca42ba46d" y="226.164786"/>
      </g>
     </g>
    </g>
    <g id="ytick_10">
     <g id="line2d_30">
      <g>
       <use style="stroke:#000000;stroke-width:0.6;" x="58.441875" xlink:href="#m1ca42ba46d" y="221.318893"/>
      </g>
     </g>
    </g>
    <g id="ytick_11">
     <g id="line2d_31">
      <g>
       <use style="stroke:#000000;stroke-width:0.6;" x="58.441875" xlink:href="#m1ca42ba46d" y="217.22175"/>
      </g>
     </g>
    </g>
    <g id="ytick_12">
     <g id="line2d_32">
      <g>
       <use style="stroke:#000000;stroke-width:0.6;" x="58.441875" xlink:href="#m1ca42ba46d" y="213.672643"/>
      </g>
     </g>
    </g>
    <g id="ytick_13">
     <g id="line2d_33">
      <g>
       <use style="stroke:#000000;stroke-width:0.6;" x="58.441875" xlink:href="#m1ca42ba46d" y="210.542108"/>
      </g>
     </g>
    </g>
    <g id="ytick_14">
     <g id="line2d_34">
      <g>
       <use style="stroke:#000000;stroke-width:0.6;" x="58.441875" xlink:href="#m1ca42ba46d" y="189.318714"/>
      </g>
     </g>
    </g>
    <g id="ytick_15">
     <g id="line2d_35">
      <g>
       <use style="stroke:#000000;stroke-width:0.6;" x="58.441875" xlink:href="#m1ca42ba46d" y="178.541929"/>
      </g>
     </g>
    </g>
    <g id="ytick_16">
     <g id="line2d_36">
      <g>
       <use style="stroke:#000000;stroke-width:0.6;" x="58.441875" xlink:href="#m1ca42ba46d" y="170.895679"/>
      </g>
     </g>
    </g>
    <g id="ytick_17">
     <g id="line2d_37">
      <g>
       <use style="stroke:#000000;stroke-width:0.6;" x="58.441875" xlink:href="#m1ca42ba46d" y="164.964786"/>
      </g>
     </g>
    </g>
    <g id="ytick_18">
     <g id="line2d_38">
      <g>
       <use style="stroke:#000000;stroke-width:0.6;" x="58.441875" xlink:href="#m1ca42ba46d" y="160.118893"/>
      </g>
     </g>
    </g>
    <g id="ytick_19">
     <g id="line2d_39">
      <g>
       <use style="stroke:#000000;stroke-width:0.6;" x="58.441875" xlink:href="#m1ca42ba46d" y="156.02175"/>
      </g>
     </g>
    </g>
    <g id="ytick_20">
     <g id="line2d_40">
      <g>
       <use style="stroke:#000000;stroke-width:0.6;" x="58.441875" xlink:href="#m1ca42ba46d" y="152.472643"/>
      </g>
     </g>
    </g>
    <g id="ytick_21">
     <g id="line2d_41">
      <g>
       <use style="stroke:#000000;stroke-width:0.6;" x="58.441875" xlink:href="#m1ca42ba46d" y="149.342108"/>
      </g>
     </g>
    </g>
    <g id="ytick_22">
     <g id="line2d_42">
      <g>
       <use style="stroke:#000000;stroke-width:0.6;" x="58.441875" xlink:href="#m1ca42ba46d" y="128.118714"/>
      </g>
     </g>
    </g>
    <g id="ytick_23">
     <g id="line2d_43">
      <g>
       <use style="stroke:#000000;stroke-width:0.6;" x="58.441875" xlink:href="#m1ca42ba46d" y="117.341929"/>
      </g>
     </g>
    </g>
    <g id="ytick_24">
     <g id="line2d_44">
      <g>
       <use style="stroke:#000000;stroke-width:0.6;" x="58.441875" xlink:href="#m1ca42ba46d" y="109.695679"/>
      </g>
     </g>
    </g>
    <g id="ytick_25">
     <g id="line2d_45">
      <g>
       <use style="stroke:#000000;stroke-width:0.6;" x="58.441875" xlink:href="#m1ca42ba46d" y="103.764786"/>
      </g>
     </g>
    </g>
    <g id="ytick_26">
     <g id="line2d_46">
      <g>
       <use style="stroke:#000000;stroke-width:0.6;" x="58.441875" xlink:href="#m1ca42ba46d" y="98.918893"/>
      </g>
     </g>
    </g>
    <g id="ytick_27">
     <g id="line2d_47">
      <g>
       <use style="stroke:#000000;stroke-width:0.6;" x="58.441875" xlink:href="#m1ca42ba46d" y="94.82175"/>
      </g>
     </g>
    </g>
    <g id="ytick_28">
     <g id="line2d_48">
      <g>
       <use style="stroke:#000000;stroke-width:0.6;" x="58.441875" xlink:href="#m1ca42ba46d" y="91.272643"/>
      </g>
     </g>
    </g>
    <g id="ytick_29">
     <g id="line2d_49">
      <g>
       <use style="stroke:#000000;stroke-width:0.6;" x="58.441875" xlink:href="#m1ca42ba46d" y="88.142108"/>
      </g>
     </g>
    </g>
    <g id="ytick_30">
     <g id="line2d_50">
      <g>
       <use style="stroke:#000000;stroke-width:0.6;" x="58.441875" xlink:href="#m1ca42ba46d" y="66.918714"/>
      </g>
     </g>
    </g>
    <g id="ytick_31">
     <g id="line2d_51">
      <g>
       <use style="stroke:#000000;stroke-width:0.6;" x="58.441875" xlink:href="#m1ca42ba46d" y="56.141929"/>
      </g>
     </g>
    </g>
    <g id="ytick_32">
     <g id="line2d_52">
      <g>
       <use style="stroke:#000000;stroke-width:0.6;" x="58.441875" xlink:href="#m1ca42ba46d" y="48.495679"/>
      </g>
     </g>
    </g>
    <g id="ytick_33">
     <g id="line2d_53">
      <g>
       <use style="stroke:#000000;stroke-width:0.6;" x="58.441875" xlink:href="#m1ca42ba46d" y="42.564786"/>
      </g>
     </g>
    </g>
    <g id="ytick_34">
     <g id="line2d_54">
      <g>
       <use style="stroke:#000000;stroke-width:0.6;" x="58.441875" xlink:href="#m1ca42ba46d" y="37.718893"/>
      </g>
     </g>
    </g>
    <g id="ytick_35">
     <g id="line2d_55">
      <g>
       <use style="stroke:#000000;stroke-width:0.6;" x="58.441875" xlink:href="#m1ca42ba46d" y="33.62175"/>
      </g>
     </g>
    </g>
    <g id="ytick_36">
     <g id="line2d_56">
      <g>
       <use style="stroke:#000000;stroke-width:0.6;" x="58.441875" xlink:href="#m1ca42ba46d" y="30.072643"/>
      </g>
     </g>
    </g>
    <g id="ytick_37">
     <g id="line2d_57">
      <g>
       <use style="stroke:#000000;stroke-width:0.6;" x="58.441875" xlink:href="#m1ca42ba46d" y="26.942108"/>
      </g>
     </g>
    </g>
    <g id="text_26">
     <!-- Fraction of correct predictions -->
     <g transform="translate(16.318125 236.229562)rotate(-90)scale(0.12 -0.12)">
      <defs>
       <path d="M 9.8125 72.90625 
L 51.703125 72.90625 
L 51.703125 64.59375 
L 19.671875 64.59375 
L 19.671875 43.109375 
L 48.578125 43.109375 
L 48.578125 34.8125 
L 19.671875 34.8125 
L 19.671875 0 
L 9.8125 0 
z
" id="DejaVuSans-70"/>
       <path d="M 54.890625 33.015625 
L 54.890625 0 
L 45.90625 0 
L 45.90625 32.71875 
Q 45.90625 40.484375 42.875 44.328125 
Q 39.84375 48.1875 33.796875 48.1875 
Q 26.515625 48.1875 22.3125 43.546875 
Q 18.109375 38.921875 18.109375 30.90625 
L 18.109375 0 
L 9.078125 0 
L 9.078125 54.6875 
L 18.109375 54.6875 
L 18.109375 46.1875 
Q 21.34375 51.125 25.703125 53.5625 
Q 30.078125 56 35.796875 56 
Q 45.21875 56 50.046875 50.171875 
Q 54.890625 44.34375 54.890625 33.015625 
z
" id="DejaVuSans-110"/>
       <path d="M 37.109375 75.984375 
L 37.109375 68.5 
L 28.515625 68.5 
Q 23.6875 68.5 21.796875 66.546875 
Q 19.921875 64.59375 19.921875 59.515625 
L 19.921875 54.6875 
L 34.71875 54.6875 
L 34.71875 47.703125 
L 19.921875 47.703125 
L 19.921875 0 
L 10.890625 0 
L 10.890625 47.703125 
L 2.296875 47.703125 
L 2.296875 54.6875 
L 10.890625 54.6875 
L 10.890625 58.5 
Q 10.890625 67.625 15.140625 71.796875 
Q 19.390625 75.984375 28.609375 75.984375 
z
" id="DejaVuSans-102"/>
      </defs>
      <use xlink:href="#DejaVuSans-70"/>
      <use x="50.269531" xlink:href="#DejaVuSans-114"/>
      <use x="91.382812" xlink:href="#DejaVuSans-97"/>
      <use x="152.662109" xlink:href="#DejaVuSans-99"/>
      <use x="207.642578" xlink:href="#DejaVuSans-116"/>
      <use x="246.851562" xlink:href="#DejaVuSans-105"/>
      <use x="274.634766" xlink:href="#DejaVuSans-111"/>
      <use x="335.816406" xlink:href="#DejaVuSans-110"/>
      <use x="399.195312" xlink:href="#DejaVuSans-32"/>
      <use x="430.982422" xlink:href="#DejaVuSans-111"/>
      <use x="492.164062" xlink:href="#DejaVuSans-102"/>
      <use x="527.369141" xlink:href="#DejaVuSans-32"/>
      <use x="559.15625" xlink:href="#DejaVuSans-99"/>
      <use x="614.136719" xlink:href="#DejaVuSans-111"/>
      <use x="675.318359" xlink:href="#DejaVuSans-114"/>
      <use x="714.681641" xlink:href="#DejaVuSans-114"/>
      <use x="753.544922" xlink:href="#DejaVuSans-101"/>
      <use x="815.068359" xlink:href="#DejaVuSans-99"/>
      <use x="870.048828" xlink:href="#DejaVuSans-116"/>
      <use x="909.257812" xlink:href="#DejaVuSans-32"/>
      <use x="941.044922" xlink:href="#DejaVuSans-112"/>
      <use x="1004.521484" xlink:href="#DejaVuSans-114"/>
      <use x="1043.384766" xlink:href="#DejaVuSans-101"/>
      <use x="1104.908203" xlink:href="#DejaVuSans-100"/>
      <use x="1168.384766" xlink:href="#DejaVuSans-105"/>
      <use x="1196.167969" xlink:href="#DejaVuSans-99"/>
      <use x="1251.148438" xlink:href="#DejaVuSans-116"/>
      <use x="1290.357422" xlink:href="#DejaVuSans-105"/>
      <use x="1318.140625" xlink:href="#DejaVuSans-111"/>
      <use x="1379.322266" xlink:href="#DejaVuSans-110"/>
      <use x="1442.701172" xlink:href="#DejaVuSans-115"/>
     </g>
    </g>
   </g>
   <g id="LineCollection_1">
    <path clip-path="url(#p25f288ba70)" d="M 82.525477 123.403375 
L 82.525477 121.270804 
" style="fill:none;stroke:#000000;stroke-width:1.5;"/>
    <path clip-path="url(#p25f288ba70)" style="fill:none;stroke:#000000;stroke-width:1.5;"/>
    <path clip-path="url(#p25f288ba70)" d="M 120.45241 150.811287 
L 120.45241 147.285675 
" style="fill:none;stroke:#000000;stroke-width:1.5;"/>
    <path clip-path="url(#p25f288ba70)" style="fill:none;stroke:#000000;stroke-width:1.5;"/>
    <path clip-path="url(#p25f288ba70)" d="M 158.379343 170.273147 
L 158.379343 165.257666 
" style="fill:none;stroke:#000000;stroke-width:1.5;"/>
    <path clip-path="url(#p25f288ba70)" style="fill:none;stroke:#000000;stroke-width:1.5;"/>
    <path clip-path="url(#p25f288ba70)" d="M 196.306276 144.77849 
L 196.306276 141.620454 
" style="fill:none;stroke:#000000;stroke-width:1.5;"/>
    <path clip-path="url(#p25f288ba70)" style="fill:none;stroke:#000000;stroke-width:1.5;"/>
    <path clip-path="url(#p25f288ba70)" d="M 234.233209 164.90207 
L 234.233209 160.349407 
" style="fill:none;stroke:#000000;stroke-width:1.5;"/>
    <path clip-path="url(#p25f288ba70)" style="fill:none;stroke:#000000;stroke-width:1.5;"/>
    <path clip-path="url(#p25f288ba70)" d="M 272.160142 148.945863 
L 272.160142 145.538133 
" style="fill:none;stroke:#000000;stroke-width:1.5;"/>
    <path clip-path="url(#p25f288ba70)" style="fill:none;stroke:#000000;stroke-width:1.5;"/>
    <path clip-path="url(#p25f288ba70)" d="M 310.087075 110.576778 
L 310.087075 108.894383 
" style="fill:none;stroke:#000000;stroke-width:1.5;"/>
    <path clip-path="url(#p25f288ba70)" style="fill:none;stroke:#000000;stroke-width:1.5;"/>
    <path clip-path="url(#p25f288ba70)" d="M 348.014008 27.270847 
L 348.014008 26.915453 
" style="fill:none;stroke:#000000;stroke-width:1.5;"/>
    <path clip-path="url(#p25f288ba70)" style="fill:none;stroke:#000000;stroke-width:1.5;"/>
   </g>
   <g id="LineCollection_2">
    <path clip-path="url(#p25f288ba70)" d="M 416.282487 130.902868 
L 416.282487 128.454359 
" style="fill:none;stroke:#000000;stroke-width:1.5;"/>
    <path clip-path="url(#p25f288ba70)" d="M 435.245953 107.683307 
L 435.245953 106.088737 
" style="fill:none;stroke:#000000;stroke-width:1.5;"/>
    <path clip-path="url(#p25f288ba70)" d="M 454.20942 128.689733 
L 454.20942 126.338943 
" style="fill:none;stroke:#000000;stroke-width:1.5;"/>
    <path clip-path="url(#p25f288ba70)" d="M 473.172886 107.107041 
L 473.172886 105.529415 
" style="fill:none;stroke:#000000;stroke-width:1.5;"/>
   </g>
   <g id="LineCollection_3">
    <path clip-path="url(#p25f288ba70)" d="M 395.422674 268.94175 
L 395.422674 24.14175 
" style="fill:none;stroke:#000000;stroke-dasharray:5.55,2.4;stroke-dashoffset:0;stroke-width:1.5;"/>
   </g>
   <g id="line2d_58">
    <defs>
     <path d="M 5 0 
L -5 -0 
" id="mf9e912ed5b" style="stroke:#000000;"/>
    </defs>
    <g clip-path="url(#p25f288ba70)">
     <use style="stroke:#000000;" x="82.525477" xlink:href="#mf9e912ed5b" y="123.403375"/>
     <use style="stroke:#000000;" x="90.563448" xlink:href="#mf9e912ed5b" y="26021.936646"/>
     <use style="stroke:#000000;" x="112.419342" xlink:href="#mf9e912ed5b" y="26021.936646"/>
     <use style="stroke:#000000;" x="120.45241" xlink:href="#mf9e912ed5b" y="150.811287"/>
     <use style="stroke:#000000;" x="128.485478" xlink:href="#mf9e912ed5b" y="26021.936646"/>
     <use style="stroke:#000000;" x="150.349759" xlink:href="#mf9e912ed5b" y="26021.936646"/>
     <use style="stroke:#000000;" x="158.379343" xlink:href="#mf9e912ed5b" y="170.273147"/>
     <use style="stroke:#000000;" x="166.408927" xlink:href="#mf9e912ed5b" y="26021.936646"/>
     <use style="stroke:#000000;" x="188.272128" xlink:href="#mf9e912ed5b" y="26021.936646"/>
     <use style="stroke:#000000;" x="196.306276" xlink:href="#mf9e912ed5b" y="144.77849"/>
     <use style="stroke:#000000;" x="204.340424" xlink:href="#mf9e912ed5b" y="26021.936646"/>
     <use style="stroke:#000000;" x="226.202663" xlink:href="#mf9e912ed5b" y="26021.936646"/>
     <use style="stroke:#000000;" x="234.233209" xlink:href="#mf9e912ed5b" y="164.90207"/>
     <use style="stroke:#000000;" x="242.263754" xlink:href="#mf9e912ed5b" y="26021.936646"/>
     <use style="stroke:#000000;" x="264.12674" xlink:href="#mf9e912ed5b" y="26021.936646"/>
     <use style="stroke:#000000;" x="272.160142" xlink:href="#mf9e912ed5b" y="148.945863"/>
     <use style="stroke:#000000;" x="280.193544" xlink:href="#mf9e912ed5b" y="26021.936646"/>
     <use style="stroke:#000000;" x="302.046811" xlink:href="#mf9e912ed5b" y="26021.936646"/>
     <use style="stroke:#000000;" x="310.087075" xlink:href="#mf9e912ed5b" y="110.576778"/>
     <use style="stroke:#000000;" x="318.127339" xlink:href="#mf9e912ed5b" y="26021.936646"/>
     <use style="stroke:#000000;" x="339.958874" xlink:href="#mf9e912ed5b" y="26021.936646"/>
     <use style="stroke:#000000;" x="348.014008" xlink:href="#mf9e912ed5b" y="27.270847"/>
     <use style="stroke:#000000;" x="356.069141" xlink:href="#mf9e912ed5b" y="26021.936646"/>
    </g>
   </g>
   <g id="line2d_59">
    <g clip-path="url(#p25f288ba70)">
     <use style="stroke:#000000;" x="82.525477" xlink:href="#mf9e912ed5b" y="121.270804"/>
     <use style="stroke:#000000;" x="90.56383" xlink:href="#mf9e912ed5b" y="26021.936646"/>
     <use style="stroke:#000000;" x="112.418711" xlink:href="#mf9e912ed5b" y="26021.936646"/>
     <use style="stroke:#000000;" x="120.45241" xlink:href="#mf9e912ed5b" y="147.285675"/>
     <use style="stroke:#000000;" x="128.486109" xlink:href="#mf9e912ed5b" y="26021.936646"/>
     <use style="stroke:#000000;" x="150.348861" xlink:href="#mf9e912ed5b" y="26021.936646"/>
     <use style="stroke:#000000;" x="158.379343" xlink:href="#mf9e912ed5b" y="165.257666"/>
     <use style="stroke:#000000;" x="166.409825" xlink:href="#mf9e912ed5b" y="26021.936646"/>
     <use style="stroke:#000000;" x="188.271563" xlink:href="#mf9e912ed5b" y="26021.936646"/>
     <use style="stroke:#000000;" x="196.306276" xlink:href="#mf9e912ed5b" y="141.620454"/>
     <use style="stroke:#000000;" x="204.340989" xlink:href="#mf9e912ed5b" y="26021.936646"/>
     <use style="stroke:#000000;" x="226.201848" xlink:href="#mf9e912ed5b" y="26021.936646"/>
     <use style="stroke:#000000;" x="234.233209" xlink:href="#mf9e912ed5b" y="160.349407"/>
     <use style="stroke:#000000;" x="242.26457" xlink:href="#mf9e912ed5b" y="26021.936646"/>
     <use style="stroke:#000000;" x="264.12613" xlink:href="#mf9e912ed5b" y="26021.936646"/>
     <use style="stroke:#000000;" x="272.160142" xlink:href="#mf9e912ed5b" y="145.538133"/>
     <use style="stroke:#000000;" x="280.194153" xlink:href="#mf9e912ed5b" y="26021.936646"/>
     <use style="stroke:#000000;" x="302.04651" xlink:href="#mf9e912ed5b" y="26021.936646"/>
     <use style="stroke:#000000;" x="310.087075" xlink:href="#mf9e912ed5b" y="108.894383"/>
     <use style="stroke:#000000;" x="318.127639" xlink:href="#mf9e912ed5b" y="26021.936646"/>
     <use style="stroke:#000000;" x="339.958811" xlink:href="#mf9e912ed5b" y="26021.936646"/>
     <use style="stroke:#000000;" x="348.014008" xlink:href="#mf9e912ed5b" y="26.915453"/>
     <use style="stroke:#000000;" x="356.069205" xlink:href="#mf9e912ed5b" y="26021.936646"/>
    </g>
   </g>
   <g id="line2d_60">
    <g clip-path="url(#p25f288ba70)">
     <use style="stroke:#000000;" x="416.282487" xlink:href="#mf9e912ed5b" y="130.902868"/>
     <use style="stroke:#000000;" x="435.245953" xlink:href="#mf9e912ed5b" y="107.683307"/>
     <use style="stroke:#000000;" x="454.20942" xlink:href="#mf9e912ed5b" y="128.689733"/>
     <use style="stroke:#000000;" x="473.172886" xlink:href="#mf9e912ed5b" y="107.107041"/>
    </g>
   </g>
   <g id="line2d_61">
    <g clip-path="url(#p25f288ba70)">
     <use style="stroke:#000000;" x="416.282487" xlink:href="#mf9e912ed5b" y="128.454359"/>
     <use style="stroke:#000000;" x="435.245953" xlink:href="#mf9e912ed5b" y="106.088737"/>
     <use style="stroke:#000000;" x="454.20942" xlink:href="#mf9e912ed5b" y="126.338943"/>
     <use style="stroke:#000000;" x="473.172886" xlink:href="#mf9e912ed5b" y="105.529415"/>
    </g>
   </g>
   <g id="patch_43">
    <path d="M 58.441875 268.94175 
L 58.441875 24.14175 
" style="fill:none;stroke:#000000;stroke-linecap:square;stroke-linejoin:miter;stroke-width:0.8;"/>
   </g>
   <g id="patch_44">
    <path d="M 504.841875 268.94175 
L 504.841875 24.14175 
" style="fill:none;stroke:#000000;stroke-linecap:square;stroke-linejoin:miter;stroke-width:0.8;"/>
   </g>
   <g id="patch_45">
    <path d="M 58.441875 268.94175 
L 504.841875 268.94175 
" style="fill:none;stroke:#000000;stroke-linecap:square;stroke-linejoin:miter;stroke-width:0.8;"/>
   </g>
   <g id="patch_46">
    <path d="M 58.441875 24.14175 
L 504.841875 24.14175 
" style="fill:none;stroke:#000000;stroke-linecap:square;stroke-linejoin:miter;stroke-width:0.8;"/>
   </g>
   <g id="text_27">
    <!-- Task: Linear evaluation on RadNet-1.28M -->
    <g transform="translate(134.00025 18.14175)scale(0.144 -0.144)">
     <defs>
      <path d="M -0.296875 72.90625 
L 61.375 72.90625 
L 61.375 64.59375 
L 35.5 64.59375 
L 35.5 0 
L 25.59375 0 
L 25.59375 64.59375 
L -0.296875 64.59375 
z
" id="DejaVuSans-84"/>
      <path d="M 11.71875 12.40625 
L 22.015625 12.40625 
L 22.015625 0 
L 11.71875 0 
z
M 11.71875 51.703125 
L 22.015625 51.703125 
L 22.015625 39.3125 
L 11.71875 39.3125 
z
" id="DejaVuSans-58"/>
      <path d="M 9.8125 72.90625 
L 19.671875 72.90625 
L 19.671875 8.296875 
L 55.171875 8.296875 
L 55.171875 0 
L 9.8125 0 
z
" id="DejaVuSans-76"/>
      <path d="M 2.984375 54.6875 
L 12.5 54.6875 
L 29.59375 8.796875 
L 46.6875 54.6875 
L 56.203125 54.6875 
L 35.6875 0 
L 23.484375 0 
z
" id="DejaVuSans-118"/>
      <path d="M 9.421875 75.984375 
L 18.40625 75.984375 
L 18.40625 0 
L 9.421875 0 
z
" id="DejaVuSans-108"/>
      <path d="M 8.5 21.578125 
L 8.5 54.6875 
L 17.484375 54.6875 
L 17.484375 21.921875 
Q 17.484375 14.15625 20.5 10.265625 
Q 23.53125 6.390625 29.59375 6.390625 
Q 36.859375 6.390625 41.078125 11.03125 
Q 45.3125 15.671875 45.3125 23.6875 
L 45.3125 54.6875 
L 54.296875 54.6875 
L 54.296875 0 
L 45.3125 0 
L 45.3125 8.40625 
Q 42.046875 3.421875 37.71875 1 
Q 33.40625 -1.421875 27.6875 -1.421875 
Q 18.265625 -1.421875 13.375 4.4375 
Q 8.5 10.296875 8.5 21.578125 
z
M 31.109375 56 
z
" id="DejaVuSans-117"/>
     </defs>
     <use xlink:href="#DejaVuSans-84"/>
     <use x="44.583984" xlink:href="#DejaVuSans-97"/>
     <use x="105.863281" xlink:href="#DejaVuSans-115"/>
     <use x="157.962891" xlink:href="#DejaVuSans-107"/>
     <use x="215.873047" xlink:href="#DejaVuSans-58"/>
     <use x="249.564453" xlink:href="#DejaVuSans-32"/>
     <use x="281.351562" xlink:href="#DejaVuSans-76"/>
     <use x="337.064453" xlink:href="#DejaVuSans-105"/>
     <use x="364.847656" xlink:href="#DejaVuSans-110"/>
     <use x="428.226562" xlink:href="#DejaVuSans-101"/>
     <use x="489.75" xlink:href="#DejaVuSans-97"/>
     <use x="551.029297" xlink:href="#DejaVuSans-114"/>
     <use x="592.142578" xlink:href="#DejaVuSans-32"/>
     <use x="623.929688" xlink:href="#DejaVuSans-101"/>
     <use x="685.453125" xlink:href="#DejaVuSans-118"/>
     <use x="744.632812" xlink:href="#DejaVuSans-97"/>
     <use x="805.912109" xlink:href="#DejaVuSans-108"/>
     <use x="833.695312" xlink:href="#DejaVuSans-117"/>
     <use x="897.074219" xlink:href="#DejaVuSans-97"/>
     <use x="958.353516" xlink:href="#DejaVuSans-116"/>
     <use x="997.5625" xlink:href="#DejaVuSans-105"/>
     <use x="1025.345703" xlink:href="#DejaVuSans-111"/>
     <use x="1086.527344" xlink:href="#DejaVuSans-110"/>
     <use x="1149.90625" xlink:href="#DejaVuSans-32"/>
     <use x="1181.693359" xlink:href="#DejaVuSans-111"/>
     <use x="1242.875" xlink:href="#DejaVuSans-110"/>
     <use x="1306.253906" xlink:href="#DejaVuSans-32"/>
     <use x="1338.041016" xlink:href="#DejaVuSans-82"/>
     <use x="1405.273438" xlink:href="#DejaVuSans-97"/>
     <use x="1466.552734" xlink:href="#DejaVuSans-100"/>
     <use x="1530.029297" xlink:href="#DejaVuSans-78"/>
     <use x="1604.833984" xlink:href="#DejaVuSans-101"/>
     <use x="1666.357422" xlink:href="#DejaVuSans-116"/>
     <use x="1705.566406" xlink:href="#DejaVuSans-45"/>
     <use x="1741.650391" xlink:href="#DejaVuSans-49"/>
     <use x="1805.273438" xlink:href="#DejaVuSans-46"/>
     <use x="1837.060547" xlink:href="#DejaVuSans-50"/>
     <use x="1900.683594" xlink:href="#DejaVuSans-56"/>
     <use x="1964.306641" xlink:href="#DejaVuSans-77"/>
    </g>
   </g>
  </g>
 </g>
 <defs>
  <clipPath id="p25f288ba70">
   <rect height="244.8" width="446.4" x="58.441875" y="24.14175"/>
  </clipPath>
 </defs>
 <defs>
  <pattern height="72" id="h87c04821b1" patternUnits="userSpaceOnUse" width="72" x="0" y="0">
   <rect fill="#1f77b4" height="73" width="73" x="0" y="0"/>
   <path d="M -36 36 
L 36 -36 
M -30 42 
L 42 -30 
M -24 48 
L 48 -24 
M -18 54 
L 54 -18 
M -12 60 
L 60 -12 
M -6 66 
L 66 -6 
M 0 72 
L 72 0 
M 6 78 
L 78 6 
M 12 84 
L 84 12 
M 18 90 
L 90 18 
M 24 96 
L 96 24 
M 30 102 
L 102 30 
M 36 108 
L 108 36 
M -36 36 
L 36 108 
M -30 30 
L 42 102 
M -24 24 
L 48 96 
M -18 18 
L 54 90 
M -12 12 
L 60 84 
M -6 6 
L 66 78 
M 0 0 
L 72 72 
M 6 -6 
L 78 66 
M 12 -12 
L 84 60 
M 18 -18 
L 90 54 
M 24 -24 
L 96 48 
M 30 -30 
L 102 42 
M 36 -36 
L 108 36 
" style="fill:#000000;stroke:#000000;stroke-linecap:butt;stroke-linejoin:miter;stroke-width:1.0;"/>
  </pattern>
  <pattern height="72" id="hd098a071f6" patternUnits="userSpaceOnUse" width="72" x="0" y="0">
   <rect fill="#aec7e8" height="73" width="73" x="0" y="0"/>
   <path d="M -36 36 
L 36 -36 
M -30 42 
L 42 -30 
M -24 48 
L 48 -24 
M -18 54 
L 54 -18 
M -12 60 
L 60 -12 
M -6 66 
L 66 -6 
M 0 72 
L 72 0 
M 6 78 
L 78 6 
M 12 84 
L 84 12 
M 18 90 
L 90 18 
M 24 96 
L 96 24 
M 30 102 
L 102 30 
M 36 108 
L 108 36 
M -36 36 
L 36 108 
M -30 30 
L 42 102 
M -24 24 
L 48 96 
M -18 18 
L 54 90 
M -12 12 
L 60 84 
M -6 6 
L 66 78 
M 0 0 
L 72 72 
M 6 -6 
L 78 66 
M 12 -12 
L 84 60 
M 18 -18 
L 90 54 
M 24 -24 
L 96 48 
M 30 -30 
L 102 42 
M 36 -36 
L 108 36 
" style="fill:#000000;stroke:#000000;stroke-linecap:butt;stroke-linejoin:miter;stroke-width:1.0;"/>
  </pattern>
  <pattern height="72" id="hec6a499634" patternUnits="userSpaceOnUse" width="72" x="0" y="0">
   <rect fill="#ff7f0e" height="73" width="73" x="0" y="0"/>
   <path d="M -36 36 
L 36 -36 
M -30 42 
L 42 -30 
M -24 48 
L 48 -24 
M -18 54 
L 54 -18 
M -12 60 
L 60 -12 
M -6 66 
L 66 -6 
M 0 72 
L 72 0 
M 6 78 
L 78 6 
M 12 84 
L 84 12 
M 18 90 
L 90 18 
M 24 96 
L 96 24 
M 30 102 
L 102 30 
M 36 108 
L 108 36 
M -36 36 
L 36 108 
M -30 30 
L 42 102 
M -24 24 
L 48 96 
M -18 18 
L 54 90 
M -12 12 
L 60 84 
M -6 6 
L 66 78 
M 0 0 
L 72 72 
M 6 -6 
L 78 66 
M 12 -12 
L 84 60 
M 18 -18 
L 90 54 
M 24 -24 
L 96 48 
M 30 -30 
L 102 42 
M 36 -36 
L 108 36 
" style="fill:#000000;stroke:#000000;stroke-linecap:butt;stroke-linejoin:miter;stroke-width:1.0;"/>
  </pattern>
  <pattern height="72" id="h24c1ae5225" patternUnits="userSpaceOnUse" width="72" x="0" y="0">
   <rect fill="#ffbb78" height="73" width="73" x="0" y="0"/>
   <path d="M -36 36 
L 36 -36 
M -30 42 
L 42 -30 
M -24 48 
L 48 -24 
M -18 54 
L 54 -18 
M -12 60 
L 60 -12 
M -6 66 
L 66 -6 
M 0 72 
L 72 0 
M 6 78 
L 78 6 
M 12 84 
L 84 12 
M 18 90 
L 90 18 
M 24 96 
L 96 24 
M 30 102 
L 102 30 
M 36 108 
L 108 36 
M -36 36 
L 36 108 
M -30 30 
L 42 102 
M -24 24 
L 48 96 
M -18 18 
L 54 90 
M -12 12 
L 60 84 
M -6 6 
L 66 78 
M 0 0 
L 72 72 
M 6 -6 
L 78 66 
M 12 -12 
L 84 60 
M 18 -18 
L 90 54 
M 24 -24 
L 96 48 
M 30 -30 
L 102 42 
M 36 -36 
L 108 36 
" style="fill:#000000;stroke:#000000;stroke-linecap:butt;stroke-linejoin:miter;stroke-width:1.0;"/>
  </pattern>
  <pattern height="72" id="h547d889f94" patternUnits="userSpaceOnUse" width="72" x="0" y="0">
   <rect fill="#2ca02c" height="73" width="73" x="0" y="0"/>
   <path d="M -36 36 
L 36 -36 
M -30 42 
L 42 -30 
M -24 48 
L 48 -24 
M -18 54 
L 54 -18 
M -12 60 
L 60 -12 
M -6 66 
L 66 -6 
M 0 72 
L 72 0 
M 6 78 
L 78 6 
M 12 84 
L 84 12 
M 18 90 
L 90 18 
M 24 96 
L 96 24 
M 30 102 
L 102 30 
M 36 108 
L 108 36 
M -36 36 
L 36 108 
M -30 30 
L 42 102 
M -24 24 
L 48 96 
M -18 18 
L 54 90 
M -12 12 
L 60 84 
M -6 6 
L 66 78 
M 0 0 
L 72 72 
M 6 -6 
L 78 66 
M 12 -12 
L 84 60 
M 18 -18 
L 90 54 
M 24 -24 
L 96 48 
M 30 -30 
L 102 42 
M 36 -36 
L 108 36 
" style="fill:#000000;stroke:#000000;stroke-linecap:butt;stroke-linejoin:miter;stroke-width:1.0;"/>
  </pattern>
  <pattern height="72" id="h172d03213d" patternUnits="userSpaceOnUse" width="72" x="0" y="0">
   <rect fill="#98df8a" height="73" width="73" x="0" y="0"/>
   <path d="M -36 36 
L 36 -36 
M -30 42 
L 42 -30 
M -24 48 
L 48 -24 
M -18 54 
L 54 -18 
M -12 60 
L 60 -12 
M -6 66 
L 66 -6 
M 0 72 
L 72 0 
M 6 78 
L 78 6 
M 12 84 
L 84 12 
M 18 90 
L 90 18 
M 24 96 
L 96 24 
M 30 102 
L 102 30 
M 36 108 
L 108 36 
M -36 36 
L 36 108 
M -30 30 
L 42 102 
M -24 24 
L 48 96 
M -18 18 
L 54 90 
M -12 12 
L 60 84 
M -6 6 
L 66 78 
M 0 0 
L 72 72 
M 6 -6 
L 78 66 
M 12 -12 
L 84 60 
M 18 -18 
L 90 54 
M 24 -24 
L 96 48 
M 30 -30 
L 102 42 
M 36 -36 
L 108 36 
" style="fill:#000000;stroke:#000000;stroke-linecap:butt;stroke-linejoin:miter;stroke-width:1.0;"/>
  </pattern>
  <pattern height="72" id="hd7e879b909" patternUnits="userSpaceOnUse" width="72" x="0" y="0">
   <rect fill="#d62728" height="73" width="73" x="0" y="0"/>
   <path d="M -36 36 
L 36 -36 
M -30 42 
L 42 -30 
M -24 48 
L 48 -24 
M -18 54 
L 54 -18 
M -12 60 
L 60 -12 
M -6 66 
L 66 -6 
M 0 72 
L 72 0 
M 6 78 
L 78 6 
M 12 84 
L 84 12 
M 18 90 
L 90 18 
M 24 96 
L 96 24 
M 30 102 
L 102 30 
M 36 108 
L 108 36 
M -36 36 
L 36 108 
M -30 30 
L 42 102 
M -24 24 
L 48 96 
M -18 18 
L 54 90 
M -12 12 
L 60 84 
M -6 6 
L 66 78 
M 0 0 
L 72 72 
M 6 -6 
L 78 66 
M 12 -12 
L 84 60 
M 18 -18 
L 90 54 
M 24 -24 
L 96 48 
M 30 -30 
L 102 42 
M 36 -36 
L 108 36 
" style="fill:#000000;stroke:#000000;stroke-linecap:butt;stroke-linejoin:miter;stroke-width:1.0;"/>
  </pattern>
  <pattern height="72" id="hcb4a348dd8" patternUnits="userSpaceOnUse" width="72" x="0" y="0">
   <rect fill="#ff9896" height="73" width="73" x="0" y="0"/>
   <path d="M -36 36 
L 36 -36 
M -30 42 
L 42 -30 
M -24 48 
L 48 -24 
M -18 54 
L 54 -18 
M -12 60 
L 60 -12 
M -6 66 
L 66 -6 
M 0 72 
L 72 0 
M 6 78 
L 78 6 
M 12 84 
L 84 12 
M 18 90 
L 90 18 
M 24 96 
L 96 24 
M 30 102 
L 102 30 
M 36 108 
L 108 36 
M -36 36 
L 36 108 
M -30 30 
L 42 102 
M -24 24 
L 48 96 
M -18 18 
L 54 90 
M -12 12 
L 60 84 
M -6 6 
L 66 78 
M 0 0 
L 72 72 
M 6 -6 
L 78 66 
M 12 -12 
L 84 60 
M 18 -18 
L 90 54 
M 24 -24 
L 96 48 
M 30 -30 
L 102 42 
M 36 -36 
L 108 36 
" style="fill:#000000;stroke:#000000;stroke-linecap:butt;stroke-linejoin:miter;stroke-width:1.0;"/>
  </pattern>
  <pattern height="72" id="hb3e5ba9b40" patternUnits="userSpaceOnUse" width="72" x="0" y="0">
   <rect fill="#9467bd" height="73" width="73" x="0" y="0"/>
   <path d="M -36 36 
L 36 -36 
M -30 42 
L 42 -30 
M -24 48 
L 48 -24 
M -18 54 
L 54 -18 
M -12 60 
L 60 -12 
M -6 66 
L 66 -6 
M 0 72 
L 72 0 
M 6 78 
L 78 6 
M 12 84 
L 84 12 
M 18 90 
L 90 18 
M 24 96 
L 96 24 
M 30 102 
L 102 30 
M 36 108 
L 108 36 
M -36 36 
L 36 108 
M -30 30 
L 42 102 
M -24 24 
L 48 96 
M -18 18 
L 54 90 
M -12 12 
L 60 84 
M -6 6 
L 66 78 
M 0 0 
L 72 72 
M 6 -6 
L 78 66 
M 12 -12 
L 84 60 
M 18 -18 
L 90 54 
M 24 -24 
L 96 48 
M 30 -30 
L 102 42 
M 36 -36 
L 108 36 
" style="fill:#000000;stroke:#000000;stroke-linecap:butt;stroke-linejoin:miter;stroke-width:1.0;"/>
  </pattern>
  <pattern height="72" id="h63fd29f70f" patternUnits="userSpaceOnUse" width="72" x="0" y="0">
   <rect fill="#c5b0d5" height="73" width="73" x="0" y="0"/>
   <path d="M -36 36 
L 36 -36 
M -30 42 
L 42 -30 
M -24 48 
L 48 -24 
M -18 54 
L 54 -18 
M -12 60 
L 60 -12 
M -6 66 
L 66 -6 
M 0 72 
L 72 0 
M 6 78 
L 78 6 
M 12 84 
L 84 12 
M 18 90 
L 90 18 
M 24 96 
L 96 24 
M 30 102 
L 102 30 
M 36 108 
L 108 36 
M -36 36 
L 36 108 
M -30 30 
L 42 102 
M -24 24 
L 48 96 
M -18 18 
L 54 90 
M -12 12 
L 60 84 
M -6 6 
L 66 78 
M 0 0 
L 72 72 
M 6 -6 
L 78 66 
M 12 -12 
L 84 60 
M 18 -18 
L 90 54 
M 24 -24 
L 96 48 
M 30 -30 
L 102 42 
M 36 -36 
L 108 36 
" style="fill:#000000;stroke:#000000;stroke-linecap:butt;stroke-linejoin:miter;stroke-width:1.0;"/>
  </pattern>
  <pattern height="72" id="h215cf1aba6" patternUnits="userSpaceOnUse" width="72" x="0" y="0">
   <rect fill="#8c564b" height="73" width="73" x="0" y="0"/>
   <path d="M -36 36 
L 36 -36 
M -30 42 
L 42 -30 
M -24 48 
L 48 -24 
M -18 54 
L 54 -18 
M -12 60 
L 60 -12 
M -6 66 
L 66 -6 
M 0 72 
L 72 0 
M 6 78 
L 78 6 
M 12 84 
L 84 12 
M 18 90 
L 90 18 
M 24 96 
L 96 24 
M 30 102 
L 102 30 
M 36 108 
L 108 36 
M -36 36 
L 36 108 
M -30 30 
L 42 102 
M -24 24 
L 48 96 
M -18 18 
L 54 90 
M -12 12 
L 60 84 
M -6 6 
L 66 78 
M 0 0 
L 72 72 
M 6 -6 
L 78 66 
M 12 -12 
L 84 60 
M 18 -18 
L 90 54 
M 24 -24 
L 96 48 
M 30 -30 
L 102 42 
M 36 -36 
L 108 36 
" style="fill:#000000;stroke:#000000;stroke-linecap:butt;stroke-linejoin:miter;stroke-width:1.0;"/>
  </pattern>
  <pattern height="72" id="h35328d97d8" patternUnits="userSpaceOnUse" width="72" x="0" y="0">
   <rect fill="#c49c94" height="73" width="73" x="0" y="0"/>
   <path d="M -36 36 
L 36 -36 
M -30 42 
L 42 -30 
M -24 48 
L 48 -24 
M -18 54 
L 54 -18 
M -12 60 
L 60 -12 
M -6 66 
L 66 -6 
M 0 72 
L 72 0 
M 6 78 
L 78 6 
M 12 84 
L 84 12 
M 18 90 
L 90 18 
M 24 96 
L 96 24 
M 30 102 
L 102 30 
M 36 108 
L 108 36 
M -36 36 
L 36 108 
M -30 30 
L 42 102 
M -24 24 
L 48 96 
M -18 18 
L 54 90 
M -12 12 
L 60 84 
M -6 6 
L 66 78 
M 0 0 
L 72 72 
M 6 -6 
L 78 66 
M 12 -12 
L 84 60 
M 18 -18 
L 90 54 
M 24 -24 
L 96 48 
M 30 -30 
L 102 42 
M 36 -36 
L 108 36 
" style="fill:#000000;stroke:#000000;stroke-linecap:butt;stroke-linejoin:miter;stroke-width:1.0;"/>
  </pattern>
  <pattern height="72" id="ha397c9f542" patternUnits="userSpaceOnUse" width="72" x="0" y="0">
   <rect fill="#e377c2" height="73" width="73" x="0" y="0"/>
   <path d="M -36 36 
L 36 -36 
M -30 42 
L 42 -30 
M -24 48 
L 48 -24 
M -18 54 
L 54 -18 
M -12 60 
L 60 -12 
M -6 66 
L 66 -6 
M 0 72 
L 72 0 
M 6 78 
L 78 6 
M 12 84 
L 84 12 
M 18 90 
L 90 18 
M 24 96 
L 96 24 
M 30 102 
L 102 30 
M 36 108 
L 108 36 
M -36 36 
L 36 108 
M -30 30 
L 42 102 
M -24 24 
L 48 96 
M -18 18 
L 54 90 
M -12 12 
L 60 84 
M -6 6 
L 66 78 
M 0 0 
L 72 72 
M 6 -6 
L 78 66 
M 12 -12 
L 84 60 
M 18 -18 
L 90 54 
M 24 -24 
L 96 48 
M 30 -30 
L 102 42 
M 36 -36 
L 108 36 
" style="fill:#000000;stroke:#000000;stroke-linecap:butt;stroke-linejoin:miter;stroke-width:1.0;"/>
  </pattern>
  <pattern height="72" id="h821e49887e" patternUnits="userSpaceOnUse" width="72" x="0" y="0">
   <rect fill="#f7b6d2" height="73" width="73" x="0" y="0"/>
   <path d="M -36 36 
L 36 -36 
M -30 42 
L 42 -30 
M -24 48 
L 48 -24 
M -18 54 
L 54 -18 
M -12 60 
L 60 -12 
M -6 66 
L 66 -6 
M 0 72 
L 72 0 
M 6 78 
L 78 6 
M 12 84 
L 84 12 
M 18 90 
L 90 18 
M 24 96 
L 96 24 
M 30 102 
L 102 30 
M 36 108 
L 108 36 
M -36 36 
L 36 108 
M -30 30 
L 42 102 
M -24 24 
L 48 96 
M -18 18 
L 54 90 
M -12 12 
L 60 84 
M -6 6 
L 66 78 
M 0 0 
L 72 72 
M 6 -6 
L 78 66 
M 12 -12 
L 84 60 
M 18 -18 
L 90 54 
M 24 -24 
L 96 48 
M 30 -30 
L 102 42 
M 36 -36 
L 108 36 
" style="fill:#000000;stroke:#000000;stroke-linecap:butt;stroke-linejoin:miter;stroke-width:1.0;"/>
  </pattern>
  <pattern height="72" id="h616f20edbe" patternUnits="userSpaceOnUse" width="72" x="0" y="0">
   <rect fill="#7f7f7f" height="73" width="73" x="0" y="0"/>
   <path d="M -36 36 
L 36 -36 
M -30 42 
L 42 -30 
M -24 48 
L 48 -24 
M -18 54 
L 54 -18 
M -12 60 
L 60 -12 
M -6 66 
L 66 -6 
M 0 72 
L 72 0 
M 6 78 
L 78 6 
M 12 84 
L 84 12 
M 18 90 
L 90 18 
M 24 96 
L 96 24 
M 30 102 
L 102 30 
M 36 108 
L 108 36 
M -36 36 
L 36 108 
M -30 30 
L 42 102 
M -24 24 
L 48 96 
M -18 18 
L 54 90 
M -12 12 
L 60 84 
M -6 6 
L 66 78 
M 0 0 
L 72 72 
M 6 -6 
L 78 66 
M 12 -12 
L 84 60 
M 18 -18 
L 90 54 
M 24 -24 
L 96 48 
M 30 -30 
L 102 42 
M 36 -36 
L 108 36 
" style="fill:#000000;stroke:#000000;stroke-linecap:butt;stroke-linejoin:miter;stroke-width:1.0;"/>
  </pattern>
  <pattern height="72" id="h74998158d8" patternUnits="userSpaceOnUse" width="72" x="0" y="0">
   <rect fill="#c7c7c7" height="73" width="73" x="0" y="0"/>
   <path d="M -36 36 
L 36 -36 
M -30 42 
L 42 -30 
M -24 48 
L 48 -24 
M -18 54 
L 54 -18 
M -12 60 
L 60 -12 
M -6 66 
L 66 -6 
M 0 72 
L 72 0 
M 6 78 
L 78 6 
M 12 84 
L 84 12 
M 18 90 
L 90 18 
M 24 96 
L 96 24 
M 30 102 
L 102 30 
M 36 108 
L 108 36 
M -36 36 
L 36 108 
M -30 30 
L 42 102 
M -24 24 
L 48 96 
M -18 18 
L 54 90 
M -12 12 
L 60 84 
M -6 6 
L 66 78 
M 0 0 
L 72 72 
M 6 -6 
L 78 66 
M 12 -12 
L 84 60 
M 18 -18 
L 90 54 
M 24 -24 
L 96 48 
M 30 -30 
L 102 42 
M 36 -36 
L 108 36 
" style="fill:#000000;stroke:#000000;stroke-linecap:butt;stroke-linejoin:miter;stroke-width:1.0;"/>
  </pattern>
  <pattern height="72" id="h056bc23478" patternUnits="userSpaceOnUse" width="72" x="0" y="0">
   <rect fill="#f08080" height="73" width="73" x="0" y="0"/>
   <path d="M -36 36 
L 36 -36 
M -30 42 
L 42 -30 
M -24 48 
L 48 -24 
M -18 54 
L 54 -18 
M -12 60 
L 60 -12 
M -6 66 
L 66 -6 
M 0 72 
L 72 0 
M 6 78 
L 78 6 
M 12 84 
L 84 12 
M 18 90 
L 90 18 
M 24 96 
L 96 24 
M 30 102 
L 102 30 
M 36 108 
L 108 36 
M -36 36 
L 36 108 
M -30 30 
L 42 102 
M -24 24 
L 48 96 
M -18 18 
L 54 90 
M -12 12 
L 60 84 
M -6 6 
L 66 78 
M 0 0 
L 72 72 
M 6 -6 
L 78 66 
M 12 -12 
L 84 60 
M 18 -18 
L 90 54 
M 24 -24 
L 96 48 
M 30 -30 
L 102 42 
M 36 -36 
L 108 36 
" style="fill:#000000;stroke:#000000;stroke-linecap:butt;stroke-linejoin:miter;stroke-width:1.0;"/>
  </pattern>
  <pattern height="72" id="h06f053c394" patternUnits="userSpaceOnUse" width="72" x="0" y="0">
   <rect fill="#6495ed" height="73" width="73" x="0" y="0"/>
   <path d="M -36 36 
L 36 -36 
M -30 42 
L 42 -30 
M -24 48 
L 48 -24 
M -18 54 
L 54 -18 
M -12 60 
L 60 -12 
M -6 66 
L 66 -6 
M 0 72 
L 72 0 
M 6 78 
L 78 6 
M 12 84 
L 84 12 
M 18 90 
L 90 18 
M 24 96 
L 96 24 
M 30 102 
L 102 30 
M 36 108 
L 108 36 
M -36 36 
L 36 108 
M -30 30 
L 42 102 
M -24 24 
L 48 96 
M -18 18 
L 54 90 
M -12 12 
L 60 84 
M -6 6 
L 66 78 
M 0 0 
L 72 72 
M 6 -6 
L 78 66 
M 12 -12 
L 84 60 
M 18 -18 
L 90 54 
M 24 -24 
L 96 48 
M 30 -30 
L 102 42 
M 36 -36 
L 108 36 
" style="fill:#000000;stroke:#000000;stroke-linecap:butt;stroke-linejoin:miter;stroke-width:1.0;"/>
  </pattern>
  <pattern height="72" id="hd0d8c9ecf2" patternUnits="userSpaceOnUse" width="72" x="0" y="0">
   <rect fill="#ff0000" height="73" width="73" x="0" y="0"/>
   <path d="M -36 36 
L 36 -36 
M -30 42 
L 42 -30 
M -24 48 
L 48 -24 
M -18 54 
L 54 -18 
M -12 60 
L 60 -12 
M -6 66 
L 66 -6 
M 0 72 
L 72 0 
M 6 78 
L 78 6 
M 12 84 
L 84 12 
M 18 90 
L 90 18 
M 24 96 
L 96 24 
M 30 102 
L 102 30 
M 36 108 
L 108 36 
M -36 36 
L 36 108 
M -30 30 
L 42 102 
M -24 24 
L 48 96 
M -18 18 
L 54 90 
M -12 12 
L 60 84 
M -6 6 
L 66 78 
M 0 0 
L 72 72 
M 6 -6 
L 78 66 
M 12 -12 
L 84 60 
M 18 -18 
L 90 54 
M 24 -24 
L 96 48 
M 30 -30 
L 102 42 
M 36 -36 
L 108 36 
" style="fill:#000000;stroke:#000000;stroke-linecap:butt;stroke-linejoin:miter;stroke-width:1.0;"/>
  </pattern>
  <pattern height="72" id="h4a2bbca911" patternUnits="userSpaceOnUse" width="72" x="0" y="0">
   <rect fill="#0000ff" height="73" width="73" x="0" y="0"/>
   <path d="M -36 36 
L 36 -36 
M -30 42 
L 42 -30 
M -24 48 
L 48 -24 
M -18 54 
L 54 -18 
M -12 60 
L 60 -12 
M -6 66 
L 66 -6 
M 0 72 
L 72 0 
M 6 78 
L 78 6 
M 12 84 
L 84 12 
M 18 90 
L 90 18 
M 24 96 
L 96 24 
M 30 102 
L 102 30 
M 36 108 
L 108 36 
M -36 36 
L 36 108 
M -30 30 
L 42 102 
M -24 24 
L 48 96 
M -18 18 
L 54 90 
M -12 12 
L 60 84 
M -6 6 
L 66 78 
M 0 0 
L 72 72 
M 6 -6 
L 78 66 
M 12 -12 
L 84 60 
M 18 -18 
L 90 54 
M 24 -24 
L 96 48 
M 30 -30 
L 102 42 
M 36 -36 
L 108 36 
" style="fill:#000000;stroke:#000000;stroke-linecap:butt;stroke-linejoin:miter;stroke-width:1.0;"/>
  </pattern>
 </defs>
</svg>
